<?xml version="1.0" encoding="UTF-8" standalone="no"?>
<!DOCTYPE svg  PUBLIC '-//W3C//DTD SVG 1.1//EN'  'http://www.w3.org/Graphics/SVG/1.1/DTD/svg11.dtd'>
<svg xmlns="http://www.w3.org/2000/svg">
<defs>
<font id="Circe-Thin" horiz-adv-x="584">
<font-face underline-position="-50" font-weight="250" descent="-200" panose-1="2 11 2 2 2 2 3 2 2 3" units-per-em="1000" unicode-range="U+0020-2666" bbox="-180 -250 1149 850" x-height="450" underline-thickness="50" font-family="Circe" ascent="800" cap-height="700"/>
<missing-glyph horiz-adv-x="1000"/>
<glyph glyph-name=".notdef" horiz-adv-x="1000"/>
<glyph glyph-name=".null" horiz-adv-x="0"/>
<glyph glyph-name="nonmarkingreturn" horiz-adv-x="333"/>
<glyph glyph-name="space" horiz-adv-x="250" unicode=" "/>
<glyph glyph-name="exclam" horiz-adv-x="310" unicode="!" d="M142 13q0 8 8 11t13 -3q4 -3 4 -8q0 -13 -12 -13q-13 0 -13 13zM160 160h-10v540h10v-540z"/>
<glyph glyph-name="quotedbl" horiz-adv-x="380" unicode='&quot;' d="M130 515h-10v185h10v-185zM260 515h-10v185h10v-185z"/>
<glyph glyph-name="numbersign" horiz-adv-x="664" unicode="#" d="M499 465h-249l-85 -230h248zM335 -8l-10 4l85 229h-249l-86 -233l-10 4l85 229h-110v10h113l86 230h-199v10h203l87 233l9 -3l-85 -230h249l87 233l9 -3l-85 -230h110v-10h-114l-85 -230h199v-10h-203z"/>
<glyph glyph-name="dollar" d="M493 167q0 117 -139 168q-76 28 -115 41q-138 51 -138 168q0 73 51.5 118t141.5 46v82h10v-82q51 -1 99 -20t75 -49l-7 -7q-63 66 -177 66q-83 0 -133 -42t-50 -111q0 -54 29 -91t72.5 -54.5t94.5 -37t94.5 -38.5t72.5 -59t29 -98q0 -75 -57 -122q-57 -48 -142 -52v-93 h-10v92h-7q-60 0 -120 27q-60 28 -85 69l8 7q33 -43 86 -68q54 -25 109 -25q85 0 146 43q62 44 62 122z" unicode="$"/>
<glyph glyph-name="percent" horiz-adv-x="809" unicode="%" d="M147 -8l-8 7l531 709l8 -5zM449 152q0 -61 44 -102q43 -40 101 -40q59 0 102 40t43 102q0 61 -44 102q-43 40 -101 40q-59 0 -102 -40t-43 -102zM483 43q-44 44 -44 109t44 109q44 43 111 43t110 -43q45 -43 45 -109t-45 -109q-43 -43 -110 -43t-111 43zM70 548 q0 -61 44 -102q43 -40 101 -40q59 0 102 40t43 102q0 61 -44 102q-43 40 -101 40q-59 0 -102 -40t-43 -102zM104 439q-44 44 -44 109t44 109q44 43 111 43t110 -43q45 -43 45 -109t-45 -109q-43 -43 -110 -43t-111 43z"/>
<glyph glyph-name="ampersand" horiz-adv-x="726" unicode="&amp;" d="M206 663q-35 -35 -35 -85t35 -85q37 -35 85 -35q49 0 84 35q36 35 36 85t-36 85q-35 35 -84 35q-48 0 -85 -35zM296 2q142 0 228 135l-242 305q-182 -125 -182 -251q0 -85 58 -137t138 -52zM646 0h-13l-102 129q-89 -137 -234 -137q-86 0 -147 56q-60 56 -60 142 q0 138 187 259q-50 5 -83 41.5t-33 87.5q0 54 38 92t92 38t92 -38t38 -92t-38 -92t-92 -38l239 -302q78 131 78 304h10q0 -182 -81 -313z"/>
<glyph glyph-name="quotesingle" horiz-adv-x="250" unicode="&apos;" d="M130 515h-10v185h10v-185z"/>
<glyph glyph-name="parenleft" horiz-adv-x="250" unicode="(" d="M250 -200l-8 -6q-202 174 -202 431q0 248 203 431l7 -6q-200 -183 -200 -425q0 -254 200 -425z"/>
<glyph glyph-name="parenright" horiz-adv-x="250" unicode=")" d="M8 -206l-8 6q200 171 200 425q0 242 -200 425l7 6q203 -183 203 -431q0 -257 -202 -431z"/>
<glyph glyph-name="asterisk" horiz-adv-x="432" unicode="*" d="M115 650q12 0 12 -13t-12 -13q-13 0 -13 13t13 13zM102 528q0 13 13 13q12 0 12 -13q0 -12 -12 -12q-13 0 -13 12zM305 528q0 13 12 13q13 0 13 -13q0 -12 -13 -12q-12 0 -12 12zM317 650q13 0 13 -13t-13 -13q-12 0 -12 13t12 13zM205 462q0 13 13 13q12 0 12 -13 q0 -12 -12 -12q-13 0 -13 12zM206 695q0 13 13 13t13 -13q0 -12 -13 -12t-13 12z"/>
<glyph glyph-name="plus" d="M286 355h-211v10h211v211h10v-211h213v-10h-213v-213h-10v213z" unicode="+"/>
<glyph glyph-name="comma" horiz-adv-x="166" unicode="," d="M69 12q0 13 16 13t28.5 -19.5t12.5 -48.5q0 -38 -23 -67t-55 -38l-3 8q28 7 49.5 34t21.5 61q0 42 -23 56q-2 -11 -12 -11q-12 0 -12 12z"/>
<glyph glyph-name="hyphen" horiz-adv-x="414" unicode="-" d="M314 265h-214v10h214v-10z"/>
<glyph glyph-name="period" horiz-adv-x="145" unicode="." d="M60 13q0 12 13 12q5 0 8 -4q4 -3 4 -8q0 -13 -12 -13q-13 0 -13 13z"/>
<glyph glyph-name="slash" horiz-adv-x="289" unicode="/" d="M-20 -208l-10 4l340 912l9 -3z"/>
<glyph glyph-name="zero" d="M90 350q0 -160 49 -254t155 -94t152 94q48 94 48 254t-49 254q-48 94 -153 94t-154 -94q-48 -94 -48 -254zM504 350q0 -104 -20 -184q-21 -80 -69.5 -127t-120.5 -47q-110 0 -162 97t-52 261q0 162 51 260q53 98 161 98q109 0 160 -98q52 -97 52 -260z" unicode="0"/>
<glyph glyph-name="one" horiz-adv-x="361" unicode="1" d="M67 580l-7 7l146 121h5v-708h-10v691z"/>
<glyph glyph-name="two" horiz-adv-x="532" unicode="2" d="M462 0h-402v10l28.5 28.5l30.5 30.5l23 23q40 42 91 101q55 64 93 119q34 49 64 116q28 63 28 114q0 63 -43 109q-44 47 -121 47q-60 0 -112 -37q-51 -37 -61 -112h-10q7 77 63 117q56 42 117 42q87 0 132 -50t45 -114q0 -192 -354 -534h388v-10z"/>
<glyph glyph-name="three" horiz-adv-x="535" unicode="3" d="M253 -8q-67 0 -118 30.5t-75 93.5l9 4q24 -59 74 -88.5t114 -29.5q84 0 136 52t52 133q0 73 -49 119q-49 47 -117 47h-67v10h60q55 0 100 51q46 50 46 122q0 77 -44 119.5t-120 42.5q-126 0 -166 -111l-9 2q16 54 63.5 86.5t110.5 32.5q83 0 129 -46t46 -129 q0 -53 -31 -102q-30 -49 -83 -69v-3q63 -7 102 -59q39 -50 39 -113q0 -88 -57 -142q-58 -53 -145 -53z"/>
<glyph glyph-name="four" horiz-adv-x="520" unicode="4" d="M368 0h-10v200h-328v2l330 498h12l-325 -490h311v240h10v-240h112v-10h-112v-200z"/>
<glyph glyph-name="five" horiz-adv-x="521" unicode="5" d="M135 388l40 312h286v-10h-278l-37 -288q45 14 88 14q98 0 160 -57t62 -149q0 -97 -60 -158q-58 -60 -140 -60q-136 0 -196 118l9 4q28 -54 79 -83t108 -29q79 0 135 59q55 59 55 149q0 84 -59 140t-152 56q-51 0 -100 -18z"/>
<glyph glyph-name="six" horiz-adv-x="544" unicode="6" d="M70 249q0 -100 56 -174q55 -73 160 -73q76 0 132 60q56 62 56 146q0 91 -52 149q-53 59 -146 59q-83 0 -138 -52q-54 -51 -68 -115zM60 248q0 91 29 174t78 141q100 120 225 145l5 -8q-115 -25 -210 -127q-100 -112 -117 -294q22 65 77 106t130 41q95 0 151 -60 q56 -61 56 -157q0 -88 -59 -153q-58 -64 -137 -64q-112 0 -170 73t-58 183z"/>
<glyph glyph-name="seven" horiz-adv-x="460" unicode="7" d="M405 690h-365v10h380v-2l-279 -698h-12z"/>
<glyph glyph-name="eight" horiz-adv-x="585" unicode="8" d="M80 181q0 62 42 113q43 51 115 64v3q-55 13 -93 63q-37 49 -37 103q0 81 53 131q55 50 132 50q78 0 132 -51q54 -49 54 -130q0 -54 -35.5 -100.5t-94.5 -64.5v-3q70 -8 113 -57q44 -50 44 -121q0 -85 -64 -137q-62 -52 -148 -52q-85 0 -149 52t-64 137zM310 355h-32 q-78 0 -133 -51t-55 -123q0 -77 60 -128q62 -51 142 -51q83 0 142 49q61 49 61 130q0 79 -54 126q-54 48 -131 48zM273 365h39q56 0 106 48t50 117q0 77 -54 122q-52 46 -123 46q-70 0 -122 -46q-52 -45 -52 -122q0 -69 49 -117q50 -48 107 -48z"/>
<glyph glyph-name="nine" horiz-adv-x="544" unicode="9" d="M474 451q0 104 -52 175q-51 72 -154 72q-76 0 -138 -59q-60 -59 -60 -142q0 -84 52 -143q52 -60 146 -60q83 0 138 47q54 47 68 110zM484 452q0 -190 -93 -314q-92 -123 -239 -146l-5 8q138 22 228 134q90 113 99 287q-21 -62 -76 -99.5t-131 -37.5q-94 0 -151 62 q-56 62 -56 150t63 150q64 62 143 62q110 0 164 -73q54 -72 54 -183z"/>
<glyph glyph-name="colon" horiz-adv-x="325" unicode=":" d="M150 13q0 8 8 11t13 -3q6 -5 3 -13t-11 -8q-13 0 -13 13zM150 446q0 11 12 11q13 0 13 -11q0 -13 -12 -13q-13 0 -13 13z"/>
<glyph glyph-name="semicolon" horiz-adv-x="326" unicode=";" d="M149 12q0 13 16 13t28.5 -19.5t12.5 -48.5q0 -38 -23 -67t-55 -38l-3 8q28 7 49.5 34t21.5 61q0 42 -23 56q-2 -11 -12 -11q-12 0 -12 12zM150 446q0 11 12 11q13 0 13 -11q0 -13 -12 -13q-13 0 -13 13z"/>
<glyph glyph-name="less" d="M464 116v-12l-389 256v4l389 254v-12l-374 -244z" unicode="&lt;"/>
<glyph glyph-name="equal" d="M509 275h-434v10h434v-10zM509 435h-434v10h434v-10z" unicode="="/>
<glyph glyph-name="greater" d="M509 364v-4l-389 -256v12l374 246l-374 244v12z" unicode="&gt;"/>
<glyph glyph-name="question" horiz-adv-x="451" unicode="?" d="M178 13q0 8 8 11t13 -3q6 -5 3 -13t-11 -8q-13 0 -13 13zM401 540q0 69 -50 113q-49 45 -128 45q-107 0 -175 -93l-8 4q27 44 77.5 71.5t107.5 27.5q87 0 136 -48q50 -48 50 -119q0 -62 -28.5 -100t-79.5 -73q-31 -22 -41.5 -30t-31 -28.5t-28 -42t-7.5 -48.5 q0 -14 5 -44l-9 -3q-6 27 -6 48q0 36 16 65.5t40 48t52 39.5t52 41t40 52.5t16 73.5z"/>
<glyph glyph-name="at" horiz-adv-x="1026" unicode="@" d="M517 2q52 0 101 28q51 30 71 59v317q-67 42 -155 42q-94 0 -164 -65q-68 -65 -68 -158q0 -102 58 -163q58 -60 157 -60zM721 0h-32v75q-28 -36 -76 -59.5t-96 -23.5q-103 0 -164 63q-61 64 -61 170q0 98 70 165q71 68 173 68q94 0 164 -46v-402h22q99 0 157 76t58 178 q0 168 -118 276t-295 108q-187 0 -310 -123t-123 -300t123 -300t310 -123q57 0 108 12l5 -9q-56 -13 -113 -13q-192 0 -318 126q-125 125 -125 307t125 307q126 126 318 126q183 0 303 -111q120 -110 120 -281q0 -68 -24 -127q-24 -62 -77.5 -100.5t-123.5 -38.5z"/>
<glyph glyph-name="A" horiz-adv-x="685" unicode="A" d="M518 287l-176 401l-176 -401h352zM41 0h-11l311 708h3l311 -708h-11l-122 277h-360z"/>
<glyph glyph-name="B" horiz-adv-x="617" unicode="B" d="M290 692q-72 0 -160 -2v-325h172q83 0 138 46q57 47 57 120q0 81 -50 121t-157 40zM294 355h-164v-345q36 0 75 -1q40 -1 87 -1q113 0 174 46t61 136q0 78 -61 121.5t-172 43.5zM120 0v700q39 0 80 1q42 1 92 1q215 0 215 -172q0 -72 -47 -116t-113 -51v-2 q92 -7 141 -51.5t49 -120.5q0 -96 -64 -143.5t-178 -47.5q-51 0 -93 1t-82 1z"/>
<glyph glyph-name="C" horiz-adv-x="657" unicode="C" d="M611 75l6 -8q-36 -35 -94 -55t-119 -20q-154 0 -249 98t-95 260q0 153 93 255q93 103 240 103q131 0 211 -63l-7 -7q-74 60 -203 60q-144 0 -234 -100t-90 -248q0 -156 92 -253q93 -95 242 -95q122 0 207 73z"/>
<glyph glyph-name="D" horiz-adv-x="734" unicode="D" d="M279 693q-20 0 -80 -2q-30 -1 -69 -1v-680l144 -2q189 0 289 100q101 101 101 254q0 144 -95 237q-94 94 -290 94zM125 0h-5v700h10q41 0 70 1q60 2 81 2q204 0 302 -104q91 -95 91 -237q0 -158 -104 -262q-104 -102 -297 -102q-45 0 -76 1t-72 1z"/>
<glyph glyph-name="E" horiz-adv-x="575" unicode="E" d="M505 0h-385v700h375v-10h-365v-328h335v-10h-335v-342h375v-10z"/>
<glyph glyph-name="F" horiz-adv-x="545" unicode="F" d="M130 0h-10v700h385v-10h-375v-348h345v-10h-345v-332z"/>
<glyph glyph-name="G" horiz-adv-x="727" unicode="G" d="M647 303h-229v10h239v-226q-45 -45 -119 -70q-72 -25 -143 -25q-147 0 -242 98q-93 98 -93 260q0 153 93 255q93 103 240 103q131 0 211 -63l-7 -7q-74 60 -203 60q-144 0 -234 -100t-90 -248q0 -157 90 -253q92 -95 237 -95q69 0 138 24q69 23 112 65v212z"/>
<glyph glyph-name="H" horiz-adv-x="775" unicode="H" d="M655 0h-10v352h-515v-352h-10v700h10v-338h515v338h10v-700z"/>
<glyph glyph-name="I" horiz-adv-x="310" unicode="I" d="M160 0h-10v700h10v-700z"/>
<glyph glyph-name="J" horiz-adv-x="341" unicode="J" d="M211 700h10v-553q0 -79 -27 -117t-94 -38q-46 0 -80 25l6 9q32 -24 74 -24q62 0 86.5 35.5t24.5 108.5v554z"/>
<glyph glyph-name="K" horiz-adv-x="614" unicode="K" d="M130 0h-10v700h10v-700zM549 700h14l-361 -335l372 -365h-15l-372 365z"/>
<glyph glyph-name="L" horiz-adv-x="555" unicode="L" d="M535 0h-415v700h10v-690h405v-10z"/>
<glyph glyph-name="M" horiz-adv-x="872" unicode="M" d="M130 0h-10v700h11l310 -422l300 422h11v-700h-10v686l-300 -423h-3l-309 420v-683z"/>
<glyph glyph-name="N" horiz-adv-x="800" unicode="N" d="M680 700v-700h-8l-542 680v-680h-10v700h8l542 -682v682h10z"/>
<glyph glyph-name="O" horiz-adv-x="804" unicode="O" d="M165 598q-95 -101 -95 -248t95 -248q96 -100 237 -100q142 0 236 100q96 101 96 248q0 148 -96 248q-94 100 -236 100q-141 0 -237 -100zM158 95q-98 104 -98 255t98 255q99 103 244 103q146 0 243 -103q99 -103 99 -255t-99 -255q-97 -103 -243 -103q-145 0 -244 103z "/>
<glyph glyph-name="P" horiz-adv-x="567" unicode="P" d="M273 692q-55 0 -143 -2v-380q85 -5 131 -5q114 0 175 53.5t61 142.5q0 88 -56 139.5t-168 51.5zM130 300v-300h-10v700q39 0 78 1t74 1q67 0 115 -17.5t73 -47.5t36 -63.5t11 -73.5q0 -86 -60 -146q-61 -59 -185 -59q-47 0 -132 5z"/>
<glyph glyph-name="Q" horiz-adv-x="804" unicode="Q" d="M402 2q118 0 204 70l-62 76l7 7l63 -76q120 101 120 271q0 148 -96 248q-94 100 -236 100q-141 0 -237 -100q-95 -101 -95 -248t95 -248q96 -100 237 -100zM744 350q0 -171 -124 -279l60 -71h-15l-53 64q-93 -72 -210 -72q-145 0 -244 103q-98 104 -98 255t98 255 q99 103 244 103q146 0 243 -103q99 -103 99 -255z"/>
<glyph glyph-name="R" horiz-adv-x="613" unicode="R" d="M257 692q-39 0 -127 -2v-365h148q80 0 144 54q65 54 65 132q0 181 -230 181zM130 315v-315h-10v700q40 0 76 1t62 1q239 0 239 -192q0 -68 -51 -123q-49 -55 -135 -70l262 -317h-14l-260 315h-169z"/>
<glyph glyph-name="S" horiz-adv-x="541" unicode="S" d="M471 167q0 117 -139 168q-76 28 -115 41q-138 51 -138 168q0 74 52.5 119t143.5 45q54 0 103.5 -19t77.5 -50l-7 -7q-63 66 -177 66q-83 0 -133 -42t-50 -111q0 -54 29 -91t72.5 -54.5t94.5 -37t94.5 -38.5t72.5 -59t29 -98q0 -79 -62 -127q-61 -48 -154 -48 q-60 0 -120 27q-60 28 -85 69l8 7q33 -43 86 -68q54 -25 109 -25q85 0 146 43q62 44 62 122z"/>
<glyph glyph-name="T" horiz-adv-x="590" unicode="T" d="M290 690h-280v10h570v-10h-280v-690h-10v690z"/>
<glyph glyph-name="U" horiz-adv-x="751" unicode="U" d="M631 700h10v-405q0 -152 -73 -226q-72 -75 -183 -75q-122 0 -199 80q-76 79 -76 228v398h10v-399q0 -141 74 -220q74 -77 191 -77q108 0 177 73t69 221v402z"/>
<glyph glyph-name="V" horiz-adv-x="656" unicode="V" d="M625 700h11l-303 -708h-3l-310 708h11l301 -690z"/>
<glyph glyph-name="W" horiz-adv-x="940" unicode="W" d="M909 700h11l-207 -700h-3l-238 676l-232 -676h-3l-217 700h11l208 -671l231 671h4l237 -672z"/>
<glyph glyph-name="X" horiz-adv-x="654" unicode="X" d="M592 700h13l-271 -344l280 -356h-13l-274 348l-274 -348h-13l281 356l-270 344h13l263 -335z"/>
<glyph glyph-name="Y" horiz-adv-x="554" unicode="Y" d="M521 700h13l-253 -385v-315h-10v315l-251 385h13l243 -375z"/>
<glyph glyph-name="Z" horiz-adv-x="620" unicode="Z" d="M551 690h-491v10h510v-2l-512 -688h522v-10h-540v2z"/>
<glyph glyph-name="bracketleft" horiz-adv-x="260" unicode="[" d="M260 -200h-200v850h200v-10h-190v-830h190v-10z"/>
<glyph glyph-name="backslash" horiz-adv-x="289" unicode="\" d="M-30 705l9 3l340 -912l-10 -4z"/>
<glyph glyph-name="bracketright" horiz-adv-x="260" unicode="]" d="M0 650h200v-850h-200v10h190v830h-190v10z"/>
<glyph glyph-name="asciicircum" horiz-adv-x="462" unicode="^" d="M72 450h-12l170 258h4l168 -258h-12l-158 243z"/>
<glyph glyph-name="underscore" horiz-adv-x="250" unicode="_" d="M250 -200h-250v10h250v-10z"/>
<glyph glyph-name="grave" horiz-adv-x="237" unicode="`" d="M177 564l-8 -5l-109 141l7 6z"/>
<glyph glyph-name="a" horiz-adv-x="456" unicode="a" d="M189 6q62 0 103 24t74 71v102q-61 43 -147 43q-63 0 -112 -32q-47 -32 -47 -92q0 -53 36 -84.5t93 -31.5zM89 409l-5 8q67 41 134 41q84 0 121 -43t37 -133v-282h-10v85q-65 -89 -176 -89q-64 0 -102 34.5t-38 90.5q0 64 47 99.5t124 35.5q90 0 145 -40q0 44 -1 57 q0 63 -12 93q-18 47 -43 61q-37 21 -94 21q-62 0 -127 -39z"/>
<glyph glyph-name="b" horiz-adv-x="551" unicode="b" d="M281 448q-55 0 -107 -27q-51 -27 -74 -59v-310q71 -50 160 -50q96 0 161 62t65 165q0 100 -55 159.5t-150 59.5zM90 48v652h10v-324q30 36 80 58q51 24 101 24q100 0 157 -63q58 -61 58 -163q0 -109 -67 -175q-67 -65 -170 -65q-104 0 -169 56z"/>
<glyph glyph-name="c" horiz-adv-x="492" unicode="c" d="M446 69l6 -6q-27 -33 -71 -52t-92 -19q-104 0 -169 64q-65 65 -65 169q0 97 63 165t155 68q111 0 170 -53l-6 -9q-58 52 -162 52q-87 0 -149 -65q-61 -64 -61 -158q0 -100 62 -162q62 -61 162 -61q98 0 157 67z"/>
<glyph glyph-name="d" horiz-adv-x="552" unicode="d" d="M280 2q51 0 100 28q48 28 72 61v307q-71 50 -155 50q-99 0 -166 -63q-66 -63 -66 -160q0 -102 58 -163q59 -60 157 -60zM462 0h-10v76q-28 -36 -76 -60t-96 -24q-102 0 -164 63q-61 64 -61 170q0 103 69 167q70 66 174 66q90 0 154 -48v290h10v-700z"/>
<glyph glyph-name="e" horiz-adv-x="529" unicode="e" d="M271 448q-91 0 -146 -55.5t-60 -147.5h399q1 91 -52 148q-52 55 -141 55zM446 69l6 -6q-27 -33 -71 -52t-92 -19q-104 0 -169 64q-65 65 -65 169q0 103 56 168q57 65 164 65q88 0 143 -55q56 -56 56 -145q0 -2 -0.5 -11t-0.5 -12h-408q0 -107 60 -170q61 -63 164 -63 q98 0 157 67z"/>
<glyph glyph-name="f" horiz-adv-x="341" unicode="f" d="M120 0h-10v523q0 185 151 185q64 0 110 -35l-6 -9q-46 34 -104 34q-72 0 -106.5 -44.5t-34.5 -139.5v-64h205v-10h-205v-440z"/>
<glyph glyph-name="g" horiz-adv-x="484" unicode="g" d="M124 406q-45 -40 -45 -104q0 -63 45 -105q46 -41 114 -41t114 41q45 42 45 105q0 64 -45 104q-45 42 -114 42t-114 -42zM88 23q-58 -34 -58 -94t57 -93q58 -34 152 -34q95 0 151 34q58 33 58 93t-58 94t-151 34t-151 -34zM20 -71q0 51 37 85t104 46q-18 18 -18 49 q0 28 20 51q-44 18 -69 56t-25 86q0 68 47 112t122 44q67 0 113 -37l123 37v-10l-115 -34q48 -45 48 -112q0 -68 -47 -112t-122 -44q-39 0 -66 10q-19 -19 -19 -47q0 -29 21 -47q37 5 65 5q101 0 160 -36.5t59 -101.5t-59 -101t-160 -36q-102 0 -160.5 36t-58.5 101z"/>
<glyph glyph-name="h" horiz-adv-x="554" unicode="h" d="M100 0h-10v700h10v-324q30 36 81 58q53 24 102 24q98 0 144.5 -50t46.5 -156v-252h-10v249q0 102 -44 150.5t-137 48.5q-55 0 -108 -27q-52 -27 -75 -59v-362z"/>
<glyph glyph-name="i" horiz-adv-x="250" unicode="i" d="M113 633q0 12 13 12q11 0 11 -13q0 -12 -11 -12q-13 0 -13 13zM130 0h-10v450h10v-450z"/>
<glyph glyph-name="j" horiz-adv-x="251" unicode="j" d="M112 633q0 12 13 12q5 0 8 -4q4 -3 4 -8q0 -13 -12 -13q-13 0 -13 13zM121 450h10v-483q0 -175 -141 -175q-46 0 -80 25l6 9q32 -24 74 -24q131 0 131 164v484z"/>
<glyph glyph-name="k" horiz-adv-x="445" unicode="k" d="M100 0h-10v700h10v-700zM383 450h16l-237 -215l255 -235h-17l-253 235z"/>
<glyph glyph-name="l" horiz-adv-x="271" unicode="l" d="M90 111v589h10v-574q0 -63 18.5 -91t62.5 -28q43 0 74 24l6 -9q-34 -25 -80 -25q-48 0 -69.5 27.5t-21.5 86.5z"/>
<glyph glyph-name="m" horiz-adv-x="808" unicode="m" d="M728 296v-296h-10v293q0 155 -139 155q-110 0 -168 -91q3 -12 3 -30v-327h-10v325q0 55 -37.5 89t-101.5 34q-51 0 -95.5 -24.5t-69.5 -61.5v-362h-10v450h10v-72q26 36 71.5 58t93.5 22q54 0 92 -23.5t51 -66.5q23 39 72 65q49 25 99 25q149 0 149 -162z"/>
<glyph glyph-name="n" horiz-adv-x="554" unicode="n" d="M100 0h-10v450h10v-74q30 36 81 58q53 24 102 24q98 0 144.5 -50t46.5 -156v-252h-10v249q0 102 -44 150.5t-137 48.5q-55 0 -108 -27q-52 -27 -75 -59v-362z"/>
<glyph glyph-name="o" horiz-adv-x="570" unicode="o" d="M126 385q-61 -61 -61 -160t61 -161q62 -62 159 -62q96 0 158 62q62 64 62 161q0 98 -62 160q-61 63 -158 63t-159 -63zM120 58q-65 67 -65 167t65 167q64 66 165 66t165 -66q65 -67 65 -167t-65 -167q-64 -66 -165 -66t-165 66z"/>
<glyph glyph-name="p" horiz-adv-x="551" unicode="p" d="M281 448q-53 0 -107 -26q-52 -26 -74 -57v-310q73 -53 170 -53q95 0 155 63q61 64 61 164t-55 159.5t-150 59.5zM100 -200h-10v650h10v-71q29 35 79.5 57t101.5 22q100 0 157 -63q58 -61 58 -163q0 -104 -63 -172t-164 -68q-104 0 -169 50v-242z"/>
<glyph glyph-name="q" horiz-adv-x="552" unicode="q" d="M280 2q51 0 101 26q51 28 71 58v320q-68 42 -155 42q-94 0 -164 -65q-68 -65 -68 -158q0 -102 58 -163q59 -60 157 -60zM462 -200h-10v272q-27 -34 -75.5 -57t-96.5 -23q-102 0 -164 63q-61 64 -61 170q0 98 70 165q71 68 173 68q94 0 164 -46v-612z"/>
<glyph glyph-name="r" horiz-adv-x="313" unicode="r" d="M100 0h-10v450h10v-70q48 78 133 78q47 0 70 -17l-3 -10q-29 17 -67 17q-77 0 -133 -86v-362z"/>
<glyph glyph-name="s" horiz-adv-x="401" unicode="s" d="M331 111q0 72 -91 101q-2 1 -22 7t-24 7.5t-22 7.5t-23 9.5t-19.5 11t-19.5 13.5t-14.5 15.5t-13 19t-6.5 22t-3 26.5q0 48 36 77.5t95 29.5q35 0 68.5 -12.5t51.5 -32.5l-7 -8q-42 43 -115 43q-52 0 -85.5 -27.5t-33.5 -68.5q0 -42 26.5 -68.5t64.5 -39l76 -25t64.5 -39 t26.5 -68.5q0 -56 -40 -88t-104 -32q-37 0 -80 17q-42 16 -57 41l9 6q17 -23 54 -38.5t73 -15.5q57 0 96 29.5t39 79.5z"/>
<glyph glyph-name="t" horiz-adv-x="341" unicode="t" d="M80 171v404h10v-125h205v-10h-205v-260q0 -89 31.5 -131.5t99.5 -42.5q43 0 74 24l6 -9q-34 -25 -80 -25q-73 0 -107 43t-34 132z"/>
<glyph glyph-name="u" horiz-adv-x="550" unicode="u" d="M450 450h10v-450h-10v83q-31 -37 -84 -64q-52 -27 -105 -27q-93 0 -137 50t-44 156v252h10v-249q0 -102 41.5 -150.5t131.5 -48.5q57 0 110 30t77 65v353z"/>
<glyph glyph-name="v" horiz-adv-x="466" unicode="v" d="M435 450h11l-209 -458h-3l-214 458h11l160 -344l45 -96l45 100z"/>
<glyph glyph-name="w" horiz-adv-x="676" unicode="w" d="M645 450h11l-149 -458h-3l-143 378l-22 59l-23 -63l-139 -374h-3l-154 458h11l122 -362l23 -69l26 69l135 362h4l137 -360l27 -72l25 77z"/>
<glyph glyph-name="x" horiz-adv-x="477" unicode="x" d="M414 450h13l-182 -219l192 -231h-13l-186 223l-185 -223h-13l192 231l-182 219h13l175 -211z"/>
<glyph glyph-name="y" horiz-adv-x="466" unicode="y" d="M435 450h11l-185 -450q-48 -116 -84 -158t-82 -42q-29 0 -64 15l4 9q35 -15 58 -15q42 0 76.5 39t71.5 128l10 24l-231 450h11l187 -366l38 -74l31 76z"/>
<glyph glyph-name="z" horiz-adv-x="475" unicode="z" d="M406 440h-341v10h360v-2l-357 -438h352v-10h-370v2z"/>
<glyph glyph-name="braceleft" horiz-adv-x="280" unicode="{" d="M110 -86v208q0 50 -24.5 74t-62.5 24h-3v10q39 0 64.5 27t25.5 83v193q0 117 99 117h51v-10h-51q-47 0 -68 -26t-21 -81v-193q0 -48 -20.5 -78.5t-54.5 -35.5q75 -9 75 -114v-198q0 -104 95 -104h45v-10h-46q-104 0 -104 114z"/>
<glyph glyph-name="bar" horiz-adv-x="310" unicode="|" d="M160 0h-10v700h10v-700z"/>
<glyph glyph-name="braceright" horiz-adv-x="280" unicode="}" d="M170 122v-208q0 -114 -104 -114h-46v10h45q95 0 95 104v198q0 105 75 114q-34 5 -54.5 35.5t-20.5 78.5v193q0 55 -21 81t-68 26h-51v10h51q99 0 99 -117v-193q0 -56 25.5 -83t64.5 -27v-10h-3q-38 0 -62.5 -24t-24.5 -74z"/>
<glyph glyph-name="asciitilde" d="M76 345l-8 7q58 53 115 53q40 0 116 -38t113 -38q48 0 97 46l7 -7q-52 -49 -105 -49q-38 0 -116 38q-76 38 -114 38q-53 0 -105 -50z" unicode="~"/>
<glyph glyph-name="uni00A0" horiz-adv-x="250" unicode=" "/>
<glyph glyph-name="exclamdown" horiz-adv-x="310" unicode="¡" d="M169 445q0 -12 -13 -12q-11 0 -11 13q0 12 11 12q13 0 13 -13zM151 298h10v-540h-10v540z"/>
<glyph glyph-name="cent" d="M486 69l6 -6q-27 -33 -71 -52t-92 -19h-3v-112h-10v112q-98 5 -160 68q-61 62 -61 165q0 97 63 165t155 68h3v111h10v-111q101 -3 157 -53l-6 -9q-58 52 -162 52q-87 0 -149 -65q-61 -64 -61 -158q0 -100 62 -162q62 -61 162 -61q98 0 157 67z" unicode="¢"/>
<glyph glyph-name="sterling" d="M168 295h-79v10h76q-3 11 -22 54q-34 75 -34 155q0 76 53 135q54 59 143 59q54 0 103.5 -19t77.5 -50l-7 -7q-63 66 -177 66q-81 0 -132 -56t-51 -127q0 -47 9 -81q7 -27 26 -73.5t22 -55.5h187v-10h-184q9 -38 9 -74q0 -106 -51 -170q21 7 48 7q39 0 115 -26t112 -26 q60 0 113 50l7 -7q-56 -53 -122 -53q-36 0 -114 26q-76 26 -114 26q-63 0 -121 -55l-8 7q35 32 68 46q57 64 57 176q0 40 -10 73z" unicode="£"/>
<glyph glyph-name="currency" d="M140 503q-57 -65 -57 -153t57 -153q58 -64 153 -64t152 64q58 64 58 153t-58 153q-57 64 -152 64t-153 -64zM73 350q0 90 57 155l-99 100l7 7l99 -99q61 64 156 64q94 0 155 -64l107 106l7 -7l-106 -107q57 -66 57 -155q0 -90 -57 -155l101 -102l-7 -7l-101 101 q-61 -64 -156 -64t-156 63l-108 -107l-7 7l108 109q-57 63 -57 155z" unicode="¤"/>
<glyph glyph-name="yen" d="M286 314h-212v10h206l-245 376h13l243 -375l245 375h13l-247 -376h206v-10h-212v-150h212v-10h-212v-154h-10v154h-212v10h212v150z" unicode="¥"/>
<glyph glyph-name="brokenbar" horiz-adv-x="310" unicode="¦" d="M150 0v260h10v-260h-10zM160 700v-260h-10v260h10z"/>
<glyph glyph-name="section" horiz-adv-x="524" unicode="§" d="M90 249q0 -72 52 -120t120 -48q69 0 121 47q51 48 51 121t-52 121q-51 48 -120 48q-68 0 -121 -48q-51 -48 -51 -121zM80 249q0 73 46 122q47 50 118 56q-51 19 -82.5 54.5t-31.5 81.5q0 61 39.5 99t101.5 38q77 0 120 -55l-7 -8l-23 24q-10 10 -36 19.5t-56 9.5 q-55 0 -92 -37q-37 -36 -37 -89q0 -54 42 -89q44 -35 96 -48q71 -5 118 -55q48 -50 48 -123q0 -72 -47 -122q-45 -48 -117 -56q49 -18 80.5 -53t31.5 -81q0 -61 -39.5 -99t-101.5 -38q-77 0 -120 55l7 8l23 -24q10 -10 36 -19.5t56 -9.5q55 0 92 37q37 36 37 89q0 51 -41 86 q-42 36 -92 49q-73 4 -121 54q-48 49 -48 124z"/>
<glyph glyph-name="dieresis" horiz-adv-x="359" unicode="¨" d="M274 631q0 12 13 12q5 0 8 -4q4 -3 4 -8q0 -13 -12 -13q-13 0 -13 13zM60 631q0 12 13 12q5 0 8 -4q4 -3 4 -8q0 -13 -12 -13q-13 0 -13 13z"/>
<glyph glyph-name="copyright" horiz-adv-x="1018" unicode="©" d="M675 69l6 -6q-27 -33 -71 -52t-92 -19q-104 0 -169 64q-65 65 -65 169q0 97 63 165t155 68q111 0 170 -53l-6 -9q-58 52 -162 52q-87 0 -149 -65q-61 -64 -61 -158q0 -100 62 -162q62 -61 162 -61q98 0 157 67zM210 518q-120 -122 -120 -297t120 -297t299 -122t299 122 t120 297t-120 297t-299 122t-299 -122zM135 5q-55 98 -55 216q0 117 55 215.5t154 155.5q98 58 220 58q120 0 219.5 -57t154.5 -157q55 -97 55 -215q0 -117 -55 -215.5t-154 -155.5q-98 -58 -220 -58t-220 58q-98 56 -154 155z"/>
<glyph glyph-name="ordfeminine" horiz-adv-x="385" unicode="ª" d="M170 367q80 0 125 61v73q-46 31 -115 31q-47 0 -78.5 -22.5t-31.5 -60.5q0 -35 29.5 -58.5t70.5 -23.5zM100 615l-8 6q40 37 97 37q116 0 116 -114v-184h-10v57q-44 -59 -124 -59q-49 0 -80 26t-31 65q0 43 33 68t88 25q71 0 114 -30v30q0 52 -27.5 79t-79.5 27 q-42 0 -88 -33z"/>
<glyph glyph-name="guillemotleft" horiz-adv-x="469" unicode="«" d="M237 56l-6 -8l-171 200v4l172 198l7 -6l-168 -194zM387 56l-6 -8l-171 200v4l172 198l7 -6l-168 -194z"/>
<glyph glyph-name="logicalnot" d="M499 355h-424v10h434v-141h-10v131z" unicode="¬"/>
<glyph glyph-name="uni00AD" horiz-adv-x="414" unicode="­" d="M314 265h-214v10h214v-10z"/>
<glyph glyph-name="registered" horiz-adv-x="528" unicode="®" d="M252 630h-51v-134h59q29 0 53 19.5t24 48.5q0 31 -22 48.5t-63 17.5zM201 486v-126h-10v280h61q95 0 95 -76q0 -27 -20.5 -49t-53.5 -29l105 -126h-15l-104 126h-58zM127 633q-57 -57 -57 -137t57 -137t137 -57t137 57t57 137t-57 137t-137 57t-137 -57zM119 351 q-59 61 -59 145q0 85 59 144q60 60 145 60q86 0 144 -60q60 -58 60 -144q0 -85 -60 -145q-59 -59 -144 -59q-84 0 -145 59z"/>
<glyph glyph-name="overscore" horiz-adv-x="354" unicode="¯" d="M294 640h-234v10h234v-10z"/>
<glyph glyph-name="degree" horiz-adv-x="380" unicode="°" d="M105 655q-35 -35 -35 -85t35 -85t85 -35t85 35t35 85t-35 85t-85 35t-85 -35zM98 478q-38 38 -38 92t38 92t92 38t92 -38t38 -92t-38 -92t-92 -38t-92 38z"/>
<glyph glyph-name="plusminus" d="M509 185h-434v10h434v-10zM286 425h-211v10h211v211h10v-211h213v-10h-213v-163h-10v163z" unicode="±"/>
<glyph glyph-name="twosuperior" horiz-adv-x="323" unicode="²" d="M288 350h-243v9l36 27q9 6 48 37q18 15 44 39q31 30 44 48q40 54 40 97q0 38 -25.5 62.5t-69.5 24.5q-38 0 -66.5 -19t-34.5 -53l-10 2q6 37 37.5 58.5t71.5 21.5q52 0 79.5 -27.5t27.5 -72.5q0 -98 -197 -238l-9 -6h227v-10z"/>
<glyph glyph-name="threesuperior" horiz-adv-x="329" unicode="³" d="M157 346q-87 0 -117 62l8 5q28 -57 111 -57q49 0 79.5 25t30.5 63q0 35 -28 57.5t-70 22.5h-40v10h35q34 0 60.5 25t26.5 58q0 36 -26.5 56.5t-69.5 20.5q-75 0 -98 -54l-8 5q10 28 38.5 43.5t67.5 15.5q50 0 78 -23t28 -64q0 -28 -18.5 -52.5t-49.5 -33.5v-1 q37 -4 60.5 -28.5t23.5 -57.5q0 -44 -34 -71t-88 -27z"/>
<glyph glyph-name="acute" horiz-adv-x="237" unicode="´" d="M170 706l7 -6l-109 -141l-8 5z"/>
<glyph glyph-name="mu" horiz-adv-x="550" unicode="µ" d="M450 450h10v-450h-10v83q-31 -37 -84 -64q-52 -27 -105 -27q-140 0 -171 118v-310h-10v650h10v-249q0 -102 41.5 -150.5t131.5 -48.5q57 0 110 30t77 65v353z"/>
<glyph glyph-name="mu" horiz-adv-x="550" unicode="μ" d="M450 450h10v-450h-10v83q-31 -37 -84 -64q-52 -27 -105 -27q-140 0 -171 118v-310h-10v650h10v-249q0 -102 41.5 -150.5t131.5 -48.5q57 0 110 30t77 65v353z"/>
<glyph glyph-name="paragraph" horiz-adv-x="401" unicode="¶" d="M60 481q0 103 52 161t147 58h102v-10h-94v-743q0 -79 -27 -117t-94 -38q-46 0 -80 25l6 9q32 -24 74 -24q62 0 86.5 35.5t24.5 108.5v317q-87 2 -142 59q-55 58 -55 159z"/>
<glyph glyph-name="middot" horiz-adv-x="250" unicode="·" d="M112 293q0 12 13 12q5 0 8 -4q4 -3 4 -8q0 -13 -12 -13q-13 0 -13 13z"/>
<glyph glyph-name="cedilla" horiz-adv-x="298" unicode="¸" d="M60 -180l4 9q38 -19 74 -19q40 0 65 16.5t25 43.5q0 60 -90 60h-6v70h10v-60q96 -2 96 -70q0 -31 -27.5 -50.5t-72.5 -19.5q-35 0 -78 20z"/>
<glyph glyph-name="onesuperior" horiz-adv-x="220" unicode="¹" d="M41 635l-6 8l89 61h6v-354h-10v338z"/>
<glyph glyph-name="ordmasculine" horiz-adv-x="430" unicode="º" d="M70 506q0 -61 44 -102q43 -40 101 -40q59 0 102 40t43 102q0 61 -44 102q-43 40 -101 40q-59 0 -102 -40t-43 -102zM104 397q-44 44 -44 109t44 109q44 43 111 43t110 -43q45 -43 45 -109t-45 -109q-43 -43 -110 -43t-111 43z"/>
<glyph glyph-name="guillemotright" horiz-adv-x="469" unicode="»" d="M259 252v-4l-171 -200l-6 8l166 194l-168 194l7 6zM409 252v-4l-171 -200l-6 8l166 194l-168 194l7 6z"/>
<glyph glyph-name="onequarter" horiz-adv-x="633" unicode="¼" d="M68 -8l-8 7l531 709l8 -5zM61 635l-6 8l89 61h6v-354h-10v338zM547 0h-10v98h-197v5l196 247h11l-192 -242h182v117h10v-117h66v-10h-66v-98z"/>
<glyph glyph-name="onehalf" horiz-adv-x="648" unicode="½" d="M608 0h-243v9l36 27q9 6 48 37q18 15 44 39q31 30 44 48q40 54 40 97q0 38 -25.5 62.5t-69.5 24.5q-38 0 -66.5 -19t-34.5 -53l-10 2q6 37 37.5 58.5t71.5 21.5q52 0 79.5 -27.5t27.5 -72.5q0 -98 -199 -239l-7 -5h227v-10zM28 -8l-8 7l531 709l8 -5zM61 635l-6 8l89 61 h6v-354h-10v338z"/>
<glyph glyph-name="threequarters" horiz-adv-x="663" unicode="¾" d="M108 -8l-8 7l531 709l8 -5zM577 0h-10v98h-197v5l196 247h11l-192 -242h182v117h10v-117h66v-10h-66v-98zM157 346q-87 0 -117 62l8 5q28 -57 111 -57q49 0 79.5 25t30.5 63q0 35 -28 57.5t-70 22.5h-40v10h35q34 0 60.5 25t26.5 58q0 36 -26.5 56.5t-69.5 20.5 q-75 0 -98 -54l-8 5q10 28 38.5 43.5t67.5 15.5q50 0 78 -23t28 -64q0 -28 -18.5 -52.5t-49.5 -33.5v-1q37 -4 60.5 -28.5t23.5 -57.5q0 -44 -34 -71t-88 -27z"/>
<glyph glyph-name="questiondown" horiz-adv-x="451" unicode="¿" d="M273 445q0 -12 -13 -12q-11 0 -11 13q0 12 11 12q13 0 13 -13zM50 -82q0 -69 50 -113q50 -45 128 -45q107 0 175 93l8 -4q-27 -44 -77.5 -71.5t-107.5 -27.5q-88 0 -137 48t-49 119q0 62 28.5 100t79.5 73q31 22 41.5 30t31 28.5t28 42t7.5 48.5q0 14 -5 44l9 3 q6 -27 6 -48q0 -36 -16 -65.5t-40 -48t-52 -39.5t-52 -41t-40 -52.5t-16 -73.5z"/>
<glyph glyph-name="Agrave" horiz-adv-x="685" unicode="À" d="M369 749l-5 -7l-154 90l4 8zM518 287l-176 401l-176 -401h352zM41 0h-11l311 708h3l311 -708h-11l-122 277h-360z"/>
<glyph glyph-name="Aacute" horiz-adv-x="685" unicode="Á" d="M475 840l4 -8l-154 -90l-5 7zM518 287l-176 401l-176 -401h352zM41 0h-11l311 708h3l311 -708h-11l-122 277h-360z"/>
<glyph glyph-name="Acircumflex" horiz-adv-x="685" unicode="Â" d="M183 743l-7 7l165 90h4l164 -90l-8 -7l-158 87zM518 287l-176 401l-176 -401h352zM41 0h-11l311 708h3l311 -708h-11l-122 277h-360z"/>
<glyph glyph-name="Atilde" horiz-adv-x="685" unicode="Ã" d="M189 776l-6 7q37 30 75 30q32 0 85 -25t80 -25q40 0 72 35l7 -7q-38 -38 -79 -38q-30 0 -84 25t-84 25q-33 0 -66 -27zM518 287l-176 401l-176 -401h352zM41 0h-11l311 708h3l311 -708h-11l-122 277h-360z"/>
<glyph glyph-name="Adieresis" horiz-adv-x="685" unicode="Ä" d="M447 790q0 12 13 12q12 0 12 -12q0 -13 -12 -13q-13 0 -13 13zM213 790q0 12 13 12q12 0 12 -12q0 -13 -12 -13q-13 0 -13 13zM518 287l-176 401l-176 -401h352zM41 0h-11l311 708h3l311 -708h-11l-122 277h-360z"/>
<glyph glyph-name="Aring" horiz-adv-x="685" unicode="Å" d="M340 707h4q37 1 59 18.5t22 49.5t-23 49q-22 16 -60 16t-60 -16t-22 -49q0 -32 22 -50t58 -18zM518 287l-176 401l-176 -401h352zM250 775q0 36 25.5 55.5t66.5 19.5q42 0 67.5 -19.5t25.5 -55.5q0 -35 -23.5 -55.5t-62.5 -22.5l306 -697h-11l-122 277h-360l-121 -277 h-11l306 697q-39 2 -62.5 22.5t-23.5 55.5z"/>
<glyph glyph-name="AE" horiz-adv-x="966" unicode="Æ" d="M511 295v391l-279 -391h279zM896 10v-10h-385v285h-286l-202 -285h-13l501 700h375v-10h-365v-328h335v-10h-335v-342h375z"/>
<glyph glyph-name="Ccedilla" horiz-adv-x="657" unicode="Ç" d="M319 -180l4 9q38 -19 74 -19q40 0 65 16.5t25 43.5q0 60 -90 60h-6v63q-148 4 -240 101q-91 97 -91 256q0 153 93 255q93 103 240 103q131 0 211 -63l-7 -7q-74 60 -203 60q-144 0 -234 -100t-90 -248q0 -156 92 -253q93 -95 242 -95q122 0 207 73l6 -8q-36 -35 -94 -55 t-119 -20h-3v-52q96 -2 96 -70q0 -31 -27.5 -50.5t-72.5 -19.5q-35 0 -78 20z"/>
<glyph glyph-name="Egrave" horiz-adv-x="575" unicode="È" d="M359 749l-5 -7l-154 90l4 8zM505 0h-385v700h375v-10h-365v-328h335v-10h-335v-342h375v-10z"/>
<glyph glyph-name="Eacute" horiz-adv-x="575" unicode="É" d="M405 840l4 -8l-154 -90l-5 7zM505 0h-385v700h375v-10h-365v-328h335v-10h-335v-342h375v-10z"/>
<glyph glyph-name="Ecircumflex" horiz-adv-x="575" unicode="Ê" d="M505 0h-385v700h375v-10h-365v-328h335v-10h-335v-342h375v-10zM150 743l-7 7l165 90h4l164 -90l-8 -7l-158 87z"/>
<glyph glyph-name="Edieresis" horiz-adv-x="575" unicode="Ë" d="M414 790q0 12 13 12q12 0 12 -12q0 -13 -12 -13q-13 0 -13 13zM180 790q0 12 13 12q12 0 12 -12q0 -13 -12 -13q-13 0 -13 13zM505 0h-385v700h375v-10h-365v-328h335v-10h-335v-342h375v-10z"/>
<glyph glyph-name="Igrave" horiz-adv-x="310" unicode="Ì" d="M160 0h-10v700h10v-700zM169 749l-5 -7l-154 90l4 8z"/>
<glyph glyph-name="Iacute" horiz-adv-x="310" unicode="Í" d="M160 0h-10v700h10v-700zM295 840l4 -8l-154 -90l-5 7z"/>
<glyph glyph-name="Icircumflex" horiz-adv-x="310" unicode="Î" d="M160 0h-10v700h10v-700zM-4 743l-7 7l165 90h4l164 -90l-8 -7l-158 87z"/>
<glyph glyph-name="Idieresis" horiz-adv-x="310" unicode="Ï" d="M260 790q0 12 13 12q12 0 12 -12q0 -13 -12 -13q-13 0 -13 13zM26 790q0 12 13 12q12 0 12 -12q0 -13 -12 -13q-13 0 -13 13zM160 0h-10v700h10v-700z"/>
<glyph glyph-name="Eth" horiz-adv-x="764" unicode="Ð" d="M309 693q-20 0 -80 -2q-30 -1 -69 -1v-325h213v-10h-213v-345l144 -2q189 0 289 100q101 101 101 254q0 144 -95 237q-94 94 -290 94zM150 355h-140v10h140v335h10q41 0 71 1q60 2 80 2q204 0 302 -104q91 -95 91 -237q0 -158 -104 -262q-104 -102 -297 -102q-45 0 -76 1 t-72 1h-5v355z"/>
<glyph glyph-name="Ntilde" horiz-adv-x="800" unicode="Ñ" d="M251 776l-6 7q37 30 75 30q32 0 85 -25t80 -25q40 0 72 35l7 -7q-38 -38 -79 -38q-30 0 -84 25t-84 25q-33 0 -66 -27zM680 700v-700h-8l-542 680v-680h-10v700h8l542 -682v682h10z"/>
<glyph glyph-name="Ograve" horiz-adv-x="804" unicode="Ò" d="M479 749l-5 -7l-154 90l4 8zM165 598q-95 -101 -95 -248t95 -248q96 -100 237 -100q142 0 236 100q96 101 96 248q0 148 -96 248q-94 100 -236 100q-141 0 -237 -100zM158 95q-98 104 -98 255t98 255q99 103 244 103q146 0 243 -103q99 -103 99 -255t-99 -255 q-97 -103 -243 -103q-145 0 -244 103z"/>
<glyph glyph-name="Oacute" horiz-adv-x="804" unicode="Ó" d="M505 840l4 -8l-154 -90l-5 7zM165 598q-95 -101 -95 -248t95 -248q96 -100 237 -100q142 0 236 100q96 101 96 248q0 148 -96 248q-94 100 -236 100q-141 0 -237 -100zM158 95q-98 104 -98 255t98 255q99 103 244 103q146 0 243 -103q99 -103 99 -255t-99 -255 q-97 -103 -243 -103q-145 0 -244 103z"/>
<glyph glyph-name="Ocircumflex" horiz-adv-x="804" unicode="Ô" d="M165 598q-95 -101 -95 -248t95 -248q96 -100 237 -100q142 0 236 100q96 101 96 248q0 148 -96 248q-94 100 -236 100q-141 0 -237 -100zM158 95q-98 104 -98 255t98 255q99 103 244 103q146 0 243 -103q99 -103 99 -255t-99 -255q-97 -103 -243 -103q-145 0 -244 103z M247 743l-7 7l165 90h4l164 -90l-8 -7l-158 87z"/>
<glyph glyph-name="Otilde" horiz-adv-x="804" unicode="Õ" d="M253 776l-6 7q37 30 75 30q32 0 85 -25t80 -25q40 0 72 35l7 -7q-38 -38 -79 -38q-30 0 -84 25t-84 25q-33 0 -66 -27zM165 598q-95 -101 -95 -248t95 -248q96 -100 237 -100q142 0 236 100q96 101 96 248q0 148 -96 248q-94 100 -236 100q-141 0 -237 -100zM158 95 q-98 104 -98 255t98 255q99 103 244 103q146 0 243 -103q99 -103 99 -255t-99 -255q-97 -103 -243 -103q-145 0 -244 103z"/>
<glyph glyph-name="Odieresis" horiz-adv-x="804" unicode="Ö" d="M509 790q0 12 13 12q12 0 12 -12q0 -13 -12 -13q-13 0 -13 13zM275 790q0 12 13 12q12 0 12 -12q0 -13 -12 -13q-13 0 -13 13zM165 598q-95 -101 -95 -248t95 -248q96 -100 237 -100q142 0 236 100q96 101 96 248q0 148 -96 248q-94 100 -236 100q-141 0 -237 -100z M158 95q-98 104 -98 255t98 255q99 103 244 103q146 0 243 -103q99 -103 99 -255t-99 -255q-97 -103 -243 -103q-145 0 -244 103z"/>
<glyph glyph-name="multiply" d="M285 360l-149 150l7 7l149 -150l149 150l7 -7l-149 -150l151 -150l-7 -7l-151 150l-151 -150l-7 7z" unicode="×"/>
<glyph glyph-name="Oslash" horiz-adv-x="804" unicode="Ø" d="M70 350q0 -138 82 -233l490 477q-96 104 -240 104q-141 0 -237 -100q-95 -101 -95 -248zM734 350q0 137 -86 237l-489 -478q96 -107 243 -107q142 0 236 100q96 101 96 248zM60 350q0 151 98 255q99 103 244 103q148 0 247 -107l55 53l7 -6l-56 -54q89 -101 89 -244 q0 -152 -99 -255q-97 -103 -243 -103q-151 0 -250 110l-52 -51l-8 8l53 51q-85 100 -85 240z"/>
<glyph glyph-name="Ugrave" horiz-adv-x="751" unicode="Ù" d="M439 749l-5 -7l-154 90l4 8zM631 700h10v-405q0 -152 -73 -226q-72 -75 -183 -75q-122 0 -199 80q-76 79 -76 228v398h10v-399q0 -141 74 -220q74 -77 191 -77q108 0 177 73t69 221v402z"/>
<glyph glyph-name="Uacute" horiz-adv-x="751" unicode="Ú" d="M475 840l4 -8l-154 -90l-5 7zM631 700h10v-405q0 -152 -73 -226q-72 -75 -183 -75q-122 0 -199 80q-76 79 -76 228v398h10v-399q0 -141 74 -220q74 -77 191 -77q108 0 177 73t69 221v402z"/>
<glyph glyph-name="Ucircumflex" horiz-adv-x="751" unicode="Û" d="M631 700h10v-405q0 -152 -73 -226q-72 -75 -183 -75q-122 0 -199 80q-76 79 -76 228v398h10v-399q0 -141 74 -220q74 -77 191 -77q108 0 177 73t69 221v402zM216 743l-7 7l165 90h4l164 -90l-8 -7l-158 87z"/>
<glyph glyph-name="Udieresis" horiz-adv-x="751" unicode="Ü" d="M479 790q0 12 13 12q12 0 12 -12q0 -13 -12 -13q-13 0 -13 13zM245 790q0 12 13 12q12 0 12 -12q0 -13 -12 -13q-13 0 -13 13zM631 700h10v-405q0 -152 -73 -226q-72 -75 -183 -75q-122 0 -199 80q-76 79 -76 228v398h10v-399q0 -141 74 -220q74 -77 191 -77 q108 0 177 73t69 221v402z"/>
<glyph glyph-name="Yacute" horiz-adv-x="554" unicode="Ý" d="M385 840l4 -8l-154 -90l-5 7zM521 700h13l-253 -385v-315h-10v315l-251 385h13l243 -375z"/>
<glyph glyph-name="Thorn" horiz-adv-x="567" unicode="Þ" d="M273 582q-55 0 -143 -2v-380q85 -5 131 -5q114 0 175 53.5t61 142.5q0 88 -56 139.5t-168 51.5zM130 190v-190h-10v700h10v-110q40 0 75 1t67 1q67 0 115 -17.5t73 -47.5t36 -63.5t11 -73.5q0 -86 -60 -146q-61 -59 -185 -59q-47 0 -132 5z"/>
<glyph glyph-name="germandbls" horiz-adv-x="536" unicode="ß" d="M466 141q0 41 -23 72t-56 51.5t-65.5 40t-55.5 46.5t-23 61q0 51 59 94q60 45 60 98q0 41 -32.5 67.5t-78.5 26.5q-72 0 -106.5 -44.5t-34.5 -139.5v-518h-10v527q0 185 151 185q52 0 86.5 -29.5t34.5 -74.5q0 -30 -17.5 -58t-42.5 -45q-59 -43 -59 -88q0 -60 78 -105 q37 -20 51.5 -29t42.5 -31.5t39.5 -48t11.5 -57.5q0 -67 -42 -109q-43 -41 -102 -41q-45 0 -81.5 22.5t-55.5 55.5l9 6q19 -31 52.5 -52.5t74.5 -21.5q53 0 94 39t41 100z"/>
<glyph glyph-name="agrave" horiz-adv-x="456" unicode="à" d="M189 6q62 0 103 24t74 71v102q-61 43 -147 43q-63 0 -112 -32q-47 -32 -47 -92q0 -53 36 -84.5t93 -31.5zM89 409l-5 8q67 41 134 41q84 0 121 -43t37 -133v-282h-10v85q-65 -89 -176 -89q-64 0 -102 34.5t-38 90.5q0 64 47 99.5t124 35.5q90 0 145 -40q0 44 -1 57 q0 63 -12 93q-18 47 -43 61q-37 21 -94 21q-62 0 -127 -39zM267 564l-8 -5l-109 141l7 6z"/>
<glyph glyph-name="aacute" horiz-adv-x="456" unicode="á" d="M300 706l7 -6l-109 -141l-8 5zM189 6q62 0 103 24t74 71v102q-61 43 -147 43q-63 0 -112 -32q-47 -32 -47 -92q0 -53 36 -84.5t93 -31.5zM89 409l-5 8q67 41 134 41q84 0 121 -43t37 -133v-282h-10v85q-65 -89 -176 -89q-64 0 -102 34.5t-38 90.5q0 64 47 99.5t124 35.5 q90 0 145 -40q0 44 -1 57q0 63 -12 93q-18 47 -43 61q-37 21 -94 21q-62 0 -127 -39z"/>
<glyph glyph-name="acircumflex" horiz-adv-x="456" unicode="â" d="M189 6q62 0 103 24t74 71v102q-61 43 -147 43q-63 0 -112 -32q-47 -32 -47 -92q0 -53 36 -84.5t93 -31.5zM89 409l-5 8q67 41 134 41q84 0 121 -43t37 -133v-282h-10v85q-65 -89 -176 -89q-64 0 -102 34.5t-38 90.5q0 64 47 99.5t124 35.5q90 0 145 -40q0 44 -1 57 q0 63 -12 93q-18 47 -43 61q-37 21 -94 21q-62 0 -127 -39zM227 708h4l113 -130l-7 -7l-108 124l-110 -124l-8 7z"/>
<glyph glyph-name="atilde" horiz-adv-x="456" unicode="ã" d="M95 596l-6 7q50 41 87 41q25 0 56 -25q32 -24 52 -24q31 0 77 43l7 -7q-49 -46 -86 -46q-22 0 -54 24q-31 25 -55 25q-31 0 -78 -38zM189 6q62 0 103 24t74 71v102q-61 43 -147 43q-63 0 -112 -32q-47 -32 -47 -92q0 -53 36 -84.5t93 -31.5zM89 409l-5 8q67 41 134 41 q84 0 121 -43t37 -133v-282h-10v85q-65 -89 -176 -89q-64 0 -102 34.5t-38 90.5q0 64 47 99.5t124 35.5q90 0 145 -40q0 44 -1 57q0 63 -12 93q-18 47 -43 61q-37 21 -94 21q-62 0 -127 -39z"/>
<glyph glyph-name="adieresis" horiz-adv-x="456" unicode="ä" d="M313 631q0 12 13 12q11 0 11 -13q0 -12 -11 -12q-13 0 -13 13zM99 631q0 12 13 12q11 0 11 -13q0 -12 -11 -12q-13 0 -13 13zM189 6q62 0 103 24t74 71v102q-61 43 -147 43q-63 0 -112 -32q-47 -32 -47 -92q0 -53 36 -84.5t93 -31.5zM89 409l-5 8q67 41 134 41 q84 0 121 -43t37 -133v-282h-10v85q-65 -89 -176 -89q-64 0 -102 34.5t-38 90.5q0 64 47 99.5t124 35.5q90 0 145 -40q0 44 -1 57q0 63 -12 93q-18 47 -43 61q-37 21 -94 21q-62 0 -127 -39z"/>
<glyph glyph-name="aring" horiz-adv-x="456" unicode="å" d="M189 6q62 0 103 24t74 71v102q-61 43 -147 43q-63 0 -112 -32q-47 -32 -47 -92q0 -53 36 -84.5t93 -31.5zM89 409l-5 8q67 41 134 41q84 0 121 -43t37 -133v-282h-10v85q-65 -89 -176 -89q-64 0 -102 34.5t-38 90.5q0 64 47 99.5t124 35.5q90 0 145 -40q0 44 -1 57 q0 63 -12 93q-18 47 -43 61q-37 21 -94 21q-62 0 -127 -39zM218 533q35 0 59 24t24 58q2 35 -24.5 59t-61.5 24q-34 0 -55 -24q-24 -21 -24 -56q0 -33 21.5 -59t54.5 -26h6zM153 550q-27 27 -27 65t27 65q28 28 65 28t65 -28t28 -65t-28 -65q-27 -27 -65 -27t-65 27z"/>
<glyph glyph-name="ae" horiz-adv-x="809" unicode="æ" d="M189 6q62 0 103 24t74 71v134q-86 11 -147 11q-63 0 -112 -32q-47 -32 -47 -92q0 -53 36 -84.5t93 -31.5zM376 282v-37h368q1 91 -52 148q-52 55 -141 55q-129 0 -181 -103q6 -29 6 -63zM218 458q122 0 149 -100q57 100 188 100q88 0 143 -55q56 -56 56 -145 q0 -2 -0.5 -11t-0.5 -12h-377v-131q58 -102 193 -102q98 0 157 67l6 -6q-27 -33 -71 -52t-92 -19q-133 0 -198 99q-71 -95 -181 -95q-64 0 -102 34.5t-38 90.5q0 64 47 99.5t124 35.5q74 0 145 -10q1 12 1 33q0 88 -35 128.5t-116 40.5q-62 0 -127 -39l-5 8q67 41 134 41z "/>
<glyph glyph-name="ccedilla" horiz-adv-x="492" unicode="ç" d="M200 -180l4 9q38 -19 74 -19q40 0 65 16.5t25 43.5q0 60 -90 60h-6v63q-95 4 -157 68q-60 63 -60 164q0 97 63 165t155 68q111 0 170 -53l-6 -9q-58 52 -162 52q-87 0 -149 -65q-61 -64 -61 -158q0 -100 62 -162q62 -61 162 -61q98 0 157 67l6 -6q-27 -33 -71 -52 t-92 -19h-7v-52q96 -2 96 -70q0 -31 -27.5 -50.5t-72.5 -19.5q-35 0 -78 20z"/>
<glyph glyph-name="egrave" horiz-adv-x="529" unicode="è" d="M293 564l-8 -5l-109 141l7 6zM271 448q-91 0 -146 -55.5t-60 -147.5h399q1 91 -52 148q-52 55 -141 55zM446 69l6 -6q-27 -33 -71 -52t-92 -19q-104 0 -169 64q-65 65 -65 169q0 103 56 168q57 65 164 65q88 0 143 -55q56 -56 56 -145q0 -2 -0.5 -11t-0.5 -12h-408 q0 -107 60 -170q61 -63 164 -63q98 0 157 67z"/>
<glyph glyph-name="eacute" horiz-adv-x="529" unicode="é" d="M366 706l7 -6l-109 -141l-8 5zM271 448q-91 0 -146 -55.5t-60 -147.5h399q1 91 -52 148q-52 55 -141 55zM446 69l6 -6q-27 -33 -71 -52t-92 -19q-104 0 -169 64q-65 65 -65 169q0 103 56 168q57 65 164 65q88 0 143 -55q56 -56 56 -145q0 -2 -0.5 -11t-0.5 -12h-408 q0 -107 60 -170q61 -63 164 -63q98 0 157 67z"/>
<glyph glyph-name="ecircumflex" horiz-adv-x="529" unicode="ê" d="M273 708h4l113 -130l-7 -7l-108 124l-110 -124l-8 7zM271 448q-91 0 -146 -55.5t-60 -147.5h399q1 91 -52 148q-52 55 -141 55zM446 69l6 -6q-27 -33 -71 -52t-92 -19q-104 0 -169 64q-65 65 -65 169q0 103 56 168q57 65 164 65q88 0 143 -55q56 -56 56 -145 q0 -2 -0.5 -11t-0.5 -12h-408q0 -107 60 -170q61 -63 164 -63q98 0 157 67z"/>
<glyph glyph-name="edieresis" horiz-adv-x="529" unicode="ë" d="M358 631q0 12 13 12q5 0 8 -4q6 -5 3 -13t-11 -8q-13 0 -13 13zM144 631q0 12 13 12q5 0 8 -4q6 -5 3 -13t-11 -8q-13 0 -13 13zM271 448q-91 0 -146 -55.5t-60 -147.5h399q1 91 -52 148q-52 55 -141 55zM446 69l6 -6q-27 -33 -71 -52t-92 -19q-104 0 -169 64 q-65 65 -65 169q0 103 56 168q57 65 164 65q88 0 143 -55q56 -56 56 -145q0 -2 -0.5 -11t-0.5 -12h-408q0 -107 60 -170q61 -63 164 -63q98 0 157 67z"/>
<glyph glyph-name="igrave" horiz-adv-x="250" unicode="ì" d="M130 0h-10v450h10v-450zM144 564l-8 -5l-109 141l7 6z"/>
<glyph glyph-name="iacute" horiz-adv-x="250" unicode="í" d="M130 0h-10v450h10v-450zM217 706l7 -6l-109 -141l-8 5z"/>
<glyph glyph-name="icircumflex" horiz-adv-x="250" unicode="î" d="M130 0h-10v450h10v-450zM125 708h4l113 -130l-7 -7l-108 124l-110 -124l-8 7z"/>
<glyph glyph-name="idieresis" horiz-adv-x="250" unicode="ï" d="M220 631q0 12 13 12q5 0 8 -4q4 -3 4 -8q0 -13 -12 -13q-13 0 -13 13zM6 631q0 12 13 12q5 0 8 -4q6 -5 3 -13t-11 -8q-13 0 -13 13zM130 0h-10v450h10v-450z"/>
<glyph glyph-name="eth" horiz-adv-x="570" unicode="ð" d="M285 2q97 0 159 69q61 70 61 186q-9 73 -69 132q-61 59 -151 59q-97 0 -159 -63q-61 -61 -61 -160t61 -161q62 -62 159 -62zM332 621l-120 -69l-5 8l118 68q-58 46 -127 72l11 8q69 -28 125 -75l103 60l5 -8l-100 -58q82 -70 127.5 -168t45.5 -205q0 -120 -64 -191 q-65 -71 -166 -71t-165 66q-65 67 -65 167t65 167q64 66 165 66q72 0 129 -38t87 -107q-24 187 -169 308z"/>
<glyph glyph-name="ntilde" horiz-adv-x="554" unicode="ñ" d="M143 596l-6 7q50 41 87 41q25 0 56 -25q32 -24 52 -24q31 0 77 43l7 -7q-49 -46 -86 -46q-22 0 -54 24q-31 25 -55 25q-31 0 -78 -38zM100 0h-10v450h10v-74q30 36 81 58q53 24 102 24q98 0 144.5 -50t46.5 -156v-252h-10v249q0 102 -44 150.5t-137 48.5q-55 0 -108 -27 q-52 -27 -75 -59v-362z"/>
<glyph glyph-name="ograve" horiz-adv-x="570" unicode="ò" d="M314 564l-8 -5l-109 141l7 6zM126 385q-61 -61 -61 -160t61 -161q62 -62 159 -62q96 0 158 62q62 64 62 161q0 98 -62 160q-61 63 -158 63t-159 -63zM120 58q-65 67 -65 167t65 167q64 66 165 66t165 -66q65 -67 65 -167t-65 -167q-64 -66 -165 -66t-165 66z"/>
<glyph glyph-name="oacute" horiz-adv-x="570" unicode="ó" d="M367 706l7 -6l-109 -141l-8 5zM126 385q-61 -61 -61 -160t61 -161q62 -62 159 -62q96 0 158 62q62 64 62 161q0 98 -62 160q-61 63 -158 63t-159 -63zM120 58q-65 67 -65 167t65 167q64 66 165 66t165 -66q65 -67 65 -167t-65 -167q-64 -66 -165 -66t-165 66z"/>
<glyph glyph-name="ocircumflex" horiz-adv-x="570" unicode="ô" d="M126 385q-61 -61 -61 -160t61 -161q62 -62 159 -62q96 0 158 62q62 64 62 161q0 98 -62 160q-61 63 -158 63t-159 -63zM120 58q-65 67 -65 167t65 167q64 66 165 66t165 -66q65 -67 65 -167t-65 -167q-64 -66 -165 -66t-165 66zM283 708h4l113 -130l-7 -7l-108 124 l-110 -124l-8 7z"/>
<glyph glyph-name="otilde" horiz-adv-x="570" unicode="õ" d="M151 596l-6 7q50 41 87 41q25 0 56 -25q32 -24 52 -24q31 0 77 43l7 -7q-49 -46 -86 -46q-22 0 -54 24q-31 25 -55 25q-31 0 -78 -38zM126 385q-61 -61 -61 -160t61 -161q62 -62 159 -62q96 0 158 62q62 64 62 161q0 98 -62 160q-61 63 -158 63t-159 -63zM120 58 q-65 67 -65 167t65 167q64 66 165 66t165 -66q65 -67 65 -167t-65 -167q-64 -66 -165 -66t-165 66z"/>
<glyph glyph-name="odieresis" horiz-adv-x="570" unicode="ö" d="M380 631q0 12 13 12q5 0 8 -4q6 -5 3 -13t-11 -8q-13 0 -13 13zM166 631q0 12 13 12q5 0 8 -4q6 -5 3 -13t-11 -8q-13 0 -13 13zM126 385q-61 -61 -61 -160t61 -161q62 -62 159 -62q96 0 158 62q62 64 62 161q0 98 -62 160q-61 63 -158 63t-159 -63zM120 58 q-65 67 -65 167t65 167q64 66 165 66t165 -66q65 -67 65 -167t-65 -167q-64 -66 -165 -66t-165 66z"/>
<glyph glyph-name="divide" d="M509 355h-434v10h434v-10zM280 142q0 11 12 11q13 0 13 -11q0 -13 -12 -13q-13 0 -13 13zM280 579q0 12 13 12q5 0 8 -4q4 -3 4 -8q0 -13 -12 -13q-13 0 -13 13z" unicode="÷"/>
<glyph glyph-name="oslash" horiz-adv-x="570" unicode="ø" d="M505 225q0 89 -54 151l-314 -321q59 -53 148 -53q96 0 158 62q62 64 62 161zM65 225q0 -102 64 -163l316 322q-61 64 -160 64q-97 0 -159 -63q-61 -61 -61 -160zM55 225q0 100 65 167q64 66 165 66q100 0 166 -68l59 60l7 -7l-59 -60q57 -63 57 -158q0 -100 -65 -167 q-64 -66 -165 -66q-93 0 -155 56l-59 -61l-7 8l59 60q-68 65 -68 170z"/>
<glyph glyph-name="ugrave" horiz-adv-x="550" unicode="ù" d="M450 450h10v-450h-10v83q-31 -37 -84 -64q-52 -27 -105 -27q-93 0 -137 50t-44 156v252h10v-249q0 -102 41.5 -150.5t131.5 -48.5q57 0 110 30t77 65v353zM304 564l-8 -5l-109 141l7 6z"/>
<glyph glyph-name="uacute" horiz-adv-x="550" unicode="ú" d="M357 706l7 -6l-109 -141l-8 5zM450 450h10v-450h-10v83q-31 -37 -84 -64q-52 -27 -105 -27q-93 0 -137 50t-44 156v252h10v-249q0 -102 41.5 -150.5t131.5 -48.5q57 0 110 30t77 65v353z"/>
<glyph glyph-name="ucircumflex" horiz-adv-x="550" unicode="û" d="M450 450h10v-450h-10v83q-31 -37 -84 -64q-52 -27 -105 -27q-93 0 -137 50t-44 156v252h10v-249q0 -102 41.5 -150.5t131.5 -48.5q57 0 110 30t77 65v353zM268 708h4l113 -130l-7 -7l-108 124l-110 -124l-8 7z"/>
<glyph glyph-name="udieresis" horiz-adv-x="550" unicode="ü" d="M370 631q0 12 13 12q5 0 8 -4q6 -5 3 -13t-11 -8q-13 0 -13 13zM156 631q0 12 13 12q5 0 8 -4q6 -5 3 -13t-11 -8q-13 0 -13 13zM450 450h10v-450h-10v83q-31 -37 -84 -64q-52 -27 -105 -27q-93 0 -137 50t-44 156v252h10v-249q0 -102 41.5 -150.5t131.5 -48.5 q57 0 110 30t77 65v353z"/>
<glyph glyph-name="yacute" horiz-adv-x="466" unicode="ý" d="M435 450h11l-185 -450q-48 -116 -84 -158t-82 -42q-29 0 -64 15l4 9q35 -15 58 -15q42 0 76.5 39t71.5 128l10 24l-231 450h11l187 -366l38 -74l31 76zM315 706l7 -6l-109 -141l-8 5z"/>
<glyph glyph-name="thorn" horiz-adv-x="551" unicode="þ" d="M281 448q-53 0 -107 -26q-52 -26 -74 -57v-310q73 -53 170 -53q95 0 155 63q61 64 61 164t-55 159.5t-150 59.5zM100 -200h-10v900h10v-321q29 35 79.5 57t101.5 22q100 0 157 -63q58 -61 58 -163q0 -104 -63 -172t-164 -68q-104 0 -169 50v-242z"/>
<glyph glyph-name="OE" horiz-adv-x="1050" unicode="Œ" d="M404 2q115 0 191 61v576q-74 59 -201 59q-144 0 -234 -100t-90 -248q0 -156 92 -253q93 -95 242 -95zM980 0h-385v48q-77 -56 -191 -56q-154 0 -249 98t-95 260q0 153 93 255q93 103 240 103q125 0 202 -56v48h375v-10h-365v-328h335v-10h-335v-342h375v-10z"/>
<glyph glyph-name="oe" horiz-adv-x="849" unicode="œ" d="M591 448q-91 0 -146 -55.5t-60 -147.5h399q1 91 -52 148q-52 55 -141 55zM285 2q91 0 153 57q-63 63 -63 166q0 108 58 169q-60 54 -148 54q-97 0 -159 -63q-61 -61 -61 -160t61 -161q62 -62 159 -62zM766 69l6 -6q-27 -33 -71 -52t-92 -19q-101 0 -164 60 q-61 -60 -160 -60q-101 0 -165 66q-65 67 -65 167t65 167q64 66 165 66q90 0 155 -56q59 56 155 56q88 0 143 -55q56 -56 56 -145q0 -2 -0.5 -11t-0.5 -12h-408q0 -107 60 -170q61 -63 164 -63q98 0 157 67z"/>
<glyph glyph-name="Scaron" horiz-adv-x="541" unicode="Š" d="M279 743h-4l-165 90l7 7l160 -87l158 87l8 -7zM471 167q0 117 -139 168q-76 28 -115 41q-138 51 -138 168q0 74 52.5 119t143.5 45q54 0 103.5 -19t77.5 -50l-7 -7q-63 66 -177 66q-83 0 -133 -42t-50 -111q0 -54 29 -91t72.5 -54.5t94.5 -37t94.5 -38.5t72.5 -59t29 -98 q0 -79 -62 -127q-61 -48 -154 -48q-60 0 -120 27q-60 28 -85 69l8 7q33 -43 86 -68q54 -25 109 -25q85 0 146 43q62 44 62 122z"/>
<glyph glyph-name="scaron" horiz-adv-x="401" unicode="š" d="M203 571h-4l-115 130l7 7l110 -124l108 124l8 -7zM331 111q0 72 -91 101q-2 1 -22 7t-24 7.5t-22 7.5t-23 9.5t-19.5 11t-19.5 13.5t-14.5 15.5t-13 19t-6.5 22t-3 26.5q0 48 36 77.5t95 29.5q35 0 68.5 -12.5t51.5 -32.5l-7 -8q-42 43 -115 43q-52 0 -85.5 -27.5 t-33.5 -68.5q0 -42 26.5 -68.5t64.5 -39l76 -25t64.5 -39t26.5 -68.5q0 -56 -40 -88t-104 -32q-37 0 -80 17q-42 16 -57 41l9 6q17 -23 54 -38.5t73 -15.5q57 0 96 29.5t39 79.5z"/>
<glyph glyph-name="Ydieresis" horiz-adv-x="554" unicode="Ÿ" d="M382 790q0 12 13 12q12 0 12 -12q0 -13 -12 -13q-13 0 -13 13zM148 790q0 12 13 12q12 0 12 -12q0 -13 -12 -13q-13 0 -13 13zM521 700h13l-253 -385v-315h-10v315l-251 385h13l243 -375z"/>
<glyph glyph-name="circumflex" horiz-adv-x="353" unicode="ˆ" d="M176 708h4l113 -130l-7 -7l-108 124l-110 -124l-8 7z"/>
<glyph glyph-name="ring" horiz-adv-x="305" unicode="˚" d="M152 533q35 0 59 24t24 58q2 35 -24.5 59t-61.5 24q-34 0 -55 -24q-24 -21 -24 -56q0 -33 21.5 -59t54.5 -26h6zM87 550q-27 27 -27 65t27 65q28 28 65 28t65 -28t28 -65t-28 -65q-27 -27 -65 -27t-65 27z"/>
<glyph glyph-name="tilde" horiz-adv-x="399" unicode="˜" d="M66 596l-6 7q50 41 87 41q25 0 56 -25q32 -24 52 -24q31 0 77 43l7 -7q-49 -46 -86 -46q-23 0 -54 24q-31 25 -55 25q-31 0 -78 -38z"/>
<glyph glyph-name="pi" horiz-adv-x="651" unicode="π" d="M171 440h-115v10h539v-10h-115v-334q0 -56 12 -77.5t45 -21.5q37 0 68 24l6 -9q-34 -25 -74 -25q-35 0 -51 22.5t-16 71.5v349h-289v-92q0 -139 -19 -216q-19 -79 -48 -106q-29 -26 -74 -26v10q43 0 70.5 28t44 102.5t16.5 198.5v101z"/>
<glyph glyph-name="afii10023" horiz-adv-x="575" unicode="Ё" d="M412 790q0 12 13 12q12 0 12 -12q0 -13 -12 -13q-13 0 -13 13zM178 790q0 12 13 12q12 0 12 -12q0 -13 -12 -13q-13 0 -13 13zM505 0h-385v700h375v-10h-365v-328h335v-10h-335v-342h375v-10z"/>
<glyph glyph-name="afii10051" horiz-adv-x="757" unicode="Ђ" d="M697 205q0 -108 -42.5 -160.5t-119.5 -52.5q-49 0 -79 25l6 9q32 -24 74 -24q72 0 111.5 50.5t39.5 152.5q0 106 -49 157t-148 51q-76 -4 -117 -26l-27 -14l-25 -17q-20 -13 -21 -13v-343h-10v690h-280v10h570v-10h-280v-336l48 32q65 37 144 37q205 0 205 -218z"/>
<glyph glyph-name="afii10052" horiz-adv-x="500" unicode="Ѓ" d="M130 0h-10v700h380v-10h-370v-690zM425 840l4 -8l-154 -90l-5 7z"/>
<glyph glyph-name="afii10053" horiz-adv-x="684" unicode="Є" d="M70 362h408v-10h-408v-2q0 -154 95 -252q95 -96 249 -96q113 0 213 70l7 -7q-101 -73 -221 -73q-157 0 -255 98q-98 100 -98 260q0 156 95 257q96 101 254 101q132 0 208 -65l-6 -7q-80 62 -202 62q-150 0 -243 -95q-92 -95 -96 -241z"/>
<glyph glyph-name="afii10054" horiz-adv-x="541" unicode="Ѕ" d="M471 167q0 117 -139 168q-76 28 -115 41q-138 51 -138 168q0 74 52.5 119t143.5 45q54 0 103.5 -19t77.5 -50l-7 -7q-63 66 -177 66q-83 0 -133 -42t-50 -111q0 -54 29 -91t72.5 -54.5t94.5 -37t94.5 -38.5t72.5 -59t29 -98q0 -79 -62 -127q-61 -48 -154 -48 q-60 0 -120 27q-60 28 -85 69l8 7q33 -43 86 -68q54 -25 109 -25q85 0 146 43q62 44 62 122z"/>
<glyph glyph-name="afii10055" horiz-adv-x="310" unicode="І" d="M160 0h-10v700h10v-700z"/>
<glyph glyph-name="afii10056" horiz-adv-x="310" unicode="Ї" d="M160 0h-10v700h10v-700zM210 790q0 11 12 11q13 0 13 -11q0 -13 -12 -13q-13 0 -13 13zM75 790q0 12 13 12q4 0 8 -4t4 -8q0 -13 -12 -13q-13 0 -13 13z"/>
<glyph glyph-name="afii10057" horiz-adv-x="341" unicode="Ј" d="M211 700h10v-553q0 -79 -27 -117t-94 -38q-46 0 -80 25l6 9q32 -24 74 -24q62 0 86.5 35.5t24.5 108.5v554z"/>
<glyph glyph-name="afii10058" horiz-adv-x="1047" unicode="Љ" d="M727 395q-65 0 -127 -6v-379q29 0 55 -1q27 -1 67 -1q124 0 189.5 51.5t65.5 150.5q0 89 -64 137t-186 48zM590 0v690h-354l-10 -132q-8 -108 -21 -195q-23 -164 -55 -243q-27 -72 -57.5 -96t-62.5 -24v10q147 0 186 550l10 140h374v-301q77 6 125 6q130 0 196 -51 t66 -145q0 -104 -69.5 -157.5t-196.5 -53.5q-39 0 -68 1t-63 1z"/>
<glyph glyph-name="afii10059" horiz-adv-x="1092" unicode="Њ" d="M645 379v-369q29 0 55 -1q27 -1 67 -1q255 0 255 197q0 88 -63.5 134t-186.5 46q-66 0 -127 -6zM130 0h-10v700h10v-311h505v311h10v-311q76 6 125 6q262 0 262 -191q0 -103 -69 -154.5t-197 -51.5q-40 0 -69 1t-62 1v379h-505v-379z"/>
<glyph glyph-name="afii10060" horiz-adv-x="757" unicode="Ћ" d="M290 690h-280v10h570v-10h-280v-337q92 70 203 70q194 0 194 -224v-199h-10v202q0 104 -48 157.5t-138 53.5q-45 0 -90 -15q-41 -13 -60 -23l-51 -32v-343h-10v690z"/>
<glyph glyph-name="afii10061" horiz-adv-x="614" unicode="Ќ" d="M425 840l4 -8l-154 -90l-5 7zM130 0h-10v700h10v-700zM549 700h14l-361 -335l372 -365h-15l-372 365z"/>
<glyph glyph-name="afii10062" horiz-adv-x="631" unicode="Ў" d="M164 840h10q56 -80 152 -80q48 0 91 23q43 24 57 57h10q-14 -38 -61 -64t-97 -26q-53 0 -98 25.5t-64 64.5zM600 700h11l-248 -546q-37 -84 -69 -119t-74 -35t-65 19l4 9q28 -19 60 -19q63 0 119 114l15 31l-333 546h11l327 -536z"/>
<glyph glyph-name="afii10145" horiz-adv-x="765" unicode="Џ" d="M377 0h-257v700h10v-690h505v690h10v-700h-258v-160h-10v160z"/>
<glyph glyph-name="afii10017" horiz-adv-x="685" unicode="А" d="M518 287l-176 401l-176 -401h352zM41 0h-11l311 708h3l311 -708h-11l-122 277h-360z"/>
<glyph glyph-name="afii10018" horiz-adv-x="607" unicode="Б" d="M267 395q-75 0 -137 -6v-379q31 0 60 -1q30 -1 72 -1q124 0 189.5 51.5t65.5 150.5q0 89 -64 137t-186 48zM120 700h370v-10h-360v-291q76 6 135 6q130 0 196 -51t66 -145q0 -104 -69.5 -157.5t-196.5 -53.5q-41 0 -73 1t-68 1v700z"/>
<glyph glyph-name="afii10019" horiz-adv-x="617" unicode="В" d="M290 692q-72 0 -160 -2v-325h172q83 0 138 46q57 47 57 120q0 81 -50 121t-157 40zM294 355h-164v-345q36 0 75 -1q40 -1 87 -1q113 0 174 46t61 136q0 78 -61 121.5t-172 43.5zM120 0v700q39 0 80 1q42 1 92 1q215 0 215 -172q0 -72 -47 -116t-113 -51v-2 q92 -7 141 -51.5t49 -120.5q0 -96 -64 -143.5t-178 -47.5q-51 0 -93 1t-82 1z"/>
<glyph glyph-name="afii10020" horiz-adv-x="500" unicode="Г" d="M130 0h-10v700h380v-10h-370v-690z"/>
<glyph glyph-name="afii10021" horiz-adv-x="734" unicode="Д" d="M242 690l-8 -132q-11 -168 -37 -293q-28 -132 -49 -181q-23 -53 -41 -74h482v680h-347zM30 -140h-10v150h75q29 35 67 153q49 147 62 397l8 140h367v-690h95v-150h-10v140h-654v-140z"/>
<glyph glyph-name="afii10022" horiz-adv-x="575" unicode="Е" d="M505 0h-385v700h375v-10h-365v-328h335v-10h-335v-342h375v-10z"/>
<glyph glyph-name="afii10024" horiz-adv-x="894" unicode="Ж" d="M40 0l334 365l-323 335h14l322 -335l-333 -365h-14zM452 0h-10v700h10v-700zM829 700h14l-323 -334l334 -366h-14l-333 365z"/>
<glyph glyph-name="afii10025" horiz-adv-x="565" unicode="З" d="M258 -8q-58 0 -119 27q-63 28 -89 67l7 5q35 -41 92 -65q59 -24 106 -24q101 0 160.5 53t59.5 141q0 72 -45.5 114.5t-120.5 42.5h-97v10h90q55 0 100 51q46 50 46 122q0 76 -48.5 119t-128.5 43q-115 0 -195 -83l-7 4q74 89 198 89q88 0 139.5 -47t51.5 -128 q0 -53 -31 -102q-30 -49 -83 -69v-3q63 -5 102 -52q39 -48 39 -111q0 -94 -63 -150q-63 -54 -164 -54z"/>
<glyph glyph-name="afii10026" horiz-adv-x="800" unicode="И" d="M670 685l-540 -685h-10v700h10v-685l540 685h10v-700h-10v685z"/>
<glyph glyph-name="afii10027" horiz-adv-x="800" unicode="Й" d="M234 840h10q56 -80 152 -80q48 0 91 23q43 24 57 57h10q-14 -38 -61 -64t-97 -26q-53 0 -98 25.5t-64 64.5zM670 685l-540 -685h-10v700h10v-685l540 685h10v-700h-10v685z"/>
<glyph glyph-name="afii10028" horiz-adv-x="614" unicode="К" d="M130 0h-10v700h10v-700zM549 700h14l-361 -335l372 -365h-15l-372 365z"/>
<glyph glyph-name="afii10029" horiz-adv-x="720" unicode="Л" d="M600 0h-10v690h-354l-10 -132q-8 -108 -21 -195q-23 -164 -55 -243q-27 -72 -57.5 -96t-62.5 -24v10q147 0 186 550l10 140h374v-700z"/>
<glyph glyph-name="afii10030" horiz-adv-x="872" unicode="М" d="M130 0h-10v700h11l310 -422l300 422h11v-700h-10v686l-300 -423h-3l-309 420v-683z"/>
<glyph glyph-name="afii10031" horiz-adv-x="775" unicode="Н" d="M655 0h-10v352h-515v-352h-10v700h10v-338h515v338h10v-700z"/>
<glyph glyph-name="afii10032" horiz-adv-x="804" unicode="О" d="M165 598q-95 -101 -95 -248t95 -248q96 -100 237 -100q142 0 236 100q96 101 96 248q0 148 -96 248q-94 100 -236 100q-141 0 -237 -100zM158 95q-98 104 -98 255t98 255q99 103 244 103q146 0 243 -103q99 -103 99 -255t-99 -255q-97 -103 -243 -103q-145 0 -244 103z "/>
<glyph glyph-name="afii10033" horiz-adv-x="775" unicode="П" d="M655 0h-10v690h-515v-690h-10v700h535v-700z"/>
<glyph glyph-name="afii10034" horiz-adv-x="567" unicode="Р" d="M273 692q-55 0 -143 -2v-380q85 -5 131 -5q114 0 175 53.5t61 142.5q0 88 -56 139.5t-168 51.5zM130 300v-300h-10v700q39 0 78 1t74 1q67 0 115 -17.5t73 -47.5t36 -63.5t11 -73.5q0 -86 -60 -146q-61 -59 -185 -59q-47 0 -132 5z"/>
<glyph glyph-name="afii10035" horiz-adv-x="657" unicode="С" d="M611 75l6 -8q-36 -35 -94 -55t-119 -20q-154 0 -249 98t-95 260q0 153 93 255q93 103 240 103q131 0 211 -63l-7 -7q-74 60 -203 60q-144 0 -234 -100t-90 -248q0 -156 92 -253q93 -95 242 -95q122 0 207 73z"/>
<glyph glyph-name="afii10036" horiz-adv-x="590" unicode="Т" d="M290 690h-280v10h570v-10h-280v-690h-10v690z"/>
<glyph glyph-name="afii10037" horiz-adv-x="631" unicode="У" d="M600 700h11l-248 -546q-37 -84 -69 -119t-74 -35t-65 19l4 9q28 -19 60 -19q63 0 119 114l15 31l-333 546h11l327 -536z"/>
<glyph glyph-name="afii10038" horiz-adv-x="824" unicode="Ф" d="M396 92h10v536h-7q-154 0 -246 -70q-93 -70 -93 -198t93 -198q94 -70 243 -70zM424 628h-8v-536h13q147 0 241 69q94 70 94 199q0 130 -93 199t-247 69zM416 -8h-10v90h-11q-155 0 -250 74t-95 204q0 131 94 204q95 74 255 74h7v70h10v-70h7q163 0 257 -74 q94 -73 94 -204q0 -130 -95 -204t-250 -74h-13v-90z"/>
<glyph glyph-name="afii10039" horiz-adv-x="654" unicode="Х" d="M592 700h13l-271 -344l280 -356h-13l-274 348l-274 -348h-13l281 356l-270 344h13l263 -335z"/>
<glyph glyph-name="afii10040" horiz-adv-x="785" unicode="Ц" d="M735 0h-615v700h10v-690h510v690h10v-690h95v-150h-10v140z"/>
<glyph glyph-name="afii10041" horiz-adv-x="615" unicode="Ч" d="M485 700h10v-700h-10v344q-42 -28 -101.5 -47.5t-118.5 -19.5q-96 0 -150.5 56.5t-54.5 167.5v199h10v-202q0 -101 52 -156t145 -55q108 0 218 68v345z"/>
<glyph glyph-name="afii10042" horiz-adv-x="990" unicode="Ш" d="M870 0h-750v700h10v-690h360v690h10v-690h360v690h10v-700z"/>
<glyph glyph-name="afii10043" horiz-adv-x="1005" unicode="Щ" d="M955 0h-835v700h10v-690h360v690h10v-690h360v690h10v-690h95v-150h-10v140z"/>
<glyph glyph-name="afii10044" horiz-adv-x="661" unicode="Ъ" d="M341 395q-75 0 -137 -6v-379q31 0 60 -1q30 -1 72 -1q124 0 189.5 51.5t65.5 150.5q0 89 -64 137t-186 48zM194 690h-194v10h204v-301q76 6 135 6q130 0 196 -51t66 -145q0 -104 -69.5 -157.5t-196.5 -53.5q-41 0 -74 1q-32 1 -67 1v690z"/>
<glyph glyph-name="afii10045" horiz-adv-x="805" unicode="Ы" d="M120 700h10v-301q76 6 125 6q130 0 196 -51t66 -145q0 -104 -69.5 -157.5t-196.5 -53.5q-40 0 -69 1t-62 1v700zM257 395q-65 0 -127 -6v-379q29 0 55 -1q27 -1 67 -1q124 0 189.5 51.5t65.5 150.5q0 89 -64 137t-186 48zM685 0h-10v700h10v-700z"/>
<glyph glyph-name="afii10046" horiz-adv-x="587" unicode="Ь" d="M120 700h10v-301q76 6 135 6q130 0 196 -51t66 -145q0 -104 -69.5 -157.5t-196.5 -53.5q-41 0 -73 1t-68 1v700zM267 395q-75 0 -137 -6v-379q31 0 60 -1q30 -1 72 -1q124 0 189.5 51.5t65.5 150.5q0 89 -64 137t-186 48z"/>
<glyph glyph-name="afii10047" horiz-adv-x="684" unicode="Э" d="M614 352h-408v10h408q-3 153 -95 245q-91 91 -244 91q-122 0 -202 -62l-6 7q76 65 208 65q161 0 255 -96q94 -94 94 -258q0 -154 -95 -258t-248 -104q-130 0 -231 73l7 7q100 -70 223 -70q150 0 241 100t93 250z"/>
<glyph glyph-name="afii10048" horiz-adv-x="1072" unicode="Ю" d="M449 598q-91 -98 -91 -248q0 -149 91 -249q91 -99 231 -99t231 99q91 100 91 249q0 150 -91 248q-91 100 -231 100t-231 -100zM130 0h-10v700h10v-338h218q5 149 98 247q93 99 234 99q144 0 238 -103q94 -101 94 -255q0 -153 -94 -256q-94 -102 -238 -102t-238 102 q-94 103 -94 256v2h-218v-352z"/>
<glyph glyph-name="afii10049" horiz-adv-x="603" unicode="Я" d="M276 305h197v385q-31 0 -61 1q-29 1 -71 1q-114 0 -174.5 -55.5t-60.5 -146.5q0 -70 51 -122q53 -53 119 -63zM483 0h-10v295h-192l-227 -295h-14l230 296q-70 12 -122 67t-52 128q0 96 65 153.5t181 57.5q42 0 74 -1t67 -1v-700z"/>
<glyph glyph-name="afii10065" horiz-adv-x="456" unicode="а" d="M189 6q62 0 103 24t74 71v102q-61 43 -147 43q-63 0 -112 -32q-47 -32 -47 -92q0 -53 36 -84.5t93 -31.5zM89 409l-5 8q67 41 134 41q84 0 121 -43t37 -133v-282h-10v85q-65 -89 -176 -89q-64 0 -102 34.5t-38 90.5q0 64 47 99.5t124 35.5q90 0 145 -40q0 44 -1 57 q0 63 -12 93q-18 47 -43 61q-37 21 -94 21q-62 0 -127 -39z"/>
<glyph glyph-name="afii10066" horiz-adv-x="560" unicode="б" d="M65 265q0 -126 61 -194q62 -69 156 -69q90 0 151 63q62 65 62 156q0 100 -56.5 159.5t-153.5 59.5q-90 0 -150 -54q-59 -53 -70 -121zM458 709l7 -3q-19 -34 -54 -45q-28 -9 -91 -17q-56 -6 -104 -26q-141 -59 -151 -315h2q24 69 85 107q61 40 133 40q102 0 161 -62.5 t59 -166.5q0 -94 -65 -162q-64 -67 -157 -67q-103 0 -166 73q-62 74 -62 199q0 42 1 59q9 99 22 138q40 131 138 167q45 19 102 25q64 8 92.5 18t47.5 38z"/>
<glyph glyph-name="afii10067" horiz-adv-x="477" unicode="в" d="M220 442q-32 0 -120 -2v-205h152q62 0 98.5 29t36.5 77q0 101 -167 101zM244 225h-144v-215q29 0 55 -1q27 -1 67 -1q185 0 185 112q0 105 -163 105zM90 0v450q32 0 60 1q29 1 72 1q175 0 175 -112q0 -42 -26 -71t-74 -36v-2q63 -7 91.5 -34t28.5 -78q0 -121 -192 -121 q-44 0 -73 1t-62 1z"/>
<glyph glyph-name="afii10068" horiz-adv-x="340" unicode="г" d="M100 0h-10v450h250v-10h-240v-440z"/>
<glyph glyph-name="afii10069" horiz-adv-x="504" unicode="д" d="M162 440l-8 -132q-8 -107 -31 -189q-25 -85 -46 -109h322v430h-237zM484 -120h-10v120h-454v-120h-10v130h55q27 33 50 113.5t29 186.5l8 140h257v-440h75v-130z"/>
<glyph glyph-name="afii10070" horiz-adv-x="529" unicode="е" d="M271 448q-91 0 -146 -55.5t-60 -147.5h399q1 91 -52 148q-52 55 -141 55zM446 69l6 -6q-27 -33 -71 -52t-92 -19q-104 0 -169 64q-65 65 -65 169q0 103 56 168q57 65 164 65q88 0 143 -55q56 -56 56 -145q0 -2 -0.5 -11t-0.5 -12h-408q0 -107 60 -170q61 -63 164 -63 q98 0 157 67z"/>
<glyph glyph-name="afii10072" horiz-adv-x="619" unicode="ж" d="M30 0l210 235l-201 215h14l200 -215l-209 -235h-14zM313 0h-10v450h10v-450zM563 450h14l-200 -215l212 -235h-14l-212 235z"/>
<glyph glyph-name="afii10073" horiz-adv-x="452" unicode="з" d="M213 -8q-39 0 -92 17q-50 17 -71 42l6 9q26 -26 72 -43q45 -15 83 -15q78 0 124.5 33t46.5 90q0 47 -34 73.5t-94 26.5h-76v10h71q44 0 79 32q34 33 34 79q0 48 -38 75t-104 27q-88 0 -149 -55l-6 7q55 58 156 58q72 0 111.5 -30t39.5 -84q0 -80 -85 -111v-2 q48 -3 76.5 -33.5t28.5 -72.5q0 -62 -49 -97.5t-130 -35.5z"/>
<glyph glyph-name="afii10074" horiz-adv-x="560" unicode="и" d="M460 435l-360 -435h-10v450h10v-435l360 435h10v-450h-10v435z"/>
<glyph glyph-name="afii10075" horiz-adv-x="560" unicode="й" d="M165 690h10q0 -45 30.5 -72.5t81.5 -27.5q48 0 78 28.5t30 71.5h10q0 -48 -33.5 -79t-84.5 -31q-54 0 -88 31t-34 79zM460 435l-360 -435h-10v450h10v-435l360 435h10v-450h-10v435z"/>
<glyph glyph-name="afii10076" horiz-adv-x="463" unicode="к" d="M100 0h-10v450h10v-450zM401 450h16l-255 -215l271 -235h-17l-269 235z"/>
<glyph glyph-name="afii10077" horiz-adv-x="520" unicode="л" d="M430 0h-10v440h-237l-8 -132q-10 -154 -45 -229q-35 -79 -90 -79v10q24 0 49 26q19 19 32 48q34 71 44 226l8 140h257v-450z"/>
<glyph glyph-name="afii10078" horiz-adv-x="616" unicode="м" d="M100 0h-10v450h11l210 -293l204 293h11v-450h-10v436l-204 -294h-3l-209 294v-436z"/>
<glyph glyph-name="afii10079" horiz-adv-x="555" unicode="н" d="M465 0h-10v225h-355v-225h-10v450h10v-215h355v215h10v-450z"/>
<glyph glyph-name="afii10080" horiz-adv-x="570" unicode="о" d="M126 385q-61 -61 -61 -160t61 -161q62 -62 159 -62q96 0 158 62q62 64 62 161q0 98 -62 160q-61 63 -158 63t-159 -63zM120 58q-65 67 -65 167t65 167q64 66 165 66t165 -66q65 -67 65 -167t-65 -167q-64 -66 -165 -66t-165 66z"/>
<glyph glyph-name="afii10081" horiz-adv-x="550" unicode="п" d="M460 0h-10v440h-350v-440h-10v450h370v-450z"/>
<glyph glyph-name="afii10082" horiz-adv-x="551" unicode="р" d="M281 448q-53 0 -107 -26q-52 -26 -74 -57v-310q73 -53 170 -53q95 0 155 63q61 64 61 164t-55 159.5t-150 59.5zM100 -200h-10v650h10v-71q29 35 79.5 57t101.5 22q100 0 157 -63q58 -61 58 -163q0 -104 -63 -172t-164 -68q-104 0 -169 50v-242z"/>
<glyph glyph-name="afii10083" horiz-adv-x="492" unicode="с" d="M446 69l6 -6q-27 -33 -71 -52t-92 -19q-104 0 -169 64q-65 65 -65 169q0 97 63 165t155 68q111 0 170 -53l-6 -9q-58 52 -162 52q-87 0 -149 -65q-61 -64 -61 -158q0 -100 62 -162q62 -61 162 -61q98 0 157 67z"/>
<glyph glyph-name="afii10084" horiz-adv-x="430" unicode="т" d="M210 440h-200v10h410v-10h-200v-440h-10v440z"/>
<glyph glyph-name="afii10085" horiz-adv-x="466" unicode="у" d="M435 450h11l-185 -450q-48 -116 -84 -158t-82 -42q-29 0 -64 15l4 9q35 -15 58 -15q42 0 76.5 39t71.5 128l10 24l-231 450h11l187 -366l38 -74l31 76z"/>
<glyph glyph-name="afii10086" horiz-adv-x="650" unicode="ф" d="M353 448h-23v-446h19q107 0 172 62q64 61 64 161q0 93 -64 157q-65 66 -168 66zM65 225q0 -100 64 -161q65 -62 173 -62h18v446h-23q-104 0 -168 -64t-64 -159zM330 -200h-10v192h-21q-110 0 -178 65q-66 66 -66 168q0 96 67 164q68 69 176 69h22v242h10v-242h23 q105 0 173 -67q69 -67 69 -166q0 -102 -67 -168q-67 -65 -175 -65h-23v-192z"/>
<glyph glyph-name="afii10087" horiz-adv-x="477" unicode="х" d="M414 450h13l-182 -219l192 -231h-13l-186 223l-185 -223h-13l192 231l-182 219h13l175 -211z"/>
<glyph glyph-name="afii10088" horiz-adv-x="555" unicode="ц" d="M525 0h-435v450h10v-440h350v440h10v-440h75v-130h-10v120z"/>
<glyph glyph-name="afii10089" horiz-adv-x="465" unicode="ч" d="M365 450h10v-450h-10v213q-58 -46 -150 -46q-155 0 -155 164v119h10v-122q0 -151 147 -151q86 0 148 47v226z"/>
<glyph glyph-name="afii10090" horiz-adv-x="690" unicode="ш" d="M600 0h-510v450h10v-440h240v440h10v-440h240v440h10v-450z"/>
<glyph glyph-name="afii10091" horiz-adv-x="695" unicode="щ" d="M665 0h-575v450h10v-440h240v440h10v-440h240v440h10v-440h75v-130h-10v120z"/>
<glyph glyph-name="afii10092" horiz-adv-x="486" unicode="ъ" d="M258 265h-94v-255h93q89 0 129 32t40 96q0 127 -168 127zM154 440h-154v10h164v-175h94q94 0 136 -35t42 -103q0 -137 -181 -137h-101v440z"/>
<glyph glyph-name="afii10093" horiz-adv-x="590" unicode="ы" d="M500 0h-10v450h10v-450zM184 265h-84v-255h83q89 0 129 32t40 96q0 127 -168 127zM181 0h-91v450h10v-175h84q94 0 136 -35t42 -103q0 -137 -181 -137z"/>
<glyph glyph-name="afii10094" horiz-adv-x="422" unicode="ь" d="M194 265h-94v-255h93q89 0 129 32t40 96q0 127 -168 127zM191 0h-101v450h10v-175h94q94 0 136 -35t42 -103q0 -137 -181 -137z"/>
<glyph glyph-name="afii10095" horiz-adv-x="492" unicode="э" d="M427 225h-261v10h261q-4 96 -66 155q-61 58 -158 58q-98 0 -157 -67l-6 6q27 33 71 52t92 19q104 0 168 -64q66 -64 66 -169q0 -99 -63 -166t-155 -67q-111 0 -170 53l6 9q58 -52 162 -52q87 0 148 64q62 65 62 159z"/>
<glyph glyph-name="afii10096" horiz-adv-x="735" unicode="ю" d="M308 385q-58 -61 -58 -160t58 -161q59 -62 152 -62q92 0 151 62q59 64 59 161q0 98 -59 160q-59 63 -151 63q-94 0 -152 -63zM100 0h-10v450h10v-215h140q3 99 64 160q62 63 156 63q96 0 158 -66q62 -65 62 -167q0 -101 -62 -168q-62 -65 -158 -65t-158 65 q-62 67 -62 168h-140v-225z"/>
<glyph glyph-name="afii10097" horiz-adv-x="471" unicode="я" d="M95 320q0 -50 39 -83q40 -32 79 -32h158v235h-117q-79 0 -119 -32t-40 -88zM256 450h125v-450h-10v195h-149l-158 -195h-14l159 195q-49 5 -87 39q-37 34 -37 85q0 131 171 131z"/>
<glyph glyph-name="afii10071" horiz-adv-x="529" unicode="ё" d="M360 631q0 12 13 12q5 0 8 -4q6 -5 3 -13t-11 -8q-13 0 -13 13zM146 631q0 12 13 12q5 0 8 -4q6 -5 3 -13t-11 -8q-13 0 -13 13zM271 448q-91 0 -146 -55.5t-60 -147.5h399q1 91 -52 148q-52 55 -141 55zM446 69l6 -6q-27 -33 -71 -52t-92 -19q-104 0 -169 64 q-65 65 -65 169q0 103 56 168q57 65 164 65q88 0 143 -55q56 -56 56 -145q0 -2 -0.5 -11t-0.5 -12h-408q0 -107 60 -170q61 -63 164 -63q98 0 157 67z"/>
<glyph glyph-name="afii10099" horiz-adv-x="609" unicode="ђ" d="M155 515h-155v10h155v175h10v-175h225v-10h-225v-219q30 36 81 58q52 24 102 24q98 0 144.5 -50t46.5 -156q0 -114 -46 -216q-45 -104 -141 -156h-16q111 61 154 170q39 95 39 199q0 102 -44 150.5t-137 48.5q-56 0 -108 -27t-75 -59v-282h-10v515z"/>
<glyph glyph-name="afii10100" horiz-adv-x="340" unicode="ѓ" d="M100 0h-10v450h250v-10h-240v-440zM307 706l7 -6l-109 -141l-8 5z"/>
<glyph glyph-name="afii10101" horiz-adv-x="492" unicode="є" d="M65 235h261v-10h-261q0 -101 62 -163q63 -60 161 -60q91 0 149 52l6 -9q-59 -53 -159 -53q-101 0 -165 64t-64 169q0 104 65 169q65 64 169 64q48 0 92 -19t71 -52l-6 -6q-59 67 -157 67q-97 0 -159 -58q-62 -59 -65 -155z"/>
<glyph glyph-name="afii10102" horiz-adv-x="401" unicode="ѕ" d="M331 111q0 72 -91 101q-2 1 -22 7t-24 7.5t-22 7.5t-23 9.5t-19.5 11t-19.5 13.5t-14.5 15.5t-13 19t-6.5 22t-3 26.5q0 48 36 77.5t95 29.5q35 0 68.5 -12.5t51.5 -32.5l-7 -8q-42 43 -115 43q-52 0 -85.5 -27.5t-33.5 -68.5q0 -42 26.5 -68.5t64.5 -39l76 -25t64.5 -39 t26.5 -68.5q0 -56 -40 -88t-104 -32q-37 0 -80 17q-42 16 -57 41l9 6q17 -23 54 -38.5t73 -15.5q57 0 96 29.5t39 79.5z"/>
<glyph glyph-name="afii10103" horiz-adv-x="250" unicode="і" d="M113 633q0 12 13 12q11 0 11 -13q0 -12 -11 -12q-13 0 -13 13zM130 0h-10v450h10v-450z"/>
<glyph glyph-name="afii10104" horiz-adv-x="250" unicode="ї" d="M130 0h-10v450h10v-450zM170 631q0 12 13 12q5 0 8 -4q4 -3 4 -8q0 -13 -12 -13q-13 0 -13 13zM56 631q0 12 13 12q5 0 8 -4q4 -3 4 -8q0 -13 -12 -13q-13 0 -13 13z"/>
<glyph glyph-name="afii10105" horiz-adv-x="251" unicode="ј" d="M112 633q0 12 13 12q5 0 8 -4q4 -3 4 -8q0 -13 -12 -13q-13 0 -13 13zM121 450h10v-483q0 -175 -141 -175q-46 0 -80 25l6 9q32 -24 74 -24q131 0 131 164v484z"/>
<glyph glyph-name="afii10106" horiz-adv-x="741" unicode="љ" d="M513 265h-83v-255h82q89 0 129 32t40 96q0 127 -168 127zM510 0h-90v440h-237l-8 -132q-10 -154 -45 -229q-35 -79 -90 -79v10q24 0 49 26q19 19 32 48q34 71 44 226l8 140h257v-175h83q94 0 136 -35t42 -103q0 -137 -181 -137z"/>
<glyph glyph-name="afii10107" horiz-adv-x="776" unicode="њ" d="M548 245h-83v-235h82q91 0 130 28t39 90q0 61 -39.5 89t-128.5 28zM100 0h-10v450h10v-195h355v195h10v-195h83q96 0 137 -31t41 -97q0 -65 -42 -96t-139 -31h-90v245h-355v-245z"/>
<glyph glyph-name="afii10108" horiz-adv-x="609" unicode="ћ" d="M155 515h-155v10h155v175h10v-175h225v-10h-225v-219q30 36 81 58q52 24 102 24q98 0 144.5 -50t46.5 -156v-172h-10v169q0 102 -44 150.5t-137 48.5q-56 0 -108 -27t-75 -59v-282h-10v515z"/>
<glyph glyph-name="afii10109" horiz-adv-x="463" unicode="ќ" d="M323 706l7 -6l-109 -141l-8 5zM100 0h-10v450h10v-450zM401 450h16l-255 -215l271 -235h-17l-269 235z"/>
<glyph glyph-name="afii10110" horiz-adv-x="466" unicode="ў" d="M118 690h10q0 -45 30.5 -72.5t81.5 -27.5q48 0 78 28.5t30 71.5h10q0 -48 -33.5 -79t-84.5 -31q-54 0 -88 31t-34 79zM435 450h11l-185 -450q-48 -116 -84 -158t-82 -42q-29 0 -64 15l4 9q35 -15 58 -15q42 0 76.5 39t71.5 128l10 24l-231 450h11l187 -366l38 -74l31 76z "/>
<glyph glyph-name="afii10193" horiz-adv-x="540" unicode="џ" d="M265 0h-175v450h10v-440h340v440h10v-450h-175v-140h-10v140z"/>
<glyph glyph-name="afii10146" horiz-adv-x="621" unicode="Ѣ" d="M301 395q-75 0 -137 -6v-379q31 0 60 -1q30 -1 72 -1q124 0 189.5 51.5t65.5 150.5q0 89 -64 137t-186 48zM154 700h10v-140h178v-10h-178v-151q76 6 135 6q130 0 196 -51t66 -145q0 -104 -69.5 -157.5t-196.5 -53.5q-41 0 -73 1t-68 1v550h-154v10h154v140z"/>
<glyph glyph-name="afii10194" horiz-adv-x="486" unicode="ѣ" d="M258 265h-94v-255h93q89 0 129 32t40 96q0 127 -168 127zM154 440h-154v10h154v250h10v-250h175v-10h-175v-165h94q94 0 136 -35t42 -103q0 -137 -181 -137h-101v440z"/>
<glyph glyph-name="afii10147" horiz-adv-x="804" unicode="Ѳ" d="M70 350v-21q88 76 187 76h6q53 0 147.5 -48t142.5 -48h6q44 0 92.5 21t80.5 52q-11 137 -104 226q-93 90 -226 90q-141 0 -237 -100q-95 -101 -95 -248zM255 395q-50 0 -101 -25q-52 -24 -83 -55q12 -136 105 -224q95 -89 226 -89q142 0 236 100q96 101 96 248 q0 15 -1 19q-35 -30 -83 -50t-92 -20h-6q-52 0 -146.5 48t-144.5 48h-6zM158 95q-98 104 -98 255t98 255q99 103 244 103q146 0 243 -103q99 -103 99 -255t-99 -255q-97 -103 -243 -103q-145 0 -244 103z"/>
<glyph glyph-name="afii10195" horiz-adv-x="570" unicode="ѳ" d="M65 225v-1q53 45 111 45q42 0 116 -38t113 -38q51 0 100 44q-5 94 -66 152q-62 59 -154 59q-97 0 -159 -63q-61 -61 -61 -160zM174 259q-57 0 -109 -49q5 -92 66 -150t154 -58q95 0 157 62q61 61 63 160q-49 -41 -101 -41q-38 0 -116 38q-76 38 -114 38zM120 58 q-65 67 -65 167t65 167q64 66 165 66t165 -66q65 -67 65 -167t-65 -167q-64 -66 -165 -66t-165 66z"/>
<glyph glyph-name="afii10148" horiz-adv-x="654" unicode="Ѵ" d="M517 513l-184 -521h-3l-310 708h11l300 -687l184 524q28 80 55 122q30 44 65 44q15 0 39 -7l-4 -9q-21 7 -33 7q-29 0 -49 -25q-29 -39 -71 -156z"/>
<glyph glyph-name="afii10196" horiz-adv-x="471" unicode="ѵ" d="M376 328l-129 -336h-3l-224 458h11l169 -344l44 -92q14 34 38 96l87 225q35 90 60 109q16 11 32 11q12 0 30 -8l-4 -9q-13 9 -26 9q-21 0 -39 -27.5t-46 -91.5z"/>
<glyph glyph-name="afii10050" horiz-adv-x="500" unicode="Ґ" d="M130 0h-10v700h370v140h10v-150h-370v-690z"/>
<glyph glyph-name="afii10098" horiz-adv-x="340" unicode="ґ" d="M100 0h-10v450h240v120h10v-130h-240v-440z"/>
<glyph glyph-name="endash" d="M484 265h-384v10h384v-10z" unicode="–"/>
<glyph glyph-name="emdash" horiz-adv-x="784" unicode="—" d="M684 265h-584v10h584v-10z"/>
<glyph glyph-name="quoteleft" horiz-adv-x="236" unicode="‘" d="M129 555l-8 -8q-21 23 -21 59q0 75 58 105l3 -8q-51 -25 -51 -95q0 -34 19 -53z"/>
<glyph glyph-name="quotesinglbase" horiz-adv-x="236" unicode="‚" d="M107 38l8 8q21 -22 21 -59q0 -75 -58 -105l-3 8q51 26 51 95q0 34 -19 53z"/>
<glyph glyph-name="quotedblleft" horiz-adv-x="346" unicode="“" d="M129 555l-8 -8q-21 23 -21 59q0 75 58 105l3 -8q-51 -25 -51 -95q0 -34 19 -53zM239 555l-8 -8q-21 23 -21 59q0 75 58 105l3 -8q-51 -25 -51 -95q0 -34 19 -53z"/>
<glyph glyph-name="quotedblright" horiz-adv-x="346" unicode="”" d="M107 703l8 8q21 -23 21 -59q0 -75 -58 -105l-3 8q51 25 51 95q0 34 -19 53zM217 703l8 8q21 -23 21 -59q0 -75 -58 -105l-3 8q51 25 51 95q0 34 -19 53z"/>
<glyph glyph-name="dagger" horiz-adv-x="394" unicode="†" d="M192 440h-152v10h152v250h10v-250h152v-10h-152v-540h-10v540z"/>
<glyph glyph-name="daggerdbl" horiz-adv-x="394" unicode="‡" d="M192 440h-152v10h152v250h10v-250h152v-10h-152v-250h152v-10h-152v-280h-10v280h-152v10h152v250z"/>
<glyph glyph-name="ellipsis" horiz-adv-x="825" unicode="…" d="M100 13q0 12 13 12q5 0 8 -4q6 -5 3 -13t-11 -8q-13 0 -13 13zM400 13q0 12 13 12q5 0 8 -4q6 -5 3 -13t-11 -8q-13 0 -13 13zM700 13q0 12 13 12q5 0 8 -4q4 -3 4 -8q0 -13 -12 -13q-13 0 -13 13z"/>
<glyph glyph-name="perthousand" horiz-adv-x="1209" unicode="‰" d="M449 152q0 -61 44 -102q43 -40 101 -40q59 0 102 40t43 102q0 61 -44 102q-43 40 -101 40q-59 0 -102 -40t-43 -102zM483 43q-44 44 -44 109t44 109q44 43 111 43t110 -43q45 -43 45 -109t-45 -109q-43 -43 -110 -43t-111 43zM70 548q0 -61 44 -102q43 -40 101 -40 q59 0 102 40t43 102q0 61 -44 102q-43 40 -101 40q-59 0 -102 -40t-43 -102zM104 439q-44 44 -44 109t44 109q44 43 111 43t110 -43q45 -43 45 -109t-45 -109q-43 -43 -110 -43t-111 43zM147 -8l-8 7l531 709l8 -5zM849 152q0 -61 44 -102q43 -40 101 -40q59 0 102 40 t43 102q0 61 -44 102q-43 40 -101 40q-59 0 -102 -40t-43 -102zM883 43q-44 44 -44 109t44 109q44 43 111 43t110 -43q45 -43 45 -109t-45 -109q-43 -43 -110 -43t-111 43z"/>
<glyph glyph-name="guilsinglleft" horiz-adv-x="319" unicode="‹" d="M237 56l-6 -8l-171 200v4l172 198l7 -6l-168 -194z"/>
<glyph glyph-name="guilsinglright" horiz-adv-x="319" unicode="›" d="M259 252v-4l-171 -200l-6 8l166 194l-168 194l7 6z"/>
<glyph glyph-name="fraction" horiz-adv-x="179" unicode="⁄" d="M-172 -8l-8 7l531 709l8 -5z"/>
<glyph glyph-name="Euro" d="M100 435h-80l5 10h77q28 116 114 190q86 73 209 73q86 0 139 -29l-4 -10q-64 29 -134 29q-121 0 -204 -70q-84 -72 -109 -183h388l-3 -10h-388q-8 -46 -8 -85q0 -41 4 -65h355l-3 -10h-350q23 -127 110 -199q89 -74 218 -74q73 0 116 25l3 -10q-15 -12 -52 -18 q-34 -7 -67 -7q-135 0 -226 76t-112 207h-78l5 10h71q-4 25 -4 65q0 39 8 85z" unicode="€"/>
<glyph glyph-name="trademark" horiz-adv-x="810" unicode="™" d="M159 690h-149v10h308v-10h-149v-305h-10v305zM394 385h-10v315h11l160 -202l155 202h10v-315h-10v300l-155 -202h-2l-159 202v-300z"/>
<glyph glyph-name="arrowleft" horiz-adv-x="643" unicode="←" d="M40 273l283 282l7 -7l-270 -269h543v-10h-545l272 -272l-7 -7z"/>
<glyph glyph-name="arrowup" horiz-adv-x="645" unicode="↑" d="M316 543l-269 -270l-7 7l282 283l283 -283l-7 -7l-272 272v-545h-10v543z"/>
<glyph glyph-name="arrowright" horiz-adv-x="643" unicode="→" d="M583 279l-270 269l7 7l283 -282l-283 -283l-7 7l272 272h-545v10h543z"/>
<glyph glyph-name="arrowdown" horiz-adv-x="645" unicode="↓" d="M322 -20l-282 283l7 7l269 -270v543h10v-545l272 272l7 -7z"/>
<glyph glyph-name="partialdiff" horiz-adv-x="575" unicode="∂" d="M65 205q0 -86 55 -144q56 -59 141 -59q73 0 129 46q108 87 120 248q-56 152 -215 152q-95 0 -163 -72q-67 -71 -67 -171zM55 205q0 103 70 177q70 76 170 76q87 0 143 -44t72 -98q0 139 -64 246q-34 57 -96.5 93t-145.5 43l2 10q148 -10 231 -116t83 -274q0 -80 -30 -153 q-30 -74 -91 -123q-62 -50 -139 -50q-88 0 -146 60q-59 61 -59 153z"/>
<glyph glyph-name="product" horiz-adv-x="875" unicode="∏" d="M755 -200h-10v890h-615v-890h-10v900h635v-900z"/>
<glyph glyph-name="summation" horiz-adv-x="620" unicode="∑" d="M40 -198l333 448l-333 448v2h540v-10h-522l328 -440l-328 -440h522v-10h-540v2z"/>
<glyph glyph-name="minus" d="M509 355h-434v10h434v-10z" unicode="−"/>
<glyph glyph-name="radical" horiz-adv-x="563" unicode="√" d="M119 440h-119v10h126l202 -433l147 683h248v-10h-239l-152 -698h-3z"/>
<glyph glyph-name="infinity" horiz-adv-x="726" unicode="∞" d="M196 223q36 0 67 19q28 17 47 40q20 25 45 61q-29 38 -49 59q-20 23 -50 41t-58 18q-56 0 -92 -36q-36 -35 -36 -84q0 -54 41 -86t85 -32zM535 461q-38 0 -70 -19q-32 -17 -52 -39q-16 -18 -45 -59q26 -32 51 -61q58 -60 121 -60q55 0 85 35q31 35 31 78q0 55 -32.5 90 t-88.5 35zM537 213q-48 0 -87 28.5t-88 92.5q-28 -39 -46 -61q-20 -23 -53 -41.5t-66 -18.5q-50 0 -94 35q-43 34 -43 93q0 54 40 91q40 39 100 39q31 0 63 -20q33 -21 50 -40q11 -12 49 -59q36 49 70 81q41 38 104 38q60 0 95 -37t35 -97q0 -48 -34 -86q-33 -38 -95 -38z "/>
<glyph glyph-name="approxequal" d="M76 425l-8 7q58 53 115 53q40 0 116 -38t113 -38q48 0 97 46l7 -7q-52 -49 -105 -49q-38 0 -116 38q-76 38 -114 38q-53 0 -105 -50zM76 265l-8 7q58 53 115 53q40 0 116 -38t113 -38q48 0 97 46l7 -7q-52 -49 -105 -49q-38 0 -116 38q-76 38 -114 38q-53 0 -105 -50z " unicode="≈"/>
<glyph glyph-name="notequal" d="M308 435h-233v10h237l98 263l9 -3l-97 -260h187v-10h-190l-56 -150h246v-10h-249l-105 -283l-10 4l104 279h-174v10h177z" unicode="≠"/>
<glyph glyph-name="lessequal" d="M464 196v-12l-389 256v4l389 254v-12l-374 -244zM464 24l-389 256v13l389 -257v-12z" unicode="≤"/>
<glyph glyph-name="greaterequal" d="M509 444v-4l-389 -256v12l374 246l-374 244v12zM120 36l389 257v-13l-389 -256v12z" unicode="≥"/>
<glyph glyph-name="lozenge" horiz-adv-x="458" unicode="◊" d="M229 504l-158 -254l158 -243l158 253zM230 -8h-3l-167 257l168 269h3l167 -258z"/>
<glyph glyph-name="spade" horiz-adv-x="632" unicode="♠" d="M316 510q88 -55 172 -151t84 -160q0 -44 -31 -74t-86 -30q-78 0 -131 72q29 -120 107 -167h-230q74 53 105 164q-51 -69 -129 -69q-55 0 -86 30t-31 75q0 63 84 159t172 151z"/>
<glyph glyph-name="club" horiz-adv-x="612" unicode="♣" d="M177 381q0 53 38 91t91 38t91 -38t38 -91q0 -3 -2 -19q51 -5 84 -41q35 -38 35 -87q0 -53 -38 -91t-91 -38q-66 0 -104 53q31 -114 102 -158h-230q62 43 100 156q-41 -51 -102 -51q-53 0 -91 38t-38 91q0 50 34 87q33 36 84 41q-1 4 -1 19z"/>
<glyph glyph-name="heart" horiz-adv-x="649" unicode="♥" d="M325 0q-95 72 -179 181q-86 113 -86 189q0 56 31.5 93t89.5 37q88 0 144 -104q54 104 143 104q57 0 89 -36.5t32 -92.5q0 -76 -86 -189q-87 -113 -178 -182z"/>
<glyph glyph-name="diamond" horiz-adv-x="583" unicode="♦" d="M523 249q-109 -109 -232 -268q-102 134 -231 268q106 110 231 269q124 -158 232 -269z"/>
</font>
</defs>
</svg>
