<?xml version="1.0" encoding="UTF-8" standalone="no"?>
<!DOCTYPE svg  PUBLIC '-//W3C//DTD SVG 1.1//EN'  'http://www.w3.org/Graphics/SVG/1.1/DTD/svg11.dtd'>
<svg xmlns="http://www.w3.org/2000/svg">
<defs>
<font id="Circe-ExtraLight" horiz-adv-x="586">
<font-face underline-position="-50" font-weight="300" descent="-200" panose-1="2 11 3 2 2 2 3 2 2 3" units-per-em="1000" unicode-range="U+0020-2666" bbox="-180 -251 1176 860" x-height="450" underline-thickness="50" font-family="Circe" ascent="800" cap-height="700"/>
<missing-glyph horiz-adv-x="1000"/>
<glyph glyph-name=".notdef" horiz-adv-x="1000"/>
<glyph glyph-name=".null" horiz-adv-x="0"/>
<glyph glyph-name="nonmarkingreturn" horiz-adv-x="333"/>
<glyph glyph-name="space" horiz-adv-x="243" unicode=" "/>
<glyph glyph-name="exclam" horiz-adv-x="310" unicode="!" d="M131 24q0 8 7.5 15t17.5 7q9 0 16 -7t7 -15q0 -10 -7 -17.5t-16 -7.5q-10 0 -17.5 7.5t-7.5 17.5zM170 174h-30v526h30v-526z"/>
<glyph glyph-name="quotedbl" horiz-adv-x="389" unicode='&quot;' d="M139 505h-28v195h28v-195zM278 505h-28v195h28v-195z"/>
<glyph glyph-name="numbersign" horiz-adv-x="674" unicode="#" d="M492 457h-232l-79 -214h232zM347 -9l-24 9l80 217h-232l-83 -226l-24 9l81 217h-105v26h114l80 214h-194v26h203l85 226l22 -9l-80 -217h232l84 226l23 -8l-81 -218h107v-26h-116l-79 -214h195v-26h-205z"/>
<glyph glyph-name="dollar" d="M477 170q0 44 -21 77t-54.5 52t-73.5 34.5t-80.5 31.5t-74 36.5t-54.5 55.5t-21 83q0 72 50.5 118.5t137.5 50.5v81h28v-82q110 -5 169 -70l-17 -21q-62 63 -168 63q-78 0 -124 -38.5t-46 -101.5q0 -51 28 -85q13 -17 34 -31t33.5 -20t48.5 -20t45 -18q67 -26 92 -38 q44 -20 71 -61t27 -96q0 -76 -55 -125q-54 -48 -138 -54v-92h-28v91q-61 1 -122 29q-59 27 -84 70l19 20q30 -40 83 -66q54 -24 106 -24q78 0 133 39q56 41 56 111z" unicode="$"/>
<glyph glyph-name="percent" horiz-adv-x="827" unicode="%" d="M162 -9l-18 14l527 704l17 -13zM608 23q57 0 95 37q40 37 40 96q0 58 -40 95t-95 37t-95 -37t-40 -95q0 -59 40 -96t95 -37zM446 156q0 69 46 112q47 44 116 44q68 0 115 -44t47 -112q0 -70 -46 -113q-47 -44 -116 -44t-116 44q-46 43 -46 113zM218 413q57 0 95 37 q40 37 40 96q0 58 -40 95t-95 37t-95 -37t-40 -95q0 -59 40 -96t95 -37zM56 546q0 69 46 112q47 44 116 44q68 0 115 -44t47 -112q0 -70 -46 -113q-47 -44 -116 -44t-116 44q-46 43 -46 113z"/>
<glyph glyph-name="ampersand" horiz-adv-x="731" unicode="&amp;" d="M293 465q45 0 77 32.5t32 77.5t-32 77t-77 32q-46 0 -78 -32t-32 -77q0 -44 32 -78q32 -32 78 -32zM297 20q131 0 211 122l-225 286q-82 -58 -124.5 -113.5t-42.5 -119.5q0 -77 53 -127q54 -48 128 -48zM656 0h-36l-94 119q-87 -128 -229 -128q-90 0 -152 56 q-60 57 -60 143q0 134 181 255q-48 8 -79 44t-31 86q0 58 40 95q40 39 97 39q55 0 96 -39q40 -39 40 -95q0 -53 -36 -91q-37 -39 -87 -40l221 -280q73 124 73 286h28q0 -179 -83 -310z"/>
<glyph glyph-name="quotesingle" horiz-adv-x="250" unicode="&apos;" d="M139 505h-28v195h28v-195z"/>
<glyph glyph-name="parenleft" horiz-adv-x="261" unicode="(" d="M261 -190l-19 -16q-202 174 -202 431q0 248 203 431l18 -16q-193 -178 -193 -415q0 -249 193 -415z"/>
<glyph glyph-name="parenright" horiz-adv-x="261" unicode=")" d="M19 -206l-19 16q193 166 193 415q0 237 -193 415l18 16q203 -183 203 -431q0 -257 -202 -431z"/>
<glyph glyph-name="asterisk" horiz-adv-x="449" unicode="*" d="M118 643q10 0 16 -7t6 -16q0 -10 -6 -17t-16 -7q-23 0 -23 24q0 23 23 23zM94 512q0 9 7 16t17 7q9 0 16 -7t7 -16q0 -10 -7 -17t-16 -7q-10 0 -17 7t-7 17zM308 512q0 9 7 16t16 7q10 0 17 -7t7 -16q0 -10 -6.5 -17t-17.5 -7q-9 0 -16 7t-7 17zM331 643q23 0 23 -23 q0 -24 -23 -24q-10 0 -16 7t-6 17q0 9 6 16t16 7zM202 446q0 10 7 17t17 7q9 0 16.5 -7t7.5 -17q0 -9 -7.5 -16t-16.5 -7q-10 0 -17 7t-7 16zM203 684q0 10 7 17t17 7q9 0 16.5 -7t7.5 -17q0 -9 -7.5 -16t-16.5 -7q-10 0 -17 7t-7 16z"/>
<glyph glyph-name="plus" d="M279 347h-206v26h206v206h26v-206h208v-26h-208v-208h-26v208z" unicode="+"/>
<glyph glyph-name="comma" horiz-adv-x="181" unicode="," d="M65 21q0 10 7.5 16.5t19.5 6.5q20 0 34.5 -21t14.5 -54q0 -43 -24.5 -74.5t-62.5 -41.5l-7 15q27 9 47 33t22 55v6q0 39 -18 48q-1 -10 -14 -10q-7 0 -13 6.5t-6 14.5z"/>
<glyph glyph-name="hyphen" horiz-adv-x="407" unicode="-" d="M314 257h-221v27h221v-27z"/>
<glyph glyph-name="period" horiz-adv-x="162" unicode="." d="M57 24q0 8 7.5 15t17.5 7q9 0 16 -7t7 -15q0 -10 -7 -17.5t-16 -7.5q-10 0 -17.5 7.5t-7.5 17.5z"/>
<glyph glyph-name="slash" horiz-adv-x="301" unicode="/" d="M-6 -208l-24 9l338 908l23 -9z"/>
<glyph glyph-name="zero" horiz-adv-x="579" unicode="0" d="M103 350q0 -157 47 -244t141 -87q185 0 185 331t-187 331q-186 0 -186 -331zM73 350q0 163 53 261q52 97 163 97q75 0 124 -48q92 -88 92 -310q0 -107 -21 -185q-21 -80 -70.5 -126.5t-122.5 -46.5q-110 0 -164 97t-54 261z"/>
<glyph glyph-name="one" horiz-adv-x="366" unicode="1" d="M70 562l-17 22l152 123h19v-707h-29v664z"/>
<glyph glyph-name="two" horiz-adv-x="531" unicode="2" d="M465 0h-409v24q50 48 81 81q32 34 88 97q55 64 90 114q34 49 60 110q27 62 27 109q0 59 -40 102q-39 43 -111 43q-56 0 -103 -35q-46 -35 -57 -105l-25 8q9 76 64 118t121 42q87 0 134 -51q47 -52 47 -116q0 -56 -31 -124q-32 -70 -70 -124q-33 -48 -94 -118 q-52 -59 -84 -91l-60 -57h372v-27z"/>
<glyph glyph-name="three" horiz-adv-x="534" unicode="3" d="M251 -9q-68 0 -120.5 31t-77.5 92l19 18q24 -56 72.5 -84t109.5 -28q79 0 127 48t48 121q0 67 -47 111t-113 44h-64v28h57q53 0 97 47q43 46 43 113q0 71 -40.5 109.5t-110.5 38.5q-117 0 -161 -104l-18 15q19 55 67 86.5t113 31.5q84 0 131.5 -46.5t47.5 -129.5 q0 -56 -30.5 -103t-82.5 -67v-3q64 -9 102 -59t38 -112q0 -89 -58 -144q-58 -54 -149 -54z"/>
<glyph glyph-name="four" horiz-adv-x="528" unicode="4" d="M382 0h-28v193h-327v17l320 490h33l-313 -478h287v228h28v-228h108v-29h-108v-193z"/>
<glyph glyph-name="five" horiz-adv-x="520" unicode="5" d="M126 378l41 322h293v-28h-269l-34 -262q41 12 79 12q99 0 160 -58q62 -57 62 -151q0 -100 -61 -161t-146 -61q-63 0 -115.5 29.5t-82.5 85.5l19 19q27 -50 75.5 -77.5t103.5 -27.5q76 0 127 54q51 56 51 138q0 78 -56 131t-145 53q-50 0 -102 -18z"/>
<glyph glyph-name="six" horiz-adv-x="547" unicode="6" d="M87 249q0 -95 52 -162t149 -67q71 0 122 55t51 134q0 83 -48 137t-135 54q-76 0 -128 -47q-50 -47 -63 -104zM57 248q0 90 29.5 173t78.5 142q101 119 226 146l13 -22q-114 -25 -206 -129q-91 -101 -109 -264q23 59 74.5 96t121.5 37q93 0 149 -60q56 -61 56 -156 q0 -92 -61 -156q-60 -64 -140 -64q-110 0 -172 74q-60 73 -60 183z"/>
<glyph glyph-name="seven" horiz-adv-x="466" unicode="7" d="M391 672h-354v28h391v-15l-274 -685h-32z"/>
<glyph glyph-name="eight" horiz-adv-x="588" unicode="8" d="M76 181q0 63 41 113q41 51 110 64v3q-53 14 -89 63q-36 50 -36 103q0 82 55 131q55 51 136 51t137 -51q56 -50 56 -131q0 -54 -34.5 -100.5t-91.5 -64.5v-3q67 -7 109 -57t42 -119q0 -87 -65 -140q-64 -52 -152 -52q-89 0 -153 52q-65 53 -65 138zM310 346h-29 q-71 0 -124 -47q-51 -47 -51 -114q0 -72 55 -118q56 -47 132 -47q79 0 134 45q55 46 55 120q0 73 -50 117t-122 44zM276 374h36q53 0 99 44q45 45 45 108q0 72 -49 112q-49 42 -115 42q-65 0 -113 -42t-48 -112q0 -63 45 -108q47 -44 100 -44z"/>
<glyph glyph-name="nine" horiz-adv-x="546" unicode="9" d="M459 450q0 96 -49 163q-48 67 -143 67q-73 0 -128 -55q-55 -54 -55 -130q0 -78 49 -133t135 -55q78 0 127 43q51 43 64 100zM489 451q0 -189 -95 -314q-94 -124 -242 -146l-11 23q133 22 219 125q87 105 97 265q-22 -56 -73.5 -90t-121.5 -34q-93 0 -150 62t-57 151 q0 92 64 153q64 63 146 63q111 0 167 -74q57 -73 57 -184z"/>
<glyph glyph-name="colon" horiz-adv-x="324" unicode=":" d="M138 24q0 8 7.5 15t17.5 7q9 0 16 -7t7 -15q0 -10 -7 -17.5t-16 -7.5q-10 0 -17.5 7.5t-7.5 17.5zM138 436q0 8 7.5 15t17.5 7q9 0 16 -7t7 -15q0 -10 -7 -17.5t-16 -7.5q-10 0 -17.5 7.5t-7.5 17.5z"/>
<glyph glyph-name="semicolon" horiz-adv-x="326" unicode=";" d="M138 436q0 8 7.5 15t17.5 7q9 0 16 -7t7 -15q0 -10 -7 -17.5t-16 -7.5q-10 0 -17.5 7.5t-7.5 17.5zM137 21q0 10 7.5 16.5t19.5 6.5q20 0 34.5 -21t14.5 -54q0 -43 -24.5 -74.5t-62.5 -41.5l-7 15q27 9 47 33t22 55v6q0 39 -18 48q-1 -10 -14 -10q-7 0 -13 6.5t-6 14.5z "/>
<glyph glyph-name="less" d="M473 129v-32l-403 259v12l403 256v-31l-363 -231z" unicode="&lt;"/>
<glyph glyph-name="equal" d="M513 264h-440v26h440v-26zM513 430h-440v26h440v-26z" unicode="="/>
<glyph glyph-name="greater" d="M516 368v-12l-403 -259v32l363 233l-363 231v31z" unicode="&gt;"/>
<glyph glyph-name="question" horiz-adv-x="455" unicode="?" d="M171 24q0 8 7.5 15t17.5 7q9 0 16 -7t7 -15q0 -10 -7 -17.5t-16 -7.5q-10 0 -17.5 7.5t-7.5 17.5zM388 535q0 63 -46 104t-118 41q-102 0 -166 -88l-18 17q28 45 79 72.5t108 27.5q90 0 139 -49q51 -48 51 -120q0 -51 -21.5 -89.5t-52.5 -61.5t-61.5 -45t-52 -52.5 t-21.5 -70.5q0 -22 4 -39l-26 -2q-5 23 -5 46q0 76 73 127q4 3 25 18t27.5 20.5t23.5 20t24 25.5t17 27t13.5 33.5t3.5 37.5z"/>
<glyph glyph-name="at" horiz-adv-x="1021" unicode="@" d="M514 18q47 0 93 25q45 25 67 56v294q-63 39 -144 39q-91 0 -153 -61q-62 -60 -62 -147q0 -95 54.5 -150.5t144.5 -55.5zM718 0h-44v67q-28 -33 -73.5 -54.5t-90.5 -21.5q-102 0 -163 64t-61 170q0 99 70 166q71 68 175 68q95 0 171 -48v-384h21q90 0 142 70q53 71 53 169 q0 158 -113 262t-285 104q-180 0 -299 -117q-118 -117 -118 -290q0 -170 119 -289q118 -118 298 -118q57 0 108 12l5 -26q-56 -13 -113 -13q-192 0 -318 126q-126 124 -126 308q0 182 126 308t318 126q183 0 304 -110q121 -109 121 -282q0 -109 -60 -188q-58 -79 -167 -79z "/>
<glyph glyph-name="A" horiz-adv-x="690" unicode="A" d="M507 288l-163 375l-163 -375h326zM57 0h-31l308 707h22l308 -707h-32l-113 260h-350z"/>
<glyph glyph-name="B" horiz-adv-x="617" unicode="B" d="M291 674q-63 0 -145 -2v-299h156q76 0 127 42q52 42 52 111q0 148 -190 148zM296 346h-150v-318q32 0 68 -1t80 -1q104 0 160 42.5t56 125.5q0 72 -56 112t-158 40zM116 0v700q38 0 81 1t96 1q218 0 218 -172q0 -67 -42 -110.5t-108 -55.5v-2q86 -8 132.5 -52t46.5 -118 q0 -96 -65.5 -145t-180.5 -49q-52 0 -95 1t-83 1z"/>
<glyph glyph-name="C" horiz-adv-x="657" unicode="C" d="M606 90l13 -23q-36 -35 -94 -55.5t-121 -20.5q-155 0 -251 98q-96 99 -96 261q0 155 94 256q94 103 244 103q131 0 211 -65l-15 -21q-72 57 -195 57q-138 0 -223 -94t-85 -236q0 -148 88 -239t230 -91q118 0 200 70z"/>
<glyph glyph-name="D" horiz-adv-x="735" unicode="D" d="M283 675q-18 0 -74 -2q-27 -1 -63 -1v-644h38t36 -0.5t29 -1t21 -0.5h8q178 0 273 94q96 95 96 241q0 138 -91 226q-89 88 -273 88zM123 0h-7v700h11q41 0 74 1q66 2 84 2h3q81 0 147 -18.5t110.5 -50t75 -75.5t44 -93.5t13.5 -104.5q0 -157 -105 -261 q-103 -102 -296 -102q-45 0 -78 1t-76 1z"/>
<glyph glyph-name="E" horiz-adv-x="575" unicode="E" d="M506 0h-390v700h380v-28h-350v-302h320v-28h-320v-314h360v-28z"/>
<glyph glyph-name="F" horiz-adv-x="544" unicode="F" d="M146 0h-30v700h388v-28h-358v-322h328v-28h-328v-322z"/>
<glyph glyph-name="G" horiz-adv-x="727" unicode="G" d="M631 296h-218v28h247v-237q-46 -45 -119 -71q-72 -25 -143 -25q-152 0 -247 98q-94 98 -94 261q0 152 93 256q94 103 243 103q131 0 214 -65l-15 -23q-71 59 -195 59q-139 0 -224 -94t-85 -236q0 -148 86 -240q87 -90 226 -90q66 0 129 22q65 22 102 60v194z"/>
<glyph glyph-name="H" horiz-adv-x="772" unicode="H" d="M656 0h-29v343h-481v-343h-30v700h30v-329h481v329h29v-700z"/>
<glyph glyph-name="I" horiz-adv-x="316" unicode="I" d="M173 0h-30v700h30v-700z"/>
<glyph glyph-name="J" horiz-adv-x="350" unicode="J" d="M204 700h29v-550q0 -80 -30 -119.5t-99 -39.5q-52 0 -87 29l12 23q32 -23 72 -23q57 0 80 33t23 100v547z"/>
<glyph glyph-name="K" horiz-adv-x="624" unicode="K" d="M146 0h-30v700h30v-700zM536 700h41l-344 -333l356 -367h-43l-354 365z"/>
<glyph glyph-name="L" horiz-adv-x="554" unicode="L" d="M535 0h-419v700h30v-672h389v-28z"/>
<glyph glyph-name="M" horiz-adv-x="877" unicode="M" d="M146 0h-30v700h31l297 -405l288 405h29v-700h-29v655l-287 -404h-5l-294 401v-652z"/>
<glyph glyph-name="N" horiz-adv-x="799" unicode="N" d="M683 700v-700h-24l-515 646v-646h-28v700h24l514 -648v648h29z"/>
<glyph glyph-name="O" horiz-adv-x="807" unicode="O" d="M403 20q135 0 225 94t90 236q0 141 -91 235q-90 95 -224 95q-133 0 -225 -95q-90 -94 -90 -235q0 -142 90 -236q91 -94 225 -94zM57 350q0 152 99 255q99 104 247 104q147 0 246 -103q100 -101 100 -256q0 -153 -100 -256q-99 -103 -246 -103t-247 102q-99 103 -99 257z "/>
<glyph glyph-name="P" horiz-adv-x="575" unicode="P" d="M279 674q-45 0 -133 -2v-352q80 -5 123 -5q105 0 161.5 49.5t56.5 132.5t-52 130t-156 47zM146 292v-292h-30v700q40 0 81 1t79 1q139 0 192 -66q49 -57 49 -140q0 -88 -61 -149q-62 -60 -185 -60q-45 0 -125 5z"/>
<glyph glyph-name="Q" horiz-adv-x="807" unicode="Q" d="M403 20q108 0 187 61l-61 75l19 18l64 -76q106 96 106 252q0 141 -91 235q-90 95 -224 95q-133 0 -225 -95q-90 -94 -90 -235q0 -142 90 -236q91 -94 225 -94zM57 350q0 152 99 255q99 104 247 104q147 0 246 -103q100 -101 100 -256q0 -169 -118 -274l64 -76h-38l-48 58 q-91 -67 -206 -67q-147 0 -247 102q-99 103 -99 257z"/>
<glyph glyph-name="R" horiz-adv-x="621" unicode="R" d="M265 674q-31 0 -119 -2v-338h136q76 0 135 49q61 49 61 123q0 168 -213 168zM146 306v-306h-30v700q42 0 82 1q41 1 69 1q242 0 242 -196q0 -72 -49 -125q-50 -54 -128 -69l254 -312h-37l-249 306h-154z"/>
<glyph glyph-name="S" horiz-adv-x="543" unicode="S" d="M455 170q0 44 -21 77t-54.5 52t-73.5 34.5t-80.5 31.5t-74 36.5t-54.5 55.5t-21 83q0 75 54 122t146 47q56 0 105 -19t79 -52l-17 -21q-61 63 -168 63q-77 0 -122.5 -38.5t-45.5 -101.5q0 -51 28 -85q13 -17 34 -31t33.5 -20t48.5 -20t45 -18q67 -26 92 -38 q44 -20 71 -61t27 -96q0 -81 -63 -131q-61 -49 -156 -49q-61 0 -123 27q-62 28 -87 72l19 20q30 -40 83 -66q54 -24 106 -24q79 0 134 39q56 41 56 111z"/>
<glyph glyph-name="T" horiz-adv-x="591" unicode="T" d="M281 672h-271v28h571v-28h-271v-672h-29v672z"/>
<glyph glyph-name="U" horiz-adv-x="751" unicode="U" d="M615 700h30v-406q0 -150 -74 -226q-73 -75 -186 -75q-124 0 -202 80q-77 80 -77 228v399h30v-395q0 -135 69 -210q69 -74 180 -74q106 0 168 71.5t62 208.5v399z"/>
<glyph glyph-name="V" horiz-adv-x="656" unicode="V" d="M609 700h31l-299 -707h-19l-306 707h32l285 -660z"/>
<glyph glyph-name="W" horiz-adv-x="948" unicode="W" d="M901 700h29l-205 -700h-23l-226 647l-220 -647h-23l-216 700h33l197 -641l218 641h24l224 -642z"/>
<glyph glyph-name="X" horiz-adv-x="657" unicode="X" d="M577 700h36l-265 -344l274 -356h-36l-258 333l-257 -333h-36l275 356l-264 344h36l247 -321z"/>
<glyph glyph-name="Y" horiz-adv-x="567" unicode="Y" d="M516 700h34l-253 -389v-311h-29v311l-251 389h35l231 -361z"/>
<glyph glyph-name="Z" horiz-adv-x="624" unicode="Z" d="M530 672h-470v28h514v-16l-491 -656h501v-28h-544v16z"/>
<glyph glyph-name="bracketleft" horiz-adv-x="276" unicode="[" d="M273 -200h-213v850h213v-27h-185v-796h185v-27z"/>
<glyph glyph-name="backslash" horiz-adv-x="301" unicode="\" d="M-30 700l23 9l338 -908l-24 -9z"/>
<glyph glyph-name="bracketright" horiz-adv-x="276" unicode="]" d="M3 650h213v-850h-213v27h184v796h-184v27z"/>
<glyph glyph-name="asciicircum" horiz-adv-x="470" unicode="^" d="M86 450h-31l172 258h17l171 -258h-32l-147 226z"/>
<glyph glyph-name="underscore" horiz-adv-x="266" unicode="_" d="M266 -200h-266v28h266v-28z"/>
<glyph glyph-name="grave" horiz-adv-x="250" unicode="`" d="M190 564l-18 -12l-112 141l21 17z"/>
<glyph glyph-name="a" horiz-adv-x="457" unicode="a" d="M193 22q40 0 76 14q31 14 47 28t38 43v90q-55 40 -134 40q-58 0 -101 -28q-42 -29 -42 -83q0 -47 32.5 -75.5t83.5 -28.5zM91 394l-9 24q65 41 138 41q85 0 123.5 -44t38.5 -134v-281h-28v78q-62 -83 -167 -83q-63 0 -101.5 35.5t-38.5 93.5q0 64 47 100.5t124 36.5 q84 0 136 -37q0 44 -1 59q-2 66 -18 92q-32 57 -118 57q-61 0 -126 -38z"/>
<glyph glyph-name="b" horiz-adv-x="550" unicode="b" d="M279 432q-51 0 -97 -25q-45 -23 -68 -54v-289q64 -46 146 -46q92 0 150 57q59 57 59 153q0 93 -51.5 148.5t-138.5 55.5zM85 46v654h29v-316q28 33 75.5 54t94.5 21q100 0 157 -63q58 -62 58 -164q0 -110 -67 -176q-68 -65 -174 -65q-105 0 -173 55z"/>
<glyph glyph-name="c" horiz-adv-x="491" unicode="c" d="M439 83l14 -19q-27 -35 -71.5 -54t-94.5 -19q-105 0 -170 64q-65 65 -65 170q0 99 63 166q65 68 157 68q114 0 172 -55l-14 -23q-58 51 -153 51q-81 0 -139 -60q-57 -58 -57 -147q0 -94 58 -151q59 -56 150 -56q44 0 84.5 17.5t65.5 47.5z"/>
<glyph glyph-name="d" horiz-adv-x="553" unicode="d" d="M279 19q47 0 91 25q46 26 69 55v287q-65 46 -144 46q-92 0 -153 -58t-61 -149q0 -95 54 -150q56 -56 144 -56zM467 0h-28v71q-30 -35 -74 -57t-90 -22q-101 0 -162 63q-61 62 -61 169q0 103 69 169q71 66 174 66q84 0 144 -45v286h28v-700z"/>
<glyph glyph-name="e" horiz-adv-x="527" unicode="e" d="M271 432q-83 0 -133.5 -50t-56.5 -132h366q1 84 -47 133t-129 49zM441 80l11 -21q-27 -32 -71.5 -50t-92.5 -18q-105 0 -170 64q-66 65 -66 170q0 104 58 168q58 66 165 66q88 0 144 -56q57 -56 57 -146q0 -7 -2 -31h-391q1 -96 57 -152t149 -56q95 0 152 62z"/>
<glyph glyph-name="f" horiz-adv-x="338" unicode="f" d="M131 0h-28v523q0 186 153 186q69 0 112 -37l-11 -22q-44 32 -98 32q-128 0 -128 -168v-64h191v-27h-191v-423z"/>
<glyph glyph-name="g" horiz-adv-x="487" unicode="g" d="M135 395q-40 -37 -40 -94t40 -94q41 -36 103 -36t103 36q40 37 40 94t-40 94t-103 37t-103 -37zM47 -69q0 -52 52.5 -82t139.5 -30t140 30q52 28 52 82q0 53 -53 83q-52 31 -139 31q-88 0 -140 -30.5t-52 -83.5zM17 -69q0 51 36.5 85.5t103.5 47.5q-17 20 -17 46 q0 30 19 49q-44 19 -69 56.5t-25 85.5q0 68 48 113q49 45 125 45q68 0 113 -36l126 35v-27l-103 -28q37 -41 37 -102q0 -68 -48 -113q-49 -44 -125 -44q-35 0 -57 7q-14 -16 -14 -39q0 -28 18 -44q31 4 54 4q102 0 161 -37q61 -37 61 -104t-61 -103q-60 -36 -161 -36 q-103 0 -162.5 36.5t-59.5 102.5z"/>
<glyph glyph-name="h" horiz-adv-x="553" unicode="h" d="M114 0h-29v700h29v-318q28 33 76.5 54.5t96.5 21.5q96 0 143 -49.5t47 -154.5v-254h-28v248q0 93 -41 138t-126 45q-49 0 -98 -23q-48 -23 -70 -54v-354z"/>
<glyph glyph-name="i" horiz-adv-x="255" unicode="i" d="M105 629q0 9 7 15.5t16 6.5q8 0 14.5 -6.5t6.5 -15.5q0 -10 -6.5 -16.5t-14.5 -6.5q-9 0 -16 6.5t-7 16.5zM141 0h-28v450h28v-450z"/>
<glyph glyph-name="j" horiz-adv-x="257" unicode="j" d="M106 629q0 9 7 15.5t16 6.5q8 0 14.5 -6.5t6.5 -15.5q0 -10 -6.5 -16.5t-14.5 -6.5q-9 0 -16 6.5t-7 16.5zM115 450h28v-483q0 -175 -141 -175q-48 0 -85 26l10 23q31 -22 71 -22q117 0 117 149v482z"/>
<glyph glyph-name="k" horiz-adv-x="457" unicode="k" d="M114 0h-29v700h29v-700zM376 450h38l-225 -213l244 -237h-40l-240 235z"/>
<glyph glyph-name="l" horiz-adv-x="276" unicode="l" d="M85 113v587h29v-566q0 -58 17 -84.5t56 -26.5q38 0 70 23l9 -23q-38 -27 -87 -27t-71.5 28.5t-22.5 88.5z"/>
<glyph glyph-name="m" horiz-adv-x="807" unicode="m" d="M731 296v-296h-28v288q0 143 -128 143q-102 0 -155 -84q2 -10 2 -31v-316h-28v316q0 52 -34 83.5t-94 31.5q-46 0 -87.5 -22.5t-64.5 -56.5v-352h-29v450h29v-68q25 34 69.5 55t90.5 21q54 0 91.5 -23t50.5 -64q24 39 70.5 63t96.5 24q148 0 148 -162z"/>
<glyph glyph-name="n" horiz-adv-x="553" unicode="n" d="M114 0h-29v450h29v-68q28 33 77 54.5t96 21.5q96 0 143 -49.5t47 -154.5v-254h-28v248q0 93 -41 138t-126 45q-49 0 -97 -23q-47 -23 -71 -54v-354z"/>
<glyph glyph-name="o" horiz-adv-x="569" unicode="o" d="M138 374q-57 -58 -57 -149t57 -149t146 -58t146 58t57 149t-57 149t-146 58t-146 -58zM117 57q-65 67 -65 168t65 168q65 66 167 66t167 -66q66 -66 66 -168t-66 -168q-65 -66 -167 -66t-167 66z"/>
<glyph glyph-name="p" horiz-adv-x="552" unicode="p" d="M281 432q-49 0 -96 -22t-71 -54v-290q68 -48 157 -48q88 0 144 59t56 152t-50.5 148t-139.5 55zM114 -200h-29v650h29v-66q27 33 75 54t98 21q99 0 156 -63q58 -62 58 -164q0 -105 -64 -173q-63 -68 -165 -68q-98 0 -158 45v-236z"/>
<glyph glyph-name="q" horiz-adv-x="553" unicode="q" d="M281 18q46 0 92 23q45 23 67 53v299q-63 39 -144 39q-91 0 -153 -61q-62 -60 -62 -147q0 -94 54.5 -150t145.5 -56zM468 -200h-28v262q-28 -31 -73 -51t-89 -20q-103 0 -164 64q-62 65 -62 170q0 99 70 166q71 68 175 68q95 0 171 -48v-611z"/>
<glyph glyph-name="r" horiz-adv-x="320" unicode="r" d="M114 0h-29v450h29v-65q46 73 127 73q47 0 70 -17l-9 -27q-29 17 -65 17q-74 0 -123 -79v-352z"/>
<glyph glyph-name="s" horiz-adv-x="409" unicode="s" d="M323 114q0 31 -19 51.5t-47 30.5t-61 22t-61 24t-47 38.5t-19 65.5q0 51 37.5 82t99.5 31q39 0 74.5 -13.5t54.5 -34.5l-14 -21q-40 43 -116 43q-47 0 -77 -24.5t-30 -61.5q0 -38 26 -62t63.5 -35.5t75 -24t63.5 -39.5t26 -70q0 -59 -42 -92t-109 -33q-44 0 -86 19 q-43 19 -59 43l18 18q17 -23 54.5 -38.5t73.5 -15.5q52 0 86.5 25.5t34.5 71.5z"/>
<glyph glyph-name="t" horiz-adv-x="344" unicode="t" d="M75 171v404h29v-125h194v-27h-194v-243q0 -81 27.5 -119.5t89.5 -38.5q41 0 73 24l12 -23q-40 -28 -90 -28q-73 0 -107 43.5t-34 132.5z"/>
<glyph glyph-name="u" horiz-adv-x="547" unicode="u" d="M434 450h28v-450h-28v78q-30 -37 -80.5 -62t-100.5 -25q-178 0 -178 203v256h29v-249q0 -93 38.5 -138t119.5 -45q51 0 99 27q48 29 73 62v343z"/>
<glyph glyph-name="v" horiz-adv-x="469" unicode="v" d="M422 450h30l-206 -457h-17l-213 457h33l147 -318l43 -97q14 36 43 101z"/>
<glyph glyph-name="w" horiz-adv-x="684" unicode="w" d="M637 450h29l-147 -457h-21l-135 356l-20 58l-22 -62l-132 -352h-19l-153 457h31l113 -342l12 -38l9 -29q4 10 14 38t11 29l126 342h21l128 -340l26 -70q15 51 23 75z"/>
<glyph glyph-name="x" horiz-adv-x="485" unicode="x" d="M405 450h34l-177 -218l187 -232h-35l-172 212l-172 -212h-34l187 231l-177 219h35l161 -200z"/>
<glyph glyph-name="y" horiz-adv-x="472" unicode="y" d="M423 450h32l-184 -450q-49 -119 -85 -158q-36 -42 -82 -42q-33 0 -70 19l10 22q33 -15 56 -15q39 0 70 35t64 115l10 24l-227 450h33l173 -345q15 -28 35 -73q5 13 29 75z"/>
<glyph glyph-name="z" horiz-adv-x="478" unicode="z" d="M385 423h-321v27h365v-16l-338 -407h333v-27h-375v16z"/>
<glyph glyph-name="braceleft" horiz-adv-x="294" unicode="{" d="M110 -80v194q0 50 -24.5 74t-62.5 24h-3v26q39 0 64.5 27t25.5 83v179q0 62 25.5 92.5t83.5 30.5h55v-27h-50q-46 0 -66 -24.5t-20 -78.5v-180q0 -48 -20.5 -78.5t-54.5 -35.5q75 -9 75 -114v-184q0 -101 92 -101h44v-27h-52q-112 0 -112 120z"/>
<glyph glyph-name="bar" horiz-adv-x="315" unicode="|" d="M172 0h-29v700h29v-700z"/>
<glyph glyph-name="braceright" horiz-adv-x="294" unicode="}" d="M184 114v-194q0 -120 -112 -120h-52v27h44q92 0 92 101v184q0 105 75 114q-34 5 -54.5 35.5t-20.5 78.5v180q0 54 -20 78.5t-66 24.5h-50v27h55q58 0 83.5 -30.5t25.5 -92.5v-179q0 -56 25.5 -83t64.5 -27v-26h-3q-38 0 -62.5 -24t-24.5 -74z"/>
<glyph glyph-name="asciitilde" d="M79 335l-16 19q60 57 121 57q43 0 117 -37t113 -37q49 0 95 46l14 -20q-55 -52 -110 -52q-41 0 -116 37q-76 38 -114 38q-51 0 -104 -51z" unicode="~"/>
<glyph glyph-name="uni00A0" horiz-adv-x="243" unicode=" "/>
<glyph glyph-name="exclamdown" horiz-adv-x="310" unicode="¡" d="M180 434q0 -8 -7.5 -15t-17.5 -7q-9 0 -16 7t-7 15q0 10 7 17.5t16 7.5q10 0 17.5 -7.5t7.5 -17.5zM141 284h30v-526h-30v526z"/>
<glyph glyph-name="cent" d="M481 83l14 -19q-55 -70 -160 -73v-111h-28v112q-96 7 -154.5 70.5t-58.5 162.5q0 96 61 163q62 68 152 71v109h28v-110q99 -5 151 -54l-14 -23q-58 51 -153 51q-81 0 -139 -60q-57 -58 -57 -147q0 -94 58 -151q59 -56 150 -56q44 0 84.5 17.5t65.5 47.5z" unicode="¢"/>
<glyph glyph-name="sterling" d="M170 290h-85v24h78q-3 10 -22 52q-34 72 -34 148q0 78 55 136t146 58q56 0 104.5 -19t78.5 -52l-16 -21q-64 64 -169 64q-74 0 -122 -51q-47 -50 -47 -116q0 -43 9 -76q7 -25 26 -69t22 -54h181v-24h-175q6 -26 6 -57q0 -89 -51 -160q15 3 30 3q39 0 115 -26t112 -26 q60 0 112 49l15 -21q-58 -56 -129 -56q-36 0 -114 26q-76 26 -114 26q-63 0 -118 -55l-15 22q37 33 72 49q56 67 56 166q0 31 -7 60z" unicode="£"/>
<glyph glyph-name="currency" d="M99 349q0 -84 53 -143q54 -59 142 -59t141 59q54 58 54 143q0 83 -54 142q-53 59 -141 59t-142 -59q-53 -59 -53 -142zM125 499l-95 96l18 18l95 -95q59 58 151 58q90 0 151 -58l101 101l18 -18l-101 -102q53 -65 53 -150t-53 -150l96 -98l-18 -18l-96 97 q-59 -58 -151 -58q-91 0 -151 57l-103 -102l-18 18l103 104q-53 65 -53 150t53 150z" unicode="¤"/>
<glyph glyph-name="yen" d="M277 310h-204v25h189l-231 365h35l227 -361l228 361h34l-233 -365h190v-25h-205v-138h205v-24h-205v-148h-30v148h-204v24h204v138z" unicode="¥"/>
<glyph glyph-name="brokenbar" horiz-adv-x="315" unicode="¦" d="M143 0v260h29v-260h-29zM172 700v-260h-29v260h29z"/>
<glyph glyph-name="section" horiz-adv-x="524" unicode="§" d="M104 249q0 -66 47 -110q49 -44 111 -44q64 0 111 44t47 110q0 67 -47 111t-111 44q-65 0 -112 -44q-46 -43 -46 -111zM76 249q0 70 43 119t112 59q-47 19 -76 54t-29 81q0 60 40.5 99t105.5 39q81 0 124 -58l-17 -20q-4 5 -8.5 9.5t-9 8.5t-5.5 5q-10 10 -34 19t-51 9 q-49 0 -83 -33t-34 -81q0 -46 33 -79.5t87 -51.5q75 -4 125 -54q49 -49 49 -125q0 -69 -43 -118t-112 -59q103 -44 103 -134q0 -60 -40.5 -99t-105.5 -39q-81 0 -124 58l17 20q4 -5 8.5 -9.5t9 -8.5t5.5 -5q10 -10 34 -19t51 -9q49 0 83 33t34 81q0 46 -33 79t-87 50 q-73 4 -124 55q-48 49 -48 124z"/>
<glyph glyph-name="dieresis" horiz-adv-x="374" unicode="¨" d="M271 626q0 8 6.5 14.5t15.5 6.5q8 0 14.5 -6.5t6.5 -14.5q0 -22 -22 -22q-21 0 -21 22zM60 626q0 8 6.5 14.5t15.5 6.5q8 0 14 -6.5t6 -14.5q0 -10 -6 -16.5t-14 -6.5q-9 0 -15.5 6.5t-6.5 16.5z"/>
<glyph glyph-name="copyright" horiz-adv-x="1018" unicode="©" d="M669 83l14 -19q-27 -35 -71.5 -54t-94.5 -19q-105 0 -170 64q-65 65 -65 170q0 99 63 166q65 68 157 68q114 0 172 -55l-14 -23q-58 51 -153 51q-81 0 -139 -60q-57 -58 -57 -147q0 -94 58 -151q59 -56 150 -56q44 0 84.5 17.5t65.5 47.5zM220 508q-116 -119 -116 -287 t116 -287q115 -118 289 -118t289 118q116 119 116 287t-116 287q-115 118 -289 118t-289 -118zM202 -84q-123 124 -123 305t123 305q123 125 307 125t307 -125t123 -305q0 -181 -123 -305q-123 -125 -307 -125t-307 125z"/>
<glyph glyph-name="ordfeminine" horiz-adv-x="395" unicode="ª" d="M176 371q71 0 116 53v68q-43 27 -107 27q-43 0 -72 -20.5t-29 -54.5q0 -32 26.5 -52.5t65.5 -20.5zM104 604l-14 17q43 37 106 37q59 0 90.5 -30.5t31.5 -87.5v-189h-26v54q-40 -57 -124 -57q-48 0 -79.5 27t-31.5 67q0 46 33 71.5t90 25.5q71 0 112 -28v23 q0 101 -101 101q-44 0 -87 -31z"/>
<glyph glyph-name="guillemotleft" horiz-adv-x="485" unicode="«" d="M249 61l-18 -18l-175 205v4l176 203l19 -17l-163 -188zM409 61l-18 -18l-175 205v4l176 203l19 -17l-163 -188z"/>
<glyph glyph-name="logicalnot" d="M490 347h-419v26h444v-157h-25v131z" unicode="¬"/>
<glyph glyph-name="uni00AD" horiz-adv-x="407" unicode="­" d="M314 257h-221v27h221v-27z"/>
<glyph glyph-name="registered" horiz-adv-x="551" unicode="®" d="M265 622h-47v-125h54q28 0 49.5 18.5t21.5 45.5q0 61 -78 61zM218 479v-119h-22v280h71q98 0 98 -79q0 -28 -19 -50t-51 -29l97 -122h-28l-94 119h-52zM139 633q-57 -57 -57 -137t57 -137t137 -57t137 57t57 137t-57 137t-137 57t-137 -57zM121 341q-64 64 -64 155 t64 154q64 64 155 64t154 -64q64 -63 64 -154t-64 -155q-63 -63 -154 -63t-155 63z"/>
<glyph glyph-name="overscore" horiz-adv-x="362" unicode="¯" d="M302 624h-242v25h242v-25z"/>
<glyph glyph-name="degree" horiz-adv-x="388" unicode="°" d="M115 648q-32 -32 -32 -78q0 -45 32 -79q34 -32 79 -32q46 0 78 32q33 33 33 79t-33 78q-32 33 -78 33t-79 -33zM194 433q-57 0 -97 40t-40 97t40 96q40 40 97 40t96 -39q40 -39 40 -96q0 -58 -40 -98t-96 -40z"/>
<glyph glyph-name="plusminus" d="M513 180h-440v26h440v-26zM279 421h-206v26h206v205h26v-205h208v-26h-208v-153h-26v153z" unicode="±"/>
<glyph glyph-name="twosuperior" horiz-adv-x="330" unicode="²" d="M296 350h-254v20l31 22l39 30l38 30q34 28 68 72q31 36 31 78q0 35 -22.5 57t-63.5 22q-34 0 -60.5 -18t-32.5 -50l-22 7q6 38 39 61t76 23q55 0 84 -28t29 -74q0 -98 -198 -229h218v-23z"/>
<glyph glyph-name="threesuperior" horiz-adv-x="335" unicode="³" d="M160 346q-93 0 -124 64l17 13q25 -55 106 -55q45 0 73 22.5t28 56.5q0 31 -26 51t-65 20h-38v21h34q31 0 55.5 22t24.5 52q0 33 -23.5 51t-63.5 18q-71 0 -96 -52l-15 14q25 60 114 60q52 0 81.5 -23t29.5 -64q0 -29 -19 -52.5t-51 -32.5v-1q38 -4 61.5 -28.5t23.5 -57.5 q0 -44 -36 -71.5t-91 -27.5z"/>
<glyph glyph-name="acute" horiz-adv-x="250" unicode="´" d="M169 710l21 -17l-112 -141l-18 12z"/>
<glyph glyph-name="mu" horiz-adv-x="549" unicode="µ" d="M435 450h28v-450h-28v78q-30 -37 -80.5 -62t-100.5 -25q-109 0 -149 70v-261h-29v650h29v-249q0 -93 38.5 -138t119.5 -45q51 0 99 27q48 29 73 62v343z"/>
<glyph glyph-name="mu" horiz-adv-x="549" unicode="μ" d="M435 450h28v-450h-28v78q-30 -37 -80.5 -62t-100.5 -25q-109 0 -149 70v-261h-29v650h29v-249q0 -93 38.5 -138t119.5 -45q51 0 99 27q48 29 73 62v343z"/>
<glyph glyph-name="paragraph" horiz-adv-x="417" unicode="¶" d="M56 481q0 102 54 160.5t149 58.5h120v-27h-94v-715q0 -84 -31 -125t-101 -41q-51 0 -89 29l13 22q32 -24 74 -24q59 0 82.5 34t23.5 104v306q-89 2 -145 59q-56 59 -56 159z"/>
<glyph glyph-name="middot" horiz-adv-x="243" unicode="·" d="M97 295q0 8 7.5 15t17.5 7q9 0 16 -7t7 -15q0 -10 -7 -17.5t-16 -7.5q-10 0 -17.5 7.5t-7.5 17.5z"/>
<glyph glyph-name="cedilla" horiz-adv-x="312" unicode="¸" d="M60 -178l10 17q38 -20 73 -20q36 0 58.5 15t22.5 39q0 54 -82 54h-6v73h19v-56q97 -1 97 -72q0 -33 -28.5 -53t-77.5 -20q-37 0 -86 23z"/>
<glyph glyph-name="onesuperior" horiz-adv-x="228" unicode="¹" d="M43 621l-11 19l93 63h17v-353h-25v320z"/>
<glyph glyph-name="ordmasculine" horiz-adv-x="442" unicode="º" d="M221 369q57 0 95 37q40 37 40 96q0 58 -40 95t-95 37t-95 -37t-40 -95q0 -59 40 -96t95 -37zM59 502q0 69 46 112q47 44 116 44q68 0 115 -44t47 -112q0 -70 -46 -113q-47 -44 -116 -44t-116 44q-46 43 -46 113z"/>
<glyph glyph-name="guillemotright" horiz-adv-x="485" unicode="»" d="M268 252v-4l-174 -205l-19 18l161 189l-163 188l19 17zM428 252v-4l-174 -205l-19 18l161 189l-163 188l19 17z"/>
<glyph glyph-name="onequarter" horiz-adv-x="643" unicode="¼" d="M75 -9l-18 14l527 704l17 -13zM60 621l-11 19l93 63h17v-353h-25v320zM559 0h-24v93h-196v16l189 241h25l-184 -235h166v110h24v-110h64v-22h-64v-93z"/>
<glyph glyph-name="onehalf" horiz-adv-x="659" unicode="½" d="M41 -9l-18 14l527 704l17 -13zM60 621l-11 19l93 63h17v-353h-25v320zM619 0h-254v20l31 22l39 30l38 30q34 28 68 72q31 36 31 78q0 35 -22.5 57t-63.5 22q-34 0 -60.5 -18t-32.5 -50l-22 7q6 38 39 61t76 23q55 0 84 -28t29 -74q0 -98 -198 -229h218v-23z"/>
<glyph glyph-name="threequarters" horiz-adv-x="679" unicode="¾" d="M121 -9l-18 14l527 704l17 -13zM594 0h-24v93h-196v16l189 241h25l-184 -235h166v110h24v-110h64v-22h-64v-93zM161 346q-93 0 -124 64l17 13q25 -55 106 -55q45 0 73 22.5t28 56.5q0 31 -26 51t-65 20h-38v21h34q31 0 55.5 22t24.5 52q0 33 -23.5 51t-63.5 18 q-71 0 -96 -52l-15 14q26 60 114 60q52 0 81.5 -23t29.5 -64q0 -29 -19 -52.5t-51 -32.5v-1q38 -4 61.5 -28.5t23.5 -57.5q0 -44 -36 -71.5t-91 -27.5z"/>
<glyph glyph-name="questiondown" horiz-adv-x="455" unicode="¿" d="M284 434q0 -8 -7.5 -15t-17.5 -7q-9 0 -16 7t-7 15q0 10 7 17.5t16 7.5q10 0 17.5 -7.5t7.5 -17.5zM67 -77q0 -63 46 -104t118 -41q102 0 166 88l18 -17q-28 -45 -79 -72.5t-108 -27.5q-90 0 -140 49q-50 48 -50 120q0 94 73 151q9 7 30.5 22t32 23t27 24t25 28.5 t15 31.5t6.5 39q0 22 -4 39l26 2q5 -23 5 -46q0 -76 -74 -128q-68 -47 -90 -72q-43 -48 -43 -109z"/>
<glyph glyph-name="Agrave" horiz-adv-x="690" unicode="À" d="M382 758l-10 -18l-166 89l11 23zM507 288l-163 375l-163 -375h326zM57 0h-31l308 707h22l308 -707h-32l-113 260h-350z"/>
<glyph glyph-name="Aacute" horiz-adv-x="690" unicode="Á" d="M477 852l11 -23l-167 -89l-9 18zM507 288l-163 375l-163 -375h326zM57 0h-31l308 707h22l308 -707h-32l-113 260h-350z"/>
<glyph glyph-name="Acircumflex" horiz-adv-x="690" unicode="Â" d="M190 740l-13 17l166 94h4l167 -93l-15 -18l-154 85zM507 288l-163 375l-163 -375h326zM57 0h-31l308 707h22l308 -707h-32l-113 260h-350z"/>
<glyph glyph-name="Atilde" horiz-adv-x="690" unicode="Ã" d="M193 772l-11 18q40 35 81 35q31 0 83 -24t78 -24q41 0 73 35l11 -19q-38 -41 -85 -41q-27 0 -82 23q-52 24 -82 24q-33 0 -66 -27zM507 288l-163 375l-163 -375h326zM57 0h-31l308 707h22l308 -707h-32l-113 260h-350z"/>
<glyph glyph-name="Adieresis" horiz-adv-x="690" unicode="Ä" d="M439 796q0 9 7 15t17 6q9 0 15.5 -6t6.5 -15q0 -10 -6.5 -16t-15.5 -6q-24 0 -24 22zM205 796q0 9 7 15t17 6q9 0 16 -6t7 -15t-7 -15.5t-16 -6.5q-24 0 -24 22zM507 288l-163 375l-163 -375h326zM57 0h-31l308 707h22l308 -707h-32l-113 260h-350z"/>
<glyph glyph-name="Aring" horiz-adv-x="690" unicode="Å" d="M344 715q36 0 57.5 17t21.5 47t-21.5 46t-57.5 16t-56.5 -16t-20.5 -46t21 -47t56 -17zM507 288l-163 375l-163 -375h326zM244 779q0 39 27.5 60t72.5 21q46 0 74 -21t28 -60q0 -35 -23.5 -56.5t-62.5 -25.5l304 -697h-32l-113 260h-350l-112 -260h-31l303 697 q-39 4 -62 25.5t-23 56.5z"/>
<glyph glyph-name="AE" horiz-adv-x="964" unicode="Æ" d="M504 295v361l-256 -361h256zM895 28v-28h-391v267h-276l-189 -267h-36l501 700h381v-28h-351v-302h321v-28h-321v-314h361z"/>
<glyph glyph-name="Ccedilla" horiz-adv-x="657" unicode="Ç" d="M308 -177l10 17q40 -21 74 -21q36 0 58.5 15t22.5 39q0 54 -82 54h-6v65q-147 6 -238 103q-90 97 -90 255q0 155 94 256q94 103 244 103q131 0 211 -65l-15 -21q-72 57 -195 57q-138 0 -223 -94t-85 -236q0 -148 88 -239t230 -91q118 0 200 70l13 -23q-36 -35 -94 -55.5 t-121 -20.5v-47q98 -2 98 -72q0 -33 -28.5 -53t-76.5 -20q-44 0 -89 24z"/>
<glyph glyph-name="Egrave" horiz-adv-x="575" unicode="È" d="M365 758l-10 -18l-166 89l11 23zM506 0h-390v700h380v-28h-350v-302h320v-28h-320v-314h360v-28z"/>
<glyph glyph-name="Eacute" horiz-adv-x="575" unicode="É" d="M410 852l11 -23l-167 -89l-9 18zM506 0h-390v700h380v-28h-350v-302h320v-28h-320v-314h360v-28z"/>
<glyph glyph-name="Ecircumflex" horiz-adv-x="575" unicode="Ê" d="M506 0h-390v700h380v-28h-350v-302h320v-28h-320v-314h360v-28zM153 740l-13 17l166 94h4l167 -93l-15 -18l-154 85z"/>
<glyph glyph-name="Edieresis" horiz-adv-x="575" unicode="Ë" d="M402 796q0 9 7 15t17 6q9 0 15.5 -6t6.5 -15q0 -10 -6.5 -16t-15.5 -6q-24 0 -24 22zM168 796q0 9 7 15t17 6q9 0 16 -6t7 -15t-7 -15.5t-16 -6.5q-24 0 -24 22zM506 0h-390v700h380v-28h-350v-302h320v-28h-320v-314h360v-28z"/>
<glyph glyph-name="Igrave" horiz-adv-x="316" unicode="Ì" d="M173 0h-30v700h30v-700zM183 758l-10 -18l-166 89l11 23z"/>
<glyph glyph-name="Iacute" horiz-adv-x="316" unicode="Í" d="M173 0h-30v700h30v-700zM298 852l11 -23l-167 -89l-9 18z"/>
<glyph glyph-name="Icircumflex" horiz-adv-x="316" unicode="Î" d="M173 0h-30v700h30v-700zM3 740l-13 17l166 94h4l167 -93l-15 -18l-154 85z"/>
<glyph glyph-name="Idieresis" horiz-adv-x="316" unicode="Ï" d="M173 0h-30v700h30v-700zM252 796q0 9 7 15t17 6q9 0 15.5 -6t6.5 -15q0 -10 -6.5 -16t-15.5 -6q-24 0 -24 22zM18 796q0 9 7 15t17 6q9 0 16 -6t7 -15t-7 -15.5t-16 -6.5q-24 0 -24 22z"/>
<glyph glyph-name="Eth" horiz-adv-x="761" unicode="Ð" d="M309 675q-18 0 -74 -2q-27 -1 -63 -1v-300h206v-27h-206v-317h38t36 -0.5t29.5 -1t21.5 -0.5h8q178 0 272 94q96 95 96 241q0 138 -91 226q-89 88 -273 88zM142 345h-132v27h132v328h11q41 0 74 1q66 2 84 2h3q81 0 147 -18.5t110.5 -50t75 -75.5t44 -93.5t13.5 -104.5 q0 -157 -105 -261q-103 -102 -296 -102q-44 0 -77 1t-77 1h-7v345z"/>
<glyph glyph-name="Ntilde" horiz-adv-x="799" unicode="Ñ" d="M252 772l-11 18q40 35 81 35q30 0 83 -24t78 -24q41 0 73 35l11 -19q-38 -41 -85 -41q-27 0 -82 23q-52 24 -82 24q-33 0 -66 -27zM683 700v-700h-24l-515 646v-646h-28v700h24l514 -648v648h29z"/>
<glyph glyph-name="Ograve" horiz-adv-x="807" unicode="Ò" d="M485 758l-10 -18l-166 89l11 23zM403 20q135 0 225 94t90 236q0 141 -91 235q-90 95 -224 95q-133 0 -225 -95q-90 -94 -90 -235q0 -142 90 -236q91 -94 225 -94zM57 350q0 152 99 255q99 104 247 104q147 0 246 -103q100 -101 100 -256q0 -153 -100 -256 q-99 -103 -246 -103t-247 102q-99 103 -99 257z"/>
<glyph glyph-name="Oacute" horiz-adv-x="807" unicode="Ó" d="M512 852l11 -23l-167 -89l-9 18zM403 20q135 0 225 94t90 236q0 141 -91 235q-90 95 -224 95q-133 0 -225 -95q-90 -94 -90 -235q0 -142 90 -236q91 -94 225 -94zM57 350q0 152 99 255q99 104 247 104q147 0 246 -103q100 -101 100 -256q0 -153 -100 -256 q-99 -103 -246 -103t-247 102q-99 103 -99 257z"/>
<glyph glyph-name="Ocircumflex" horiz-adv-x="807" unicode="Ô" d="M403 20q135 0 225 94t90 236q0 141 -91 235q-90 95 -224 95q-133 0 -225 -95q-90 -94 -90 -235q0 -142 90 -236q91 -94 225 -94zM57 350q0 152 99 255q99 104 247 104q147 0 246 -103q100 -101 100 -256q0 -153 -100 -256q-99 -103 -246 -103t-247 102q-99 103 -99 257z M252 740l-13 17l166 94h4l167 -93l-15 -18l-154 85z"/>
<glyph glyph-name="Otilde" horiz-adv-x="807" unicode="Õ" d="M254 772l-11 18q40 35 81 35q30 0 83 -24t78 -24q41 0 73 35l11 -19q-38 -41 -85 -41q-27 0 -82 23q-52 24 -82 24q-33 0 -66 -27zM403 20q135 0 225 94t90 236q0 141 -91 235q-90 95 -224 95q-133 0 -225 -95q-90 -94 -90 -235q0 -142 90 -236q91 -94 225 -94zM57 350 q0 152 99 255q99 104 247 104q147 0 246 -103q100 -101 100 -256q0 -153 -100 -256q-99 -103 -246 -103t-247 102q-99 103 -99 257z"/>
<glyph glyph-name="Odieresis" horiz-adv-x="807" unicode="Ö" d="M499 796q0 9 7 15t17 6q9 0 15.5 -6t6.5 -15q0 -10 -6.5 -16t-15.5 -6q-24 0 -24 22zM265 796q0 9 7 15t17 6q9 0 16 -6t7 -15t-7 -15.5t-16 -6.5q-24 0 -24 22zM403 20q135 0 225 94t90 236q0 141 -91 235q-90 95 -224 95q-133 0 -225 -95q-90 -94 -90 -235 q0 -142 90 -236q91 -94 225 -94zM57 350q0 152 99 255q99 104 247 104q147 0 246 -103q100 -101 100 -256q0 -153 -100 -256q-99 -103 -246 -103t-247 102q-99 103 -99 257z"/>
<glyph glyph-name="multiply" d="M275 360l-145 146l18 18l145 -146l145 146l18 -18l-145 -146l147 -146l-18 -18l-147 146l-147 -146l-18 18z" unicode="×"/>
<glyph glyph-name="Oslash" horiz-adv-x="807" unicode="Ø" d="M88 350q0 -124 72 -215l465 453q-90 92 -222 92q-133 0 -225 -95q-90 -94 -90 -235zM718 350q0 129 -76 220l-464 -454q90 -96 225 -96t225 94t90 236zM57 350q0 152 99 255q99 104 247 104q144 0 244 -100l51 50l18 -17l-52 -51q85 -100 85 -241q0 -153 -100 -256 q-99 -103 -246 -103t-247 103l-50 -48l-18 19l50 49q-81 98 -81 236z"/>
<glyph glyph-name="Ugrave" horiz-adv-x="751" unicode="Ù" d="M444 758l-10 -18l-166 89l11 23zM615 700h30v-406q0 -150 -74 -226q-73 -75 -186 -75q-124 0 -202 80q-77 80 -77 228v399h30v-395q0 -135 69 -210q69 -74 180 -74q106 0 168 71.5t62 208.5v399z"/>
<glyph glyph-name="Uacute" horiz-adv-x="751" unicode="Ú" d="M481 852l11 -23l-167 -89l-9 18zM615 700h30v-406q0 -150 -74 -226q-73 -75 -186 -75q-124 0 -202 80q-77 80 -77 228v399h30v-395q0 -135 69 -210q69 -74 180 -74q106 0 168 71.5t62 208.5v399z"/>
<glyph glyph-name="Ucircumflex" horiz-adv-x="751" unicode="Û" d="M615 700h30v-406q0 -150 -74 -226q-73 -75 -186 -75q-124 0 -202 80q-77 80 -77 228v399h30v-395q0 -135 69 -210q69 -74 180 -74q106 0 168 71.5t62 208.5v399zM220 740l-13 17l166 94h4l167 -93l-15 -18l-154 85z"/>
<glyph glyph-name="Udieresis" horiz-adv-x="751" unicode="Ü" d="M467 796q0 9 7 15t17 6q9 0 15.5 -6t6.5 -15q0 -10 -6.5 -16t-15.5 -6q-24 0 -24 22zM233 796q0 9 7 15t17 6q9 0 16 -6t7 -15t-7 -15.5t-16 -6.5q-24 0 -24 22zM615 700h30v-406q0 -150 -74 -226q-73 -75 -186 -75q-124 0 -202 80q-77 80 -77 228v399h30v-395 q0 -135 69 -210q69 -74 180 -74q106 0 168 71.5t62 208.5v399z"/>
<glyph glyph-name="Yacute" horiz-adv-x="567" unicode="Ý" d="M396 852l11 -23l-167 -89l-9 18zM516 700h34l-253 -389v-311h-29v311l-251 389h35l231 -361z"/>
<glyph glyph-name="Thorn" horiz-adv-x="575" unicode="Þ" d="M277 565q-51 0 -131 -2v-351q80 -5 123 -5q105 0 161.5 49.5t56.5 131.5q0 83 -52.5 130t-157.5 47zM146 183v-183h-30v700h30v-109q36 0 69 1t61 1q131 0 186 -58.5t55 -147.5q0 -88 -61 -149q-62 -60 -185 -60q-45 0 -125 5z"/>
<glyph glyph-name="germandbls" horiz-adv-x="539" unicode="ß" d="M454 144q0 38 -22 67.5t-53 49t-62 38.5t-53 46t-22 61q0 54 56 96t56 93q0 38 -30 62.5t-73 24.5q-66 0 -97.5 -41.5t-31.5 -130.5v-513h-29v522q0 190 161 190q55 0 92.5 -31t37.5 -79q0 -33 -17.5 -60t-39 -43t-39 -38.5t-17.5 -46.5q0 -57 75 -101q28 -15 39 -22 t35 -24.5t34.5 -31.5t20 -37.5t9.5 -49.5q0 -68 -43 -111q-42 -43 -104 -43q-46 0 -82.5 21.5t-55.5 53.5l13 20q48 -68 120 -68q48 0 85 35q37 36 37 91z"/>
<glyph glyph-name="agrave" horiz-adv-x="457" unicode="à" d="M275 564l-18 -12l-112 141l21 17zM193 22q40 0 76 14q31 14 47 28t38 43v90q-55 40 -134 40q-58 0 -101 -28q-42 -29 -42 -83q0 -47 32.5 -75.5t83.5 -28.5zM91 394l-9 24q65 41 138 41q85 0 123.5 -44t38.5 -134v-281h-28v78q-62 -83 -167 -83q-63 0 -101.5 35.5 t-38.5 93.5q0 64 47 100.5t124 36.5q84 0 136 -37q0 44 -1 59q-2 66 -18 92q-32 57 -118 57q-61 0 -126 -38z"/>
<glyph glyph-name="aacute" horiz-adv-x="457" unicode="á" d="M293 710l21 -17l-112 -141l-18 12zM193 22q40 0 76 14q31 14 47 28t38 43v90q-55 40 -134 40q-58 0 -101 -28q-42 -29 -42 -83q0 -47 32.5 -75.5t83.5 -28.5zM91 394l-9 24q65 41 138 41q85 0 123.5 -44t38.5 -134v-281h-28v78q-62 -83 -167 -83q-63 0 -101.5 35.5 t-38.5 93.5q0 64 47 100.5t124 36.5q84 0 136 -37q0 44 -1 59q-2 66 -18 92q-32 57 -118 57q-61 0 -126 -38z"/>
<glyph glyph-name="acircumflex" horiz-adv-x="457" unicode="â" d="M193 22q40 0 76 14q31 14 47 28t38 43v90q-55 40 -134 40q-58 0 -101 -28q-42 -29 -42 -83q0 -47 32.5 -75.5t83.5 -28.5zM91 394l-9 24q65 41 138 41q85 0 123.5 -44t38.5 -134v-281h-28v78q-62 -83 -167 -83q-63 0 -101.5 35.5t-38.5 93.5q0 64 47 100.5t124 36.5 q84 0 136 -37q0 44 -1 59q-2 66 -18 92q-32 57 -118 57q-61 0 -126 -38zM227 708h4l120 -131l-15 -18l-107 114l-108 -113l-16 17z"/>
<glyph glyph-name="atilde" horiz-adv-x="457" unicode="ã" d="M96 586l-13 15q50 46 93 46q24 0 56 -24q33 -24 53 -24q30 0 76 41l12 -16q-49 -49 -91 -49q-21 0 -55 23q-31 24 -55 24q-32 0 -76 -36zM193 22q40 0 76 14q31 14 47 28t38 43v90q-55 40 -134 40q-58 0 -101 -28q-42 -29 -42 -83q0 -47 32.5 -75.5t83.5 -28.5zM91 394 l-9 24q65 41 138 41q85 0 123.5 -44t38.5 -134v-281h-28v78q-62 -83 -167 -83q-63 0 -101.5 35.5t-38.5 93.5q0 64 47 100.5t124 36.5q84 0 136 -37q0 44 -1 59q-2 66 -18 92q-32 57 -118 57q-61 0 -126 -38z"/>
<glyph glyph-name="adieresis" horiz-adv-x="457" unicode="ä" d="M193 22q40 0 76 14q31 14 47 28t38 43v90q-55 40 -134 40q-58 0 -101 -28q-42 -29 -42 -83q0 -47 32.5 -75.5t83.5 -28.5zM91 394l-9 24q65 41 138 41q85 0 123.5 -44t38.5 -134v-281h-28v78q-62 -83 -167 -83q-63 0 -101.5 35.5t-38.5 93.5q0 64 47 100.5t124 36.5 q84 0 136 -37q0 44 -1 59q-2 66 -18 92q-32 57 -118 57q-61 0 -126 -38zM306 626q0 8 6.5 14.5t15.5 6.5q8 0 14.5 -6.5t6.5 -14.5q0 -22 -22 -22q-21 0 -21 22zM95 626q0 8 6.5 14.5t15.5 6.5q8 0 14 -6.5t6 -14.5q0 -10 -6 -16.5t-14 -6.5q-9 0 -15.5 6.5t-6.5 16.5z"/>
<glyph glyph-name="aring" horiz-adv-x="457" unicode="å" d="M222 537q32 0 55 22.5t23 55.5q0 32 -23 55t-55 23q-33 0 -55 -22.5t-22 -55.5t22 -55.5t55 -22.5zM124 614q0 41 28.5 69.5t69.5 28.5t70 -28.5t29 -69.5q0 -40 -29 -68t-70 -28t-69.5 28t-28.5 68zM193 22q40 0 76 14q31 14 47 28t38 43v90q-55 40 -134 40 q-58 0 -101 -28q-42 -29 -42 -83q0 -47 32.5 -75.5t83.5 -28.5zM91 394l-9 24q65 41 138 41q85 0 123.5 -44t38.5 -134v-281h-28v78q-62 -83 -167 -83q-63 0 -101.5 35.5t-38.5 93.5q0 64 47 100.5t124 36.5q84 0 136 -37q0 44 -1 59q-2 66 -18 92q-32 57 -118 57 q-61 0 -126 -38z"/>
<glyph glyph-name="ae" horiz-adv-x="801" unicode="æ" d="M193 22q40 0 76 14q31 14 47 28t38 43v118q-82 12 -134 12q-58 0 -101 -28q-42 -29 -42 -83q0 -47 32.5 -75.5t83.5 -28.5zM382 281v-31h339q0 84 -48 133t-129 49q-116 0 -167 -94q5 -33 5 -57zM220 459q116 0 148 -86q62 86 180 86q87 0 145 -56q57 -56 57 -146 q0 -7 -2 -31h-366v-113q54 -95 181 -95q95 0 152 62l10 -21q-27 -32 -71.5 -50t-92.5 -18q-127 0 -193 90q-74 -86 -177 -86q-66 0 -105 35t-39 94q0 64 47 100.5t124 36.5q72 0 136 -11q1 10 1 29q0 80 -32 116.5t-106 36.5q-61 0 -126 -38l-9 24q65 41 138 41z"/>
<glyph glyph-name="ccedilla" horiz-adv-x="491" unicode="ç" d="M189 -178l10 17q38 -20 73 -20q36 0 58.5 15t22.5 39q0 54 -82 54h-6v65q-96 7 -154.5 70.5t-58.5 162.5t63 166q65 68 157 68q114 0 172 -55l-14 -23q-58 51 -153 51q-81 0 -139 -60q-57 -58 -57 -147q0 -94 58 -151q59 -56 150 -56q44 0 84.5 17.5t65.5 47.5l14 -19 q-27 -35 -71.5 -54t-94.5 -19h-3v-47q97 -1 97 -72q0 -33 -28.5 -53t-77.5 -20q-37 0 -86 23z"/>
<glyph glyph-name="egrave" horiz-adv-x="527" unicode="è" d="M304 564l-18 -12l-112 141l21 17zM271 432q-83 0 -133.5 -50t-56.5 -132h366q1 84 -47 133t-129 49zM441 80l11 -21q-27 -32 -71.5 -50t-92.5 -18q-105 0 -170 64q-66 65 -66 170q0 104 58 168q58 66 165 66q88 0 144 -56q57 -56 57 -146q0 -7 -2 -31h-391q1 -96 57 -152 t149 -56q95 0 152 62z"/>
<glyph glyph-name="eacute" horiz-adv-x="527" unicode="é" d="M356 710l21 -17l-112 -141l-18 12zM271 432q-83 0 -133.5 -50t-56.5 -132h366q1 84 -47 133t-129 49zM441 80l11 -21q-27 -32 -71.5 -50t-92.5 -18q-105 0 -170 64q-66 65 -66 170q0 104 58 168q58 66 165 66q88 0 144 -56q57 -56 57 -146q0 -7 -2 -31h-391 q1 -96 57 -152t149 -56q95 0 152 62z"/>
<glyph glyph-name="ecircumflex" horiz-adv-x="527" unicode="ê" d="M271 432q-83 0 -133.5 -50t-56.5 -132h366q1 84 -47 133t-129 49zM441 80l11 -21q-27 -32 -71.5 -50t-92.5 -18q-105 0 -170 64q-66 65 -66 170q0 104 58 168q58 66 165 66q88 0 144 -56q57 -56 57 -146q0 -7 -2 -31h-391q1 -96 57 -152t149 -56q95 0 152 62zM272 708h4 l120 -131l-15 -18l-107 114l-108 -113l-16 17z"/>
<glyph glyph-name="edieresis" horiz-adv-x="527" unicode="ë" d="M349 626q0 8 6.5 14.5t15.5 6.5q8 0 14.5 -6.5t6.5 -14.5q0 -22 -22 -22q-21 0 -21 22zM138 626q0 8 6.5 14.5t15.5 6.5q8 0 14 -6.5t6 -14.5q0 -10 -6 -16.5t-14 -6.5q-9 0 -15.5 6.5t-6.5 16.5zM271 432q-83 0 -133.5 -50t-56.5 -132h366q1 84 -47 133t-129 49zM441 80 l11 -21q-27 -32 -71.5 -50t-92.5 -18q-105 0 -170 64q-66 65 -66 170q0 104 58 168q58 66 165 66q88 0 144 -56q57 -56 57 -146q0 -7 -2 -31h-391q1 -96 57 -152t149 -56q95 0 152 62z"/>
<glyph glyph-name="igrave" horiz-adv-x="255" unicode="ì" d="M141 0h-28v450h28v-450zM152 564l-18 -12l-112 141l21 17z"/>
<glyph glyph-name="iacute" horiz-adv-x="255" unicode="í" d="M141 0h-28v450h28v-450zM209 710l21 -17l-112 -141l-18 12z"/>
<glyph glyph-name="icircumflex" horiz-adv-x="255" unicode="î" d="M141 0h-28v450h28v-450zM127 708h4l120 -131l-15 -18l-107 114l-108 -113l-16 17z"/>
<glyph glyph-name="idieresis" horiz-adv-x="255" unicode="ï" d="M141 0h-28v450h28v-450zM212 626q0 8 6.5 14.5t15.5 6.5q8 0 14.5 -6.5t6.5 -14.5q0 -22 -21 -22q-22 0 -22 22zM1 626q0 8 6.5 14.5t15.5 6.5q8 0 14 -6.5t6 -14.5q0 -10 -6 -16.5t-14 -6.5q-9 0 -15.5 6.5t-6.5 16.5z"/>
<glyph glyph-name="eth" horiz-adv-x="569" unicode="ð" d="M284 18q91 0 147 65t56 171v5q-9 67 -65 120t-138 53q-89 0 -146 -58t-57 -149t57 -149t146 -58zM332 608l-124 -66l-10 24l113 60q-52 44 -121 73l31 10q57 -24 114 -70l104 55l10 -24l-93 -50q76 -70 118.5 -166t42.5 -198q0 -120 -65 -193q-64 -72 -168 -72 q-102 0 -167 66q-65 67 -65 168t65 168q65 66 167 66q65 0 116.5 -34t78.5 -94q-24 161 -147 277z"/>
<glyph glyph-name="ntilde" horiz-adv-x="553" unicode="ñ" d="M114 0h-29v450h29v-68q28 33 77 54.5t96 21.5q96 0 143 -49.5t47 -154.5v-254h-28v248q0 93 -41 138t-126 45q-49 0 -97 -23q-47 -23 -71 -54v-354zM143 586l-13 15q50 46 93 46q25 0 56 -24q33 -24 53 -24q30 0 76 41l12 -16q-49 -49 -91 -49q-21 0 -55 23 q-31 24 -55 24q-33 0 -76 -36z"/>
<glyph glyph-name="ograve" horiz-adv-x="569" unicode="ò" d="M320 564l-18 -12l-112 141l21 17zM138 374q-57 -58 -57 -149t57 -149t146 -58t146 58t57 149t-57 149t-146 58t-146 -58zM117 57q-65 67 -65 168t65 168q65 66 167 66t167 -66q66 -66 66 -168t-66 -168q-65 -66 -167 -66t-167 66z"/>
<glyph glyph-name="oacute" horiz-adv-x="569" unicode="ó" d="M358 710l21 -17l-112 -141l-18 12zM138 374q-57 -58 -57 -149t57 -149t146 -58t146 58t57 149t-57 149t-146 58t-146 -58zM117 57q-65 67 -65 168t65 168q65 66 167 66t167 -66q66 -66 66 -168t-66 -168q-65 -66 -167 -66t-167 66z"/>
<glyph glyph-name="ocircumflex" horiz-adv-x="569" unicode="ô" d="M138 374q-57 -58 -57 -149t57 -149t146 -58t146 58t57 149t-57 149t-146 58t-146 -58zM117 57q-65 67 -65 168t65 168q65 66 167 66t167 -66q66 -66 66 -168t-66 -168q-65 -66 -167 -66t-167 66zM282 708h4l120 -131l-15 -18l-107 114l-108 -113l-16 17z"/>
<glyph glyph-name="otilde" horiz-adv-x="569" unicode="õ" d="M151 586l-13 15q50 46 93 46q25 0 56 -24q33 -24 53 -24q30 0 76 41l12 -16q-49 -49 -91 -49q-21 0 -55 23q-31 24 -55 24q-33 0 -76 -36zM138 374q-57 -58 -57 -149t57 -149t146 -58t146 58t57 149t-57 149t-146 58t-146 -58zM117 57q-65 67 -65 168t65 168 q65 66 167 66t167 -66q66 -66 66 -168t-66 -168q-65 -66 -167 -66t-167 66z"/>
<glyph glyph-name="odieresis" horiz-adv-x="569" unicode="ö" d="M138 374q-57 -58 -57 -149t57 -149t146 -58t146 58t57 149t-57 149t-146 58t-146 -58zM117 57q-65 67 -65 168t65 168q65 66 167 66t167 -66q66 -66 66 -168t-66 -168q-65 -66 -167 -66t-167 66zM370 626q0 8 6.5 14.5t15.5 6.5q8 0 14.5 -6.5t6.5 -14.5q0 -22 -22 -22 q-21 0 -21 22zM159 626q0 8 6.5 14.5t15.5 6.5q8 0 14 -6.5t6 -14.5q0 -10 -6 -16.5t-14 -6.5q-9 0 -15.5 6.5t-6.5 16.5z"/>
<glyph glyph-name="divide" d="M513 347h-440v26h440v-26zM271 146q0 8 6.5 14.5t16.5 6.5q9 0 15 -6.5t6 -14.5q0 -9 -6 -16t-15 -7q-10 0 -16.5 7t-6.5 16zM294 596q9 0 15 -6.5t6 -14.5q0 -9 -6 -16t-15 -7q-22 0 -22 22t22 22z" unicode="÷"/>
<glyph glyph-name="oslash" horiz-adv-x="569" unicode="ø" d="M487 225q0 77 -43 132l-293 -294q54 -45 133 -45q89 0 146 58t57 149zM81 225q0 -88 52 -144l295 295q-59 56 -144 56q-89 0 -146 -58t-57 -149zM52 225q0 101 65 168q65 66 167 66q98 0 164 -63l55 55l16 -18l-55 -55q53 -65 53 -153q0 -102 -66 -168q-65 -66 -167 -66 q-90 0 -152 53l-57 -57l-17 19l55 55q-61 64 -61 164z"/>
<glyph glyph-name="ugrave" horiz-adv-x="547" unicode="ù" d="M309 564l-18 -12l-112 141l21 17zM434 450h28v-450h-28v78q-30 -37 -80.5 -62t-100.5 -25q-178 0 -178 203v256h29v-249q0 -93 38.5 -138t119.5 -45q51 0 99 27q48 29 73 62v343z"/>
<glyph glyph-name="uacute" horiz-adv-x="547" unicode="ú" d="M348 710l21 -17l-112 -141l-18 12zM434 450h28v-450h-28v78q-30 -37 -80.5 -62t-100.5 -25q-178 0 -178 203v256h29v-249q0 -93 38.5 -138t119.5 -45q51 0 99 27q48 29 73 62v343z"/>
<glyph glyph-name="ucircumflex" horiz-adv-x="547" unicode="û" d="M434 450h28v-450h-28v78q-30 -37 -80.5 -62t-100.5 -25q-178 0 -178 203v256h29v-249q0 -93 38.5 -138t119.5 -45q51 0 99 27q48 29 73 62v343zM267 708h4l120 -131l-15 -18l-107 114l-108 -113l-16 17z"/>
<glyph glyph-name="udieresis" horiz-adv-x="547" unicode="ü" d="M434 450h28v-450h-28v78q-30 -37 -80.5 -62t-100.5 -25q-178 0 -178 203v256h29v-249q0 -93 38.5 -138t119.5 -45q51 0 99 27q48 29 73 62v343zM358 626q0 8 6.5 14.5t15.5 6.5q8 0 14.5 -6.5t6.5 -14.5q0 -22 -22 -22q-21 0 -21 22zM147 626q0 8 6.5 14.5t15.5 6.5 q8 0 14 -6.5t6 -14.5q0 -10 -6 -16.5t-14 -6.5q-9 0 -15.5 6.5t-6.5 16.5z"/>
<glyph glyph-name="yacute" horiz-adv-x="472" unicode="ý" d="M423 450h32l-184 -450q-49 -119 -85 -158q-36 -42 -82 -42q-33 0 -70 19l10 22q33 -15 56 -15q39 0 70 35t64 115l10 24l-227 450h33l173 -345q15 -28 35 -73q5 13 29 75zM309 710l21 -17l-112 -141l-18 12z"/>
<glyph glyph-name="thorn" horiz-adv-x="552" unicode="þ" d="M281 432q-49 0 -96 -22t-71 -54v-290q68 -48 157 -48q88 0 144 59t56 152t-50.5 148t-139.5 55zM114 -200h-29v900h29v-314q28 32 75.5 52.5t97.5 20.5q99 0 156 -63q58 -62 58 -164q0 -105 -64 -173q-63 -68 -165 -68q-98 0 -158 45v-236z"/>
<glyph glyph-name="OE" horiz-adv-x="1048" unicode="Œ" d="M406 20q110 0 183 57v547q-74 56 -193 56q-138 0 -223 -94t-85 -236q0 -148 88 -239t230 -91zM979 0h-390v43q-76 -52 -185 -52q-155 0 -251 98q-96 99 -96 261q0 155 94 256q94 103 244 103q120 0 194 -52v43h380v-28h-350v-302h320v-28h-320v-314h360v-28z"/>
<glyph glyph-name="oe" horiz-adv-x="847" unicode="œ" d="M591 432q-83 0 -133.5 -50t-56.5 -132h367q0 84 -48 133t-129 49zM285 18q83 0 139 51q-52 62 -52 156q0 96 50 158q-55 49 -137 49q-89 0 -146 -58t-57 -149t57 -149t146 -58zM761 80l11 -21q-27 -32 -71.5 -50t-92.5 -18q-99 0 -164 58q-62 -58 -159 -58 q-102 0 -168 66q-65 67 -65 168t65 168q66 66 168 66q92 0 154 -56q59 56 156 56q88 0 144 -56q57 -56 57 -146q0 -7 -2 -31h-391q1 -96 57 -152t149 -56q95 0 152 62z"/>
<glyph glyph-name="Scaron" horiz-adv-x="543" unicode="Š" d="M280 742h-4l-167 93l13 17l156 -85l154 85l14 -17zM455 170q0 44 -21 77t-54.5 52t-73.5 34.5t-80.5 31.5t-74 36.5t-54.5 55.5t-21 83q0 75 54 122t146 47q56 0 105 -19t79 -52l-17 -21q-61 63 -168 63q-77 0 -122.5 -38.5t-45.5 -101.5q0 -51 28 -85q13 -17 34 -31 t33.5 -20t48.5 -20t45 -18q67 -26 92 -38q44 -20 71 -61t27 -96q0 -81 -63 -131q-61 -49 -156 -49q-61 0 -123 27q-62 28 -87 72l19 20q30 -40 83 -66q54 -24 106 -24q79 0 134 39q56 41 56 111z"/>
<glyph glyph-name="scaron" horiz-adv-x="409" unicode="š" d="M323 114q0 31 -19 51.5t-47 30.5t-61 22t-61 24t-47 38.5t-19 65.5q0 51 37.5 82t99.5 31q39 0 74.5 -13.5t54.5 -34.5l-14 -21q-40 43 -116 43q-47 0 -77 -24.5t-30 -61.5q0 -38 26 -62t63.5 -35.5t75 -24t63.5 -39.5t26 -70q0 -59 -42 -92t-109 -33q-44 0 -86 19 q-43 19 -59 43l18 18q17 -23 54.5 -38.5t73.5 -15.5q52 0 86.5 25.5t34.5 71.5zM207 560h-4l-122 131l16 18l108 -119l107 118l16 -17z"/>
<glyph glyph-name="Ydieresis" horiz-adv-x="567" unicode="Ÿ" d="M378 796q0 9 7 15t17 6q9 0 15.5 -6t6.5 -15q0 -10 -6.5 -16t-15.5 -6q-24 0 -24 22zM144 796q0 9 7 15t17 6q9 0 16 -6t7 -15t-7 -15.5t-16 -6.5q-24 0 -24 22zM516 700h34l-253 -389v-311h-29v311l-251 389h35l231 -361z"/>
<glyph glyph-name="circumflex" horiz-adv-x="366" unicode="ˆ" d="M182 708h4l120 -131l-15 -18l-107 114l-108 -113l-16 17z"/>
<glyph glyph-name="caron" horiz-adv-x="367" unicode="ˇ" d="M186 560h-4l-122 131l16 18l108 -119l107 118l16 -17z"/>
<glyph glyph-name="tilde" horiz-adv-x="410" unicode="˜" d="M73 586l-13 15q50 46 93 46q25 0 56 -24q33 -24 53 -24q30 0 76 41l12 -16q-49 -49 -91 -49q-21 0 -55 23q-31 24 -55 24q-33 0 -76 -36z"/>
<glyph glyph-name="pi" horiz-adv-x="647" unicode="π" d="M163 423h-109v27h538v-27h-109v-307q0 -52 11.5 -72.5t41.5 -20.5q35 0 64 23l9 -23q-37 -27 -81 -27q-38 0 -55.5 24t-17.5 76v327h-264v-84q0 -101 -10.5 -169.5t-31.5 -105t-47 -51.5t-63 -15l-2 28q62 0 93 67q32 68 33 236v94z"/>
<glyph glyph-name="afii10023" horiz-adv-x="575" unicode="Ё" d="M402 796q0 9 7 15t17 6q9 0 15.5 -6t6.5 -15q0 -10 -6.5 -16t-15.5 -6q-24 0 -24 22zM168 796q0 9 7 15t17 6q9 0 16 -6t7 -15t-7 -15.5t-16 -6.5q-24 0 -24 22zM506 0h-390v700h380v-28h-350v-302h320v-28h-320v-314h360v-28z"/>
<glyph glyph-name="afii10051" horiz-adv-x="758" unicode="Ђ" d="M701 205q0 -108 -43.5 -161t-121.5 -53q-23 0 -49 9.5t-37 19.5l12 23q32 -23 72 -23q65 0 101 46t36 138q0 191 -182 191q-54 0 -92 -17q-15 -6 -31 -14l-32 -18l-24 -15v-331h-29v672h-271v28h571v-28h-271v-313q32 22 47 30q61 34 138 34q206 0 206 -218z"/>
<glyph glyph-name="afii10052" horiz-adv-x="501" unicode="Ѓ" d="M146 0h-30v700h383v-28h-353v-672zM432 852l11 -23l-167 -89l-9 18z"/>
<glyph glyph-name="afii10053" horiz-adv-x="682" unicode="Є" d="M87 371h392v-28h-392q2 -147 93 -235t236 -88q111 0 206 68l14 -24q-100 -73 -223 -73q-159 0 -258 99q-98 100 -98 260q0 158 96 258q96 101 254 101q137 0 214 -68l-15 -21q-76 60 -195 60q-140 0 -229 -86q-87 -84 -95 -223z"/>
<glyph glyph-name="afii10054" horiz-adv-x="543" unicode="Ѕ" d="M455 170q0 44 -21 77t-54.5 52t-73.5 34.5t-80.5 31.5t-74 36.5t-54.5 55.5t-21 83q0 75 54 122t146 47q56 0 105 -19t79 -52l-17 -21q-61 63 -168 63q-77 0 -122.5 -38.5t-45.5 -101.5q0 -51 28 -85q13 -17 34 -31t33.5 -20t48.5 -20t45 -18q67 -26 92 -38 q44 -20 71 -61t27 -96q0 -81 -63 -131q-61 -49 -156 -49q-61 0 -123 27q-62 28 -87 72l19 20q30 -40 83 -66q54 -24 106 -24q79 0 134 39q56 41 56 111z"/>
<glyph glyph-name="afii10055" horiz-adv-x="316" unicode="І" d="M173 0h-30v700h30v-700z"/>
<glyph glyph-name="afii10056" horiz-adv-x="316" unicode="Ї" d="M173 0h-30v700h30v-700zM207 796q0 9 6.5 15t15.5 6q8 0 14.5 -6t6.5 -15q0 -10 -6.5 -16t-15.5 -6t-15 6t-6 16zM90 817q20 0 20 -21q0 -22 -20 -22q-10 0 -16 6.5t-6 15.5t6 15t16 6z"/>
<glyph glyph-name="afii10057" horiz-adv-x="350" unicode="Ј" d="M204 700h29v-550q0 -80 -30 -119.5t-99 -39.5q-52 0 -87 29l12 23q32 -23 72 -23q57 0 80 33t23 100v547z"/>
<glyph glyph-name="afii10058" horiz-adv-x="1041" unicode="Љ" d="M722 387q-61 0 -116 -6v-353q27 0 51 -1t61 -1q114 0 174.5 48t60.5 141q0 82 -59.5 127t-171.5 45zM576 0v672h-328l-11 -132q-22 -278 -69 -409q-19 -55 -47 -87q-37 -44 -84 -44h-8v29q46 0 78 49q34 51 59 155q32 136 44 327l10 140h386v-290q65 5 116 5 q128 0 194.5 -52.5t66.5 -148.5q0 -105 -71 -160.5t-198 -55.5q-42 0 -73 1t-65 1z"/>
<glyph glyph-name="afii10059" horiz-adv-x="1082" unicode="Њ" d="M646 370v-342q28 0 52 -1t61 -1q234 0 234 183q0 81 -58.5 124t-171.5 43q-61 0 -117 -6zM146 0h-30v700h30v-303h471v303h29v-302q72 6 117 6q130 0 195.5 -50t65.5 -145q0 -104 -70 -157.5t-199 -53.5q-35 0 -60 1t-53 1h-25v369h-471v-369z"/>
<glyph glyph-name="afii10060" horiz-adv-x="758" unicode="Ћ" d="M281 672h-271v28h571v-28h-271v-314q86 65 194 65q95 0 146 -56t51 -168v-199h-29v195q0 99 -45 149.5t-130 50.5q-38 0 -77 -11q-35 -10 -56 -21l-46 -28l-8 -5v-330h-29v672z"/>
<glyph glyph-name="afii10061" horiz-adv-x="624" unicode="Ќ" d="M440 852l11 -23l-167 -89l-9 18zM146 0h-30v700h30v-700zM536 700h41l-344 -333l356 -367h-43l-354 365z"/>
<glyph glyph-name="afii10062" horiz-adv-x="640" unicode="Ў" d="M163 845h28q22 -35 58.5 -55.5t81.5 -20.5q47 0 85.5 21.5t51.5 54.5h28q-12 -42 -60 -71q-47 -28 -105 -28t-104 28t-64 71zM591 700h30l-246 -544q-37 -84 -71.5 -120t-79.5 -36q-43 0 -70 21l10 25q28 -19 59 -19q61 0 110 103l15 30l-329 540h33l310 -511z"/>
<glyph glyph-name="afii10145" horiz-adv-x="761" unicode="Џ" d="M366 0h-250v700h30v-672h469v672h30v-700h-251v-159h-28v159z"/>
<glyph glyph-name="afii10017" horiz-adv-x="690" unicode="А" d="M507 288l-163 375l-163 -375h326zM57 0h-31l308 707h22l308 -707h-32l-113 260h-350z"/>
<glyph glyph-name="afii10018" horiz-adv-x="608" unicode="Б" d="M273 382q-72 0 -127 -6v-348q30 0 57 -1t65 -1q114 0 173.5 47.5t59.5 137.5q0 82 -58.5 126.5t-169.5 44.5zM116 0v700h377v-28h-347v-268q69 6 127 6q127 0 192.5 -51.5t65.5 -146.5q0 -105 -70 -159.5t-197 -54.5q-46 0 -79 1t-69 1z"/>
<glyph glyph-name="afii10019" horiz-adv-x="617" unicode="В" d="M291 674q-63 0 -145 -2v-299h156q76 0 127 42q52 42 52 111q0 148 -190 148zM296 346h-150v-318q32 0 68 -1t80 -1q104 0 160 42.5t56 125.5q0 72 -56 112t-158 40zM116 0v700q38 0 81 1t96 1q218 0 218 -172q0 -67 -42 -110.5t-108 -55.5v-2q86 -8 132.5 -52t46.5 -118 q0 -96 -65.5 -145t-180.5 -49q-52 0 -95 1t-83 1z"/>
<glyph glyph-name="afii10020" horiz-adv-x="501" unicode="Г" d="M146 0h-30v700h383v-28h-353v-672z"/>
<glyph glyph-name="afii10021" horiz-adv-x="738" unicode="Д" d="M256 672l-9 -130q-9 -148 -35 -271t-46 -171q-21 -51 -39 -72h449v644h-320zM47 -137h-28v165h75q33 41 73 176q40 131 52 356l8 140h378v-672h95v-165h-28v137h-625v-137z"/>
<glyph glyph-name="afii10022" horiz-adv-x="575" unicode="Е" d="M506 0h-390v700h380v-28h-350v-302h320v-28h-320v-314h360v-28z"/>
<glyph glyph-name="afii10024" horiz-adv-x="904" unicode="Ж" d="M35 0l320 365l-309 335h39l307 -335l-318 -365h-39zM467 0h-30v700h30v-700zM819 700h40l-310 -334l321 -366h-40l-318 365z"/>
<glyph glyph-name="afii10025" horiz-adv-x="569" unicode="З" d="M261 -9q-62 0 -124 28q-61 28 -90 71l18 18q34 -40 90 -64q55 -24 102 -24q94 0 149.5 48.5t55.5 129.5q0 67 -43.5 106.5t-115.5 39.5h-93v28h86q52 0 96 47q43 46 43 112q0 70 -45 109.5t-119 39.5q-109 0 -186 -81l-18 17q35 44 88.5 68.5t114.5 24.5q90 0 142 -47.5 t52 -130.5q0 -53 -30 -100t-81 -68v-3q62 -7 100 -54t38 -110q0 -94 -65 -150q-64 -55 -165 -55z"/>
<glyph glyph-name="afii10026" horiz-adv-x="799" unicode="И" d="M653 652l-510 -652h-27v700h30v-653l510 653h27v-700h-30v652z"/>
<glyph glyph-name="afii10027" horiz-adv-x="799" unicode="Й" d="M230 845h28q22 -35 58.5 -55.5t81.5 -20.5q47 0 85.5 21.5t51.5 54.5h28q-12 -42 -60 -71q-47 -28 -105 -28t-104 28t-64 71zM653 652l-510 -652h-27v700h30v-653l510 653h27v-700h-30v652z"/>
<glyph glyph-name="afii10028" horiz-adv-x="624" unicode="К" d="M146 0h-30v700h30v-700zM536 700h41l-344 -333l356 -367h-43l-354 365z"/>
<glyph glyph-name="afii10029" horiz-adv-x="722" unicode="Л" d="M606 0h-30v672h-328l-11 -132q-22 -278 -69 -409q-19 -55 -47 -87q-37 -44 -84 -44h-8v29q46 0 78 49q34 51 59 155q32 136 44 327l10 140h386v-700z"/>
<glyph glyph-name="afii10030" horiz-adv-x="877" unicode="М" d="M146 0h-30v700h31l297 -405l288 405h29v-700h-29v655l-287 -404h-5l-294 401v-652z"/>
<glyph glyph-name="afii10031" horiz-adv-x="772" unicode="Н" d="M656 0h-29v343h-481v-343h-30v700h30v-329h481v329h29v-700z"/>
<glyph glyph-name="afii10032" horiz-adv-x="807" unicode="О" d="M403 20q135 0 225 94t90 236q0 141 -91 235q-90 95 -224 95q-133 0 -225 -95q-90 -94 -90 -235q0 -142 90 -236q91 -94 225 -94zM57 350q0 152 99 255q99 104 247 104q147 0 246 -103q100 -101 100 -256q0 -153 -100 -256q-99 -103 -246 -103t-247 102q-99 103 -99 257z "/>
<glyph glyph-name="afii10033" horiz-adv-x="771" unicode="П" d="M655 0h-30v672h-479v-672h-30v700h539v-700z"/>
<glyph glyph-name="afii10034" horiz-adv-x="575" unicode="Р" d="M279 674q-45 0 -133 -2v-352q80 -5 123 -5q105 0 161.5 49.5t56.5 132.5t-52 130t-156 47zM146 292v-292h-30v700q40 0 81 1t79 1q139 0 192 -66q49 -57 49 -140q0 -88 -61 -149q-62 -60 -185 -60q-45 0 -125 5z"/>
<glyph glyph-name="afii10035" horiz-adv-x="657" unicode="С" d="M606 90l13 -23q-36 -35 -94 -55.5t-121 -20.5q-155 0 -251 98q-96 99 -96 261q0 155 94 256q94 103 244 103q131 0 211 -65l-15 -21q-72 57 -195 57q-138 0 -223 -94t-85 -236q0 -148 88 -239t230 -91q118 0 200 70z"/>
<glyph glyph-name="afii10036" horiz-adv-x="591" unicode="Т" d="M281 672h-271v28h571v-28h-271v-672h-29v672z"/>
<glyph glyph-name="afii10037" horiz-adv-x="640" unicode="У" d="M591 700h30l-246 -544q-37 -84 -71.5 -120t-79.5 -36q-43 0 -70 21l10 25q28 -19 59 -19q61 0 110 103l15 30l-329 540h33l310 -511z"/>
<glyph glyph-name="afii10038" horiz-adv-x="827" unicode="Ф" d="M78 360q0 -120 86 -185t226 -65h8v500h-6q-142 0 -228 -66q-86 -65 -86 -184zM433 610h-6v-500h10q139 0 225 65t86 185t-86 185t-229 65zM427 -8h-29v91h-9q-154 0 -248 73t-94 204q0 130 93 204q94 73 253 73h5v71h29v-71h5q160 0 254 -74q93 -73 93 -203 q0 -131 -94 -204t-248 -73h-10v-91z"/>
<glyph glyph-name="afii10039" horiz-adv-x="657" unicode="Х" d="M577 700h36l-265 -344l274 -356h-36l-258 333l-257 -333h-36l275 356l-264 344h36l247 -321z"/>
<glyph glyph-name="afii10040" horiz-adv-x="783" unicode="Ц" d="M717 0h-601v700h30v-672h474v672h30v-672h95v-165h-28v137z"/>
<glyph glyph-name="afii10041" horiz-adv-x="624" unicode="Ч" d="M478 700h30v-700h-30v334q-40 -27 -96.5 -45.5t-113.5 -18.5q-96 0 -151.5 57t-55.5 167v206h30v-202q0 -97 48.5 -148t135.5 -51q106 0 203 64v337z"/>
<glyph glyph-name="afii10042" horiz-adv-x="991" unicode="Ш" d="M875 0h-759v700h29v-672h336v672h29v-672h336v672h29v-700z"/>
<glyph glyph-name="afii10043" horiz-adv-x="1008" unicode="Щ" d="M942 0h-826v700h29v-672h336v672h29v-672h336v672h29v-672h95v-165h-28v137z"/>
<glyph glyph-name="afii10044" horiz-adv-x="664" unicode="Ъ" d="M343 387q-69 0 -125 -6v-353q28 0 55 -1t66 -1q115 0 175.5 48t60.5 141q0 82 -59.5 127t-172.5 45zM188 672h-187v28h217v-290q65 5 125 5q130 0 196.5 -52t66.5 -149q0 -105 -71 -160.5t-200 -55.5q-44 0 -78 1q-33 1 -69 1v672z"/>
<glyph glyph-name="afii10045" horiz-adv-x="815" unicode="Ы" d="M116 700h30v-290q65 5 116 5q128 0 194.5 -52.5t66.5 -148.5q0 -105 -70.5 -160.5t-197.5 -55.5q-43 0 -74 1t-65 1v700zM262 387q-61 0 -116 -6v-353q27 0 51 -1t61 -1q114 0 174.5 48t60.5 141q0 82 -59.5 127t-171.5 45zM699 0h-29v700h29v-700z"/>
<glyph glyph-name="afii10046" horiz-adv-x="591" unicode="Ь" d="M116 700h30v-290q65 5 125 5q130 0 196 -52t66 -149q0 -105 -71 -160.5t-199 -55.5q-44 0 -78 1q-33 1 -69 1v700zM271 387q-70 0 -125 -6v-353q28 0 55 -1t66 -1q115 0 175.5 48t60.5 141q0 82 -59.5 127t-172.5 45z"/>
<glyph glyph-name="afii10047" horiz-adv-x="683" unicode="Э" d="M595 343h-392v28h392q-6 144 -94 226q-88 83 -231 83q-118 0 -195 -60l-13 21q77 68 213 68q161 0 255 -97q95 -97 95 -259q0 -155 -96 -259q-96 -103 -251 -103q-132 0 -232 73l15 24q98 -68 215 -68q140 0 227 91q87 90 92 232z"/>
<glyph glyph-name="afii10048" horiz-adv-x="1074" unicode="Ю" d="M681 20q133 0 219 93q85 94 85 237q0 141 -86 236q-85 94 -218 94q-132 0 -219 -94q-86 -95 -86 -236t86 -236q87 -94 219 -94zM146 0h-30v700h30v-329h200q7 145 101 242q93 96 233 96q146 0 241 -102q95 -103 95 -257q0 -153 -95 -257q-95 -102 -241 -102 q-144 0 -238 99q-95 101 -96 253h-200v-343z"/>
<glyph glyph-name="afii10049" horiz-adv-x="608" unicode="Я" d="M280 314h183v358q-29 0 -57 1t-66 1q-104 0 -160.5 -51.5t-56.5 -136.5q0 -64 47 -114q47 -49 110 -58zM492 0h-29v286h-177l-214 -286h-36l220 290q-66 16 -116 69q-48 54 -48 127q0 98 66.5 157t186.5 59q42 0 76 -1t71 -1v-700z"/>
<glyph glyph-name="afii10065" horiz-adv-x="457" unicode="а" d="M193 22q40 0 76 14q31 14 47 28t38 43v90q-55 40 -134 40q-58 0 -101 -28q-42 -29 -42 -83q0 -47 32.5 -75.5t83.5 -28.5zM91 394l-9 24q65 41 138 41q85 0 123.5 -44t38.5 -134v-281h-28v78q-62 -83 -167 -83q-63 0 -101.5 35.5t-38.5 93.5q0 64 47 100.5t124 36.5 q84 0 136 -37q0 44 -1 59q-2 66 -18 92q-32 57 -118 57q-61 0 -126 -38z"/>
<glyph glyph-name="afii10066" horiz-adv-x="558" unicode="б" d="M81 262q0 -115 56 -180q55 -64 143 -64q84 0 140 59q57 59 57 143q0 92 -52 147t-141 55q-83 0 -138 -49q-55 -50 -65 -111zM448 709l16 -18q-29 -49 -95 -55q-86 -7 -148 -34q-128 -52 -142 -289h2q23 61 81 99q58 37 127 37q101 0 159 -63q58 -61 58 -165 q0 -95 -65 -163q-64 -67 -159 -67q-105 0 -168 73q-63 74 -63 202q0 296 163 363q43 19 98 25q61 8 89 17.5t47 37.5z"/>
<glyph glyph-name="afii10067" horiz-adv-x="479" unicode="в" d="M224 426q-23 0 -110 -3v-182h137q56 0 89 26t33 69q0 90 -149 90zM242 217h-128v-191q26 0 50 -1q25 -1 62 -1q166 0 166 100q0 93 -150 93zM85 0v450q32 0 62 1q60 2 76 2q180 0 180 -114q0 -41 -25 -70t-71 -35v-2q60 -8 87.5 -35t27.5 -76q0 -60 -50 -92t-146 -32 q-14 0 -76 2q-31 1 -65 1z"/>
<glyph glyph-name="afii10068" horiz-adv-x="346" unicode="г" d="M114 0h-29v450h260v-27h-231v-423z"/>
<glyph glyph-name="afii10069" horiz-adv-x="513" unicode="д" d="M176 423l-7 -117q-8 -100 -30 -176q-23 -77 -44 -103h296v396h-215zM37 -117h-27v144h55q26 33 48.5 110.5t28.5 178.5l7 134h270v-423h75v-144h-27v117h-430v-117z"/>
<glyph glyph-name="afii10070" horiz-adv-x="527" unicode="е" d="M271 432q-83 0 -133.5 -50t-56.5 -132h366q1 84 -47 133t-129 49zM441 80l11 -21q-27 -32 -71.5 -50t-92.5 -18q-105 0 -170 64q-66 65 -66 170q0 104 58 168q58 66 165 66q88 0 144 -56q57 -56 57 -146q0 -7 -2 -31h-391q1 -96 57 -152t149 -56q95 0 152 62z"/>
<glyph glyph-name="afii10072" horiz-adv-x="635" unicode="ж" d="M26 0l201 234l-192 216h36l188 -216l-198 -234h-35zM330 0h-28v450h28v-450zM561 450h35l-191 -216l203 -234h-35l-201 234z"/>
<glyph glyph-name="afii10073" horiz-adv-x="455" unicode="з" d="M215 -9q-42 0 -96 17q-51 16 -73 43l15 22q26 -25 68.5 -40t80.5 -15q72 0 115 29.5t43 80.5q0 42 -32 65.5t-86 23.5h-76v24h71q41 0 73 29q31 28 31 70q0 44 -34.5 68t-95.5 24q-84 0 -145 -53l-13 21q57 59 162 59q75 0 115 -30.5t40 -85.5q0 -80 -83 -110v-2 q47 -4 74.5 -34t27.5 -72q0 -62 -50 -98t-132 -36z"/>
<glyph glyph-name="afii10074" horiz-adv-x="561" unicode="и" d="M448 409l-334 -409h-29v450h29v-409l334 409h28v-450h-28v409z"/>
<glyph glyph-name="afii10075" horiz-adv-x="561" unicode="й" d="M157 687h25q0 -40 29 -66.5t76 -26.5q45 0 73 26.5t28 66.5h25q0 -50 -35.5 -83.5t-90.5 -33.5q-59 0 -94.5 32.5t-35.5 84.5zM448 409l-334 -409h-29v450h29v-409l334 409h28v-450h-28v409z"/>
<glyph glyph-name="afii10076" horiz-adv-x="472" unicode="к" d="M114 0h-29v450h29v-450zM390 450h40l-241 -215l258 -235h-42l-254 234z"/>
<glyph glyph-name="afii10077" horiz-adv-x="523" unicode="л" d="M438 0h-28v422h-217l-7 -118q-20 -306 -147 -306l-2 28q25 0 50 25q17 19 30 46q34 69 41 213l8 140h272v-450z"/>
<glyph glyph-name="afii10078" horiz-adv-x="618" unicode="м" d="M114 0h-29v450h28l200 -275l194 275h26v-450h-28v408l-192 -272h-3l-196 272v-408z"/>
<glyph glyph-name="afii10079" horiz-adv-x="555" unicode="н" d="M470 0h-29v216h-327v-216h-29v450h29v-207h327v207h29v-450z"/>
<glyph glyph-name="afii10080" horiz-adv-x="569" unicode="о" d="M138 374q-57 -58 -57 -149t57 -149t146 -58t146 58t57 149t-57 149t-146 58t-146 -58zM117 57q-65 67 -65 168t65 168q65 66 167 66t167 -66q66 -66 66 -168t-66 -168q-65 -66 -167 -66t-167 66z"/>
<glyph glyph-name="afii10081" horiz-adv-x="550" unicode="п" d="M465 0h-29v423h-322v-423h-29v450h380v-450z"/>
<glyph glyph-name="afii10082" horiz-adv-x="552" unicode="р" d="M281 432q-49 0 -96 -22t-71 -54v-290q68 -48 157 -48q88 0 144 59t56 152t-50.5 148t-139.5 55zM114 -200h-29v650h29v-66q27 33 75 54t98 21q99 0 156 -63q58 -62 58 -164q0 -105 -64 -173q-63 -68 -165 -68q-98 0 -158 45v-236z"/>
<glyph glyph-name="afii10083" horiz-adv-x="491" unicode="с" d="M439 83l14 -19q-27 -35 -71.5 -54t-94.5 -19q-105 0 -170 64q-65 65 -65 170q0 99 63 166q65 68 157 68q114 0 172 -55l-14 -23q-58 51 -153 51q-81 0 -139 -60q-57 -58 -57 -147q0 -94 58 -151q59 -56 150 -56q44 0 84.5 17.5t65.5 47.5z"/>
<glyph glyph-name="afii10084" horiz-adv-x="433" unicode="т" d="M202 422h-191v28h410v-28h-191v-422h-28v422z"/>
<glyph glyph-name="afii10085" horiz-adv-x="472" unicode="у" d="M423 450h32l-184 -450q-49 -119 -85 -158q-36 -42 -82 -42q-33 0 -70 19l10 22q33 -15 56 -15q39 0 70 35t64 115l10 24l-227 450h33l173 -345q15 -28 35 -73q5 13 29 75z"/>
<glyph glyph-name="afii10086" horiz-adv-x="656" unicode="ф" d="M363 432h-21v-414h17q99 0 158 57q58 58 58 150q0 85 -58 146t-154 61zM81 225q0 -92 58 -150q59 -57 160 -57h15v414h-20q-96 0 -155 -60q-58 -58 -58 -147zM342 -200h-28v191h-18q-111 0 -178 65q-66 66 -66 169q0 96 66 165q68 69 177 69h19v241h28v-241h21 q107 0 174 -67q68 -68 68 -167q0 -103 -66 -169q-65 -65 -176 -65h-21v-191z"/>
<glyph glyph-name="afii10087" horiz-adv-x="485" unicode="х" d="M405 450h34l-177 -218l187 -232h-35l-172 212l-172 -212h-34l187 231l-177 219h35l161 -200z"/>
<glyph glyph-name="afii10088" horiz-adv-x="557" unicode="ц" d="M511 0h-426v450h29v-423h321v423h28v-423h75v-144h-27v117z"/>
<glyph glyph-name="afii10089" horiz-adv-x="469" unicode="ч" d="M356 450h28v-450h-28v203q-56 -43 -144 -43q-156 0 -156 167v123h30v-123q0 -140 134 -140q83 0 136 43v220z"/>
<glyph glyph-name="afii10090" horiz-adv-x="696" unicode="ш" d="M611 0h-526v450h28v-423h221v423h28v-423h221v423h28v-450z"/>
<glyph glyph-name="afii10091" horiz-adv-x="705" unicode="щ" d="M659 0h-574v450h28v-423h221v423h28v-423h221v423h28v-423h75v-144h-27v117z"/>
<glyph glyph-name="afii10092" horiz-adv-x="492" unicode="ъ" d="M264 258h-87v-231h86q81 0 117 28.5t36 87.5q0 115 -152 115zM149 423h-148v27h176v-165h91q178 0 178 -142q0 -143 -183 -143h-114v423z"/>
<glyph glyph-name="afii10093" horiz-adv-x="603" unicode="ы" d="M518 0h-28v450h28v-450zM191 258h-77v-231h76q81 0 117.5 29t36.5 87q0 115 -153 115zM190 0h-105v450h29v-165h81q178 0 178 -142q0 -143 -183 -143z"/>
<glyph glyph-name="afii10094" horiz-adv-x="428" unicode="ь" d="M200 258h-86v-231h85q81 0 117.5 29t36.5 87q0 115 -153 115zM200 0h-115v450h29v-165h90q178 0 178 -142q0 -143 -182 -143z"/>
<glyph glyph-name="afii10095" horiz-adv-x="491" unicode="э" d="M411 217h-251v25h250q-5 87 -61.5 138.5t-144.5 51.5q-94 0 -152 -63l-13 20q27 33 72 51.5t93 18.5q105 0 169 -64q66 -65 66 -170q0 -99 -64 -166q-63 -68 -156 -68q-115 0 -173 55l14 22q56 -50 156 -50q80 0 136 56q56 58 59 143z"/>
<glyph glyph-name="afii10096" horiz-adv-x="742" unicode="ю" d="M274 225q0 -90 53 -148q54 -57 139 -57t139 57t54 148q0 90 -54 147q-52 58 -139 58q-85 0 -139 -58q-53 -58 -53 -147zM115 0h-30v450h30v-206h128q6 96 67 155q62 60 156 60q100 0 161 -66q63 -66 63 -168t-63 -168t-161 -66q-96 0 -158 63q-62 64 -65 162h-128v-216z "/>
<glyph glyph-name="afii10097" horiz-adv-x="473" unicode="я" d="M110 314q0 -46 35 -75q37 -29 74 -29h141v213h-105q-72 0 -108.5 -29t-36.5 -80zM260 450h128v-450h-28v183h-133l-145 -183h-36l152 189q-48 6 -82 40q-35 35 -35 85q0 64 43.5 100t135.5 36z"/>
<glyph glyph-name="afii10071" horiz-adv-x="527" unicode="ё" d="M271 432q-83 0 -133.5 -50t-56.5 -132h366q1 84 -47 133t-129 49zM441 80l11 -21q-27 -32 -71.5 -50t-92.5 -18q-105 0 -170 64q-66 65 -66 170q0 104 58 168q58 66 165 66q88 0 144 -56q57 -56 57 -146q0 -7 -2 -31h-391q1 -96 57 -152t149 -56q95 0 152 62zM351 626 q0 8 6.5 14.5t15.5 6.5q8 0 14.5 -6.5t6.5 -14.5q0 -22 -22 -22q-21 0 -21 22zM140 626q0 8 6.5 14.5t15.5 6.5q8 0 14 -6.5t6 -14.5q0 -10 -6 -16.5t-14 -6.5q-9 0 -15.5 6.5t-6.5 16.5z"/>
<glyph glyph-name="afii10099" horiz-adv-x="606" unicode="ђ" d="M150 501h-149v24h149v175h28v-175h213v-24h-213v-201q28 33 77 54t97 21q96 0 143 -49.5t47 -153.5q0 -115 -46 -217q-47 -104 -138 -155h-34q100 59 144.5 157.5t44.5 206.5q0 94 -40.5 139t-125.5 45q-50 0 -98 -24q-47 -23 -71 -54v-270h-28v501z"/>
<glyph glyph-name="afii10100" horiz-adv-x="346" unicode="ѓ" d="M114 0h-29v450h260v-27h-231v-423zM301 710l21 -17l-112 -141l-18 12z"/>
<glyph glyph-name="afii10101" horiz-adv-x="491" unicode="є" d="M80 242h251v-25h-251q2 -92 60 -146q59 -53 148 -53q88 0 144 50l13 -22q-58 -55 -163 -55q-101 0 -166 65q-64 65 -64 169q0 105 65 170q65 64 170 64q48 0 93 -18.5t72 -51.5l-13 -20q-58 63 -152 63q-88 0 -144.5 -51.5t-62.5 -138.5z"/>
<glyph glyph-name="afii10102" horiz-adv-x="409" unicode="ѕ" d="M323 114q0 31 -19 51.5t-47 30.5t-61 22t-61 24t-47 38.5t-19 65.5q0 51 37.5 82t99.5 31q39 0 74.5 -13.5t54.5 -34.5l-14 -21q-40 43 -116 43q-47 0 -77 -24.5t-30 -61.5q0 -38 26 -62t63.5 -35.5t75 -24t63.5 -39.5t26 -70q0 -59 -42 -92t-109 -33q-44 0 -86 19 q-43 19 -59 43l18 18q17 -23 54.5 -38.5t73.5 -15.5q52 0 86.5 25.5t34.5 71.5z"/>
<glyph glyph-name="afii10103" horiz-adv-x="255" unicode="і" d="M105 629q0 9 7 15.5t16 6.5q8 0 14.5 -6.5t6.5 -15.5q0 -10 -6.5 -16.5t-14.5 -6.5q-9 0 -16 6.5t-7 16.5zM141 0h-28v450h28v-450z"/>
<glyph glyph-name="afii10104" horiz-adv-x="261" unicode="ї" d="M144 0h-28v450h28v-450zM171 625q0 19 21 19q20 0 20 -19q0 -20 -20 -20q-21 0 -21 20zM51 625q0 8 6 14t15 6q7 0 13 -6t6 -14q0 -9 -6 -15t-13 -6q-9 0 -15 6t-6 15z"/>
<glyph glyph-name="afii10105" horiz-adv-x="255" unicode="ј" d="M106 629q0 9 7 15.5t16 6.5q8 0 14.5 -6.5t6.5 -15.5q0 -10 -6.5 -16.5t-14.5 -6.5q-9 0 -16 6.5t-7 16.5zM115 450h28v-483q0 -175 -141 -175q-48 0 -85 26l10 23q31 -22 71 -22q117 0 117 149v482z"/>
<glyph glyph-name="afii10106" horiz-adv-x="741" unicode="љ" d="M513 258h-75v-231h74q81 0 117.5 29t36.5 87q0 115 -153 115zM512 0h-102v422h-217l-7 -118q-20 -306 -147 -306l-2 28q25 0 50 25q17 19 30 46q34 69 41 213l8 140h272v-165h79q178 0 178 -142q0 -143 -183 -143z"/>
<glyph glyph-name="afii10107" horiz-adv-x="773" unicode="њ" d="M545 241h-75v-214h74q83 0 118 25.5t35 81.5q0 55 -35.5 81t-116.5 26zM114 0h-29v450h29v-190h327v190h29v-182h79q95 0 136.5 -33t41.5 -101q0 -134 -183 -134h-103v233h-327v-233z"/>
<glyph glyph-name="afii10108" horiz-adv-x="606" unicode="ћ" d="M150 501h-149v24h149v175h28v-175h213v-24h-213v-201q28 33 77 54t97 21q96 0 143 -49.5t47 -154.5v-171h-29v166q0 92 -40.5 137t-125.5 45q-50 0 -98 -24q-47 -23 -71 -54v-270h-28v501z"/>
<glyph glyph-name="afii10109" horiz-adv-x="472" unicode="ќ" d="M318 710l21 -17l-112 -141l-18 12zM114 0h-29v450h29v-450zM390 450h40l-241 -215l258 -235h-42l-254 234z"/>
<glyph glyph-name="afii10110" horiz-adv-x="472" unicode="ў" d="M114 687h25q0 -40 29 -66.5t76 -26.5q45 0 73 26.5t28 66.5h25q0 -50 -35.5 -83.5t-90.5 -33.5q-59 0 -94.5 32.5t-35.5 84.5zM423 450h32l-184 -450q-49 -119 -85 -158q-36 -42 -82 -42q-33 0 -70 19l10 22q33 -15 56 -15q39 0 70 35t64 115l10 24l-227 450h33l173 -345 q15 -28 35 -73q5 13 29 75z"/>
<glyph glyph-name="afii10193" horiz-adv-x="540" unicode="џ" d="M257 0h-172v450h29v-423h312v423h29v-450h-172v-136h-26v136z"/>
<glyph glyph-name="afii10146" horiz-adv-x="626" unicode="Ѣ" d="M306 382q-70 0 -126 -6v-348q29 0 56 -1t65 -1q115 0 175.5 47t60.5 139q0 82 -59 126t-172 44zM151 700h29v-130h173v-28h-173v-138q72 6 126 6q130 0 196 -51t66 -147q0 -104 -71 -159t-199 -55q-44 0 -78 1q-33 1 -69 1v542h-148v28h148v130z"/>
<glyph glyph-name="afii10194" horiz-adv-x="491" unicode="ѣ" d="M267 251h-90v-224h89q79 0 114.5 28t35.5 84q0 112 -149 112zM149 423h-148v27h148v250h28v-250h168v-27h-168v-145h90q178 0 178 -140q0 -138 -182 -138h-114v423z"/>
<glyph glyph-name="afii10147" horiz-adv-x="807" unicode="Ѳ" d="M88 350v-8q85 70 177 70q75 0 147 -46t142 -46q40 0 85 19.5t77 47.5q-14 129 -101 210q-88 83 -212 83q-133 0 -225 -95q-90 -94 -90 -235zM263 385q-45 0 -94 -24q-45 -21 -79 -52q13 -125 102 -208q88 -81 211 -81q135 0 225 94t90 236v2q-1 3 -1 5q-82 -64 -165 -64 q-63 0 -146 46q-82 46 -143 46zM57 350q0 152 99 255q99 104 247 104q147 0 246 -103q100 -101 100 -256q0 -153 -100 -256q-99 -103 -246 -103t-247 102q-99 103 -99 257z"/>
<glyph glyph-name="afii10195" horiz-adv-x="569" unicode="ѳ" d="M401 201q48 0 86 34q-4 87 -61 142q-55 55 -142 55q-85 0 -142 -54q-57 -53 -61 -138q49 37 100 37q41 0 112 -38t108 -38zM179 250q-51 0 -98 -41q4 -85 61 -138q58 -53 142 -53q85 0 140 52q56 53 62 135q-40 -31 -88 -31q-39 0 -112 38q-71 38 -107 38zM117 57 q-65 67 -65 168t65 168q65 66 167 66t167 -66q66 -66 66 -168t-66 -168q-65 -66 -167 -66t-167 66z"/>
<glyph glyph-name="afii10148" horiz-adv-x="655" unicode="Ѵ" d="M525 511l-184 -518h-19l-306 707h32l284 -658l174 499q41 116 76 145q22 18 53 18q20 0 40 -7l-6 -27q-17 7 -33 7q-27 0 -45 -22q-27 -35 -66 -144z"/>
<glyph glyph-name="afii10196" horiz-adv-x="475" unicode="ѵ" d="M381 318l-126 -325h-18l-221 457h33l154 -318q12 -23 43 -93l36 97l78 200q33 88 61 108q14 11 35 11q20 0 39 -8l-7 -26q-14 8 -26 8q-21 0 -38.5 -25.5t-42.5 -85.5z"/>
<glyph glyph-name="afii10050" horiz-adv-x="501" unicode="Ґ" d="M146 0h-30v700h354v136h29v-164h-353v-672z"/>
<glyph glyph-name="afii10098" horiz-adv-x="346" unicode="ґ" d="M114 0h-29v450h233v116h27v-143h-231v-423z"/>
<glyph glyph-name="endash" horiz-adv-x="587" unicode="–" d="M489 257h-392v26h392v-26z"/>
<glyph glyph-name="emdash" horiz-adv-x="789" unicode="—" d="M692 257h-595v26h595v-26z"/>
<glyph glyph-name="quoteleft" horiz-adv-x="237" unicode="‘" d="M137 554l-23 -16q-23 26 -23 65q0 83 65 116l12 -15q-50 -27 -50 -95q0 -36 19 -55z"/>
<glyph glyph-name="quotesinglbase" horiz-adv-x="237" unicode="‚" d="M99 37l24 17q23 -26 23 -65q0 -82 -65 -117l-12 15q50 29 50 96q0 34 -20 54z"/>
<glyph glyph-name="quotedblleft" horiz-adv-x="356" unicode="“" d="M137 554l-23 -16q-23 26 -23 65q0 83 65 116l12 -15q-50 -27 -50 -95q0 -36 19 -55zM256 554l-23 -16q-23 26 -23 65q0 83 65 116l12 -15q-50 -27 -50 -95q0 -36 19 -55z"/>
<glyph glyph-name="quotedblright" horiz-adv-x="356" unicode="”" d="M99 702l24 17q23 -26 23 -65q0 -82 -65 -117l-12 15q50 29 50 96q0 34 -20 54zM218 702l24 17q23 -26 23 -65q0 -82 -65 -117l-12 15q50 29 50 96q0 34 -20 54z"/>
<glyph glyph-name="dagger" horiz-adv-x="411" unicode="†" d="M192 432h-152v26h152v242h27v-242h152v-26h-152v-532h-27v532z"/>
<glyph glyph-name="daggerdbl" horiz-adv-x="411" unicode="‡" d="M192 432h-152v26h152v242h27v-242h152v-26h-152v-234h152v-26h-152v-272h-27v272h-152v26h152v234z"/>
<glyph glyph-name="ellipsis" horiz-adv-x="832" unicode="…" d="M92 24q0 8 7.5 15t17.5 7q9 0 16 -7t7 -15q0 -10 -7 -17.5t-16 -7.5q-10 0 -17.5 7.5t-7.5 17.5zM392 24q0 8 7.5 15t17.5 7q9 0 16 -7t7 -15q0 -10 -7 -17.5t-16 -7.5q-10 0 -17.5 7.5t-7.5 17.5zM692 24q0 8 7.5 15t17.5 7q9 0 16 -7t7 -15q0 -10 -7 -17.5t-16 -7.5 q-10 0 -17.5 7.5t-7.5 17.5z"/>
<glyph glyph-name="perthousand" horiz-adv-x="1233" unicode="‰" d="M608 23q57 0 95 37q40 37 40 96q0 58 -40 95t-95 37t-95 -37t-40 -95q0 -59 40 -96t95 -37zM446 156q0 69 46 112q47 44 116 44q68 0 115 -44t47 -112q0 -70 -46 -113q-47 -44 -116 -44t-116 44q-46 43 -46 113zM218 413q57 0 95 37q40 37 40 96q0 58 -40 95t-95 37 t-95 -37t-40 -95q0 -59 40 -96t95 -37zM56 546q0 69 46 112q47 44 116 44q68 0 115 -44t47 -112q0 -70 -46 -113q-47 -44 -116 -44t-116 44q-46 43 -46 113zM162 -9l-18 14l527 704l17 -13zM1014 23q57 0 95 37q40 37 40 96q0 58 -40 95t-95 37t-95 -37t-40 -95 q0 -59 40 -96t95 -37zM852 156q0 69 46 112q47 44 116 44q68 0 115 -44t47 -112q0 -70 -46 -113q-47 -44 -116 -44t-116 44q-46 43 -46 113z"/>
<glyph glyph-name="guilsinglleft" horiz-adv-x="325" unicode="‹" d="M249 61l-18 -18l-175 205v4l176 203l19 -17l-163 -188z"/>
<glyph glyph-name="guilsinglright" horiz-adv-x="325" unicode="›" d="M268 252v-4l-174 -205l-19 18l161 189l-163 188l19 17z"/>
<glyph glyph-name="fraction" horiz-adv-x="184" unicode="⁄" d="M-162 -9l-18 14l527 704l17 -13z"/>
<glyph glyph-name="Euro" d="M101 428h-81l10 25h76q28 113 115 185q88 71 209 71q84 0 137 -29l-11 -27q-58 27 -126 27q-108 0 -186 -63q-77 -61 -106 -164h366l-9 -25h-363q-7 -32 -7 -78q0 -37 4 -60h332l-8 -24h-320q24 -114 106 -180q83 -66 202 -66q70 0 111 23l6 -28q-16 -11 -52 -17 q-34 -7 -66 -7q-132 0 -224 74q-91 73 -115 201h-81l10 24h67q-3 28 -3 60q0 46 7 78z" unicode="€"/>
<glyph glyph-name="trademark" horiz-adv-x="820" unicode="™" d="M153 674h-142v26h311v-26h-142v-289h-27v289zM410 385h-27v315h26l153 -186l148 186h24v-315h-27v279l-145 -184h-2l-150 184v-279z"/>
<glyph glyph-name="arrowleft" horiz-adv-x="643" unicode="←" d="M40 273l283 282l20 -20l-248 -247h508v-28h-510l250 -250l-20 -20z"/>
<glyph glyph-name="arrowup" horiz-adv-x="645" unicode="↑" d="M307 508l-247 -248l-20 20l282 283l283 -283l-20 -20l-250 250v-510h-28v508z"/>
<glyph glyph-name="arrowright" horiz-adv-x="643" unicode="→" d="M548 288l-248 247l20 20l283 -282l-283 -283l-20 20l250 250h-510v28h508z"/>
<glyph glyph-name="arrowdown" horiz-adv-x="645" unicode="↓" d="M322 -20l-282 283l20 20l247 -248v508h28v-510l250 250l20 -20z"/>
<glyph glyph-name="partialdiff" horiz-adv-x="578" unicode="∂" d="M81 206q0 -78 51 -133t131 -55q98 0 161 85q64 85 72 192q-56 137 -201 137q-89 0 -152 -67q-62 -68 -62 -159zM52 204q0 105 70 179q70 76 172 76q82 0 134 -40q52 -39 69 -89q0 51 -9 97.5t-30.5 91.5t-54.5 79t-84 56.5t-116 27.5l5 27q151 -10 235 -112 q84 -101 84 -267q0 -86 -31 -161q-30 -76 -93 -127q-61 -51 -143 -51q-89 0 -149 60q-59 62 -59 153z"/>
<glyph glyph-name="product" horiz-adv-x="876" unicode="∏" d="M760 -200h-29v872h-585v-872h-30v900h644v-900z"/>
<glyph glyph-name="summation" horiz-adv-x="624" unicode="∑" d="M40 -184l324 434l-324 434v16h544v-28h-499l315 -422l-317 -422h501v-28h-544v16z"/>
<glyph glyph-name="minus" d="M513 347h-440v26h440v-26z" unicode="−"/>
<glyph glyph-name="radical" horiz-adv-x="573" unicode="√" d="M117 422h-116v28h135l194 -402l142 652h256v-28h-231l-151 -679h-20z"/>
<glyph glyph-name="infinity" horiz-adv-x="731" unicode="∞" d="M201 231q45 0 76.5 25.5t71.5 85.5q-27 35 -46 56q-51 55 -100 55q-51 0 -85 -33t-34 -79q0 -50 37 -80t80 -30zM534 453q-46 0 -80 -26t-74 -83q28 -38 48 -57q52 -56 112 -56q50 0 79 33q28 32 28 73q0 51 -30.5 83.5t-82.5 32.5zM540 205q-49 0 -88.5 28t-87.5 89 q-22 -33 -45 -59q-20 -24 -52.5 -41t-66.5 -17q-55 0 -99 37q-44 38 -44 99q0 56 41 97q43 41 105 41q43 0 78.5 -27t83.5 -88q42 60 80 87.5t94 27.5q62 0 98.5 -39t36.5 -103q0 -51 -36 -92q-34 -40 -98 -40z"/>
<glyph glyph-name="approxequal" d="M79 418l-16 19q60 57 121 57q43 0 117 -37t113 -37q49 0 95 46l14 -20q-55 -52 -110 -52q-41 0 -116 37q-76 38 -114 38q-51 0 -104 -51zM79 252l-16 19q60 57 121 57q43 0 117 -37t113 -37q49 0 95 46l14 -20q-55 -52 -110 -52q-41 0 -116 37q-76 38 -114 38 q-51 0 -104 -51z" unicode="≈"/>
<glyph glyph-name="notequal" d="M300 430h-227v26h236l95 253l23 -9l-91 -244h177v-26h-186l-52 -140h238v-26h-248l-101 -273l-23 10l97 263h-165v26h175z" unicode="≠"/>
<glyph glyph-name="lessequal" d="M473 212v-32l-403 259v12l403 256v-31l-363 -231zM473 15l-403 258v29l403 -258v-29z" unicode="≤"/>
<glyph glyph-name="greaterequal" d="M516 451v-12l-403 -259v32l363 233l-363 231v31zM113 44l403 258v-29l-403 -258v29z" unicode="≥"/>
<glyph glyph-name="lozenge" horiz-adv-x="463" unicode="◊" d="M232 487l-148 -237l148 -226l147 236zM240 -7h-18l-167 256l168 269h18l167 -258z"/>
<glyph glyph-name="spade" horiz-adv-x="632" unicode="♠" d="M316 510q88 -55 172 -151t84 -160q0 -44 -31 -74t-86 -30q-78 0 -131 72q29 -120 107 -167h-230q74 53 105 164q-51 -69 -129 -69q-55 0 -86 30t-31 75q0 63 84 159t172 151z"/>
<glyph glyph-name="club" horiz-adv-x="612" unicode="♣" d="M177 381q0 53 38 91t91 38t91 -38t38 -91q0 -3 -2 -19q51 -5 84 -41q35 -38 35 -87q0 -53 -38 -91t-91 -38q-66 0 -104 53q31 -114 102 -158h-230q62 43 100 156q-41 -51 -102 -51q-53 0 -91 38t-38 91q0 50 34 87q33 36 84 41q-1 4 -1 19z"/>
<glyph glyph-name="heart" horiz-adv-x="649" unicode="♥" d="M325 0q-95 72 -179 181q-86 113 -86 189q0 56 31.5 93t89.5 37q88 0 144 -104q54 104 143 104q57 0 89 -36.5t32 -92.5q0 -76 -86 -189q-87 -113 -178 -182z"/>
<glyph glyph-name="diamond" horiz-adv-x="583" unicode="♦" d="M523 249q-109 -109 -232 -268q-102 134 -231 268q106 110 231 269q124 -158 232 -269z"/>
</font>
</defs>
</svg>
